<svg xmlns="http://www.w3.org/2000/svg" viewBox="0 0 23.47 20.408">
  <defs>
    <style>
      .cls-1 {
        fill: #fff;
      }
    </style>
  </defs>
  <path id="Poupanca" class="cls-1" d="M17.733,0a.93.93,0,0,0-.489.172L13.593,3.1a17.891,17.891,0,0,0-2.64-.221,14.211,14.211,0,0,0-7.6,2.028A6.491,6.491,0,0,0,0,10.2c0,2.371,1.572,4.4,3.969,5.7l.473,3.81a.811.811,0,0,0,.774.7H7.3a.8.8,0,0,0,.7-.433l1.3-2.592a7.732,7.732,0,0,0,1.394.147,6.926,6.926,0,0,0,1.426-.18l1.548,2.666a.8.8,0,0,0,.676.392h2.086a.812.812,0,0,0,.774-.7l.473-3.794a8.516,8.516,0,0,0,3.04-2.314h1.972a.814.814,0,0,0,.782-.785V7.588a.814.814,0,0,0-.782-.785H20.732a8.519,8.519,0,0,0-2.217-1.979V.785A.763.763,0,0,0,17.733,0ZM16.95,2.42V5.233a.8.8,0,0,0,.367.662,7.446,7.446,0,0,1,2.355,2.093.8.8,0,0,0,.668.384h1.565v3.663H20.34a.8.8,0,0,0-.668.368,7.187,7.187,0,0,1-3.064,2.322.8.8,0,0,0-.432.613l-.432,3.5H14.8l-1.605-2.755a.8.8,0,0,0-.766-.384c-.708.083-1.278.262-1.736.262a5.632,5.632,0,0,1-1.557-.221.809.809,0,0,0-.97.392L6.813,18.839H5.9l-.432-3.5a.8.8,0,0,0-.432-.613C2.768,13.616,1.565,11.994,1.565,10.2A4.913,4.913,0,0,1,4.2,6.23a12.771,12.771,0,0,1,6.756-1.782,17.107,17.107,0,0,1,2.73.245.791.791,0,0,0,.627-.155ZM10.431,5.233a9.878,9.878,0,0,0-3.113.556.787.787,0,0,0,.489,1.5A8.325,8.325,0,0,1,10.431,6.8a12.844,12.844,0,0,1,2.706.237.815.815,0,0,0,1-.585.818.818,0,0,0-.671-.944A14.36,14.36,0,0,0,10.431,5.233ZM16.69,7.064a1.308,1.308,0,1,0,1.3,1.308A1.315,1.315,0,0,0,16.69,7.064Z" transform="translate(0)"/>
</svg>
