<svg height="640pt" viewBox="-210 -20 640 640" width="640pt" xmlns="http://www.w3.org/2000/svg"><path d="m197.324219 200c5.523437 0 10-4.476562 10-10v-100c0-.289062-.140625-.53125-.160157-.8125-.152343-1.328125-.527343-2.621094-1.121093-3.816406-.128907-.25-.140625-.523438-.292969-.753906-11.738281-18.375-46.699219-28.617188-78.425781-32.5v-22.117188c0-5.523438-4.476563-10-10-10h-10v-10c0-5.523438-4.476563-10-10-10-5.523438 0-10 4.476562-10 10v10h-10c-5.523438 0-10 4.476562-10 10v21.539062c-36.699219 3.882813-65.421875 15.492188-77.003907 31.351563-.066406.070313-.117187.152344-.1875.21875-.367187.507813-.890624 1-1.226562 1.507813-.152344.230468-.160156.503906-.292969.753906-.585937 1.199218-.96875 2.488281-1.117187 3.816406 0 .28125-.164063.523438-.164063.8125v100c0 5.523438 4.480469 10 10 10 22.089844 0 40 17.910156 40 40s-17.910156 40-40 40c-5.519531 0-10 4.476562-10 10v260c.035157 27.601562 22.398438 49.964844 50 50h119.992188c27.601562-.035156 49.964843-22.398438 50-50v-260c0-5.523438-4.476563-10-10-10-22.089844 0-40-17.910156-40-40s17.910156-40 40-40zm-119.28125-129.429688c6.101562-.4375 12.34375-.625 18.730469-.550781.949218 0 2 .140625 2.929687.160157 5.480469.128906 11 .363281 16.703125.878906h.078125c15.515625 1.210937 30.847656 4.210937 45.679687 8.941406h-132.378906c15.554688-5.410156 31.804688-8.589844 48.257813-9.429688zm-70.71875 109.429688v-80h180v80zm80-140h20v10.351562c-2.738281-.140624-5.402344-.160156-8.089844-.210937-1.121094 0-2.261719-.09375-3.371094-.09375-.570312 0-1.171875 0-1.738281 0-2.28125 0-4.539062 0-6.800781.09375zm100 260v210h-180v-210zm-30 280h-120c-16.566407 0-30-13.433594-30-30v-20h180v20c0 16.566406-13.433594 30-30 30zm-115.402344-300c20.535156-22.714844 20.535156-57.285156 0-80h110.800781c-20.53125 22.714844-20.53125 57.285156 0 80zm0 0"/></svg>