<?xml version="1.0" encoding="utf-8"?>
<!-- Generator: Adobe Illustrator 19.0.0, SVG Export Plug-In . SVG Version: 6.00 Build 0)  -->
<svg version="1.0" id="Layer_1" xmlns="http://www.w3.org/2000/svg" xmlns:xlink="http://www.w3.org/1999/xlink" x="0px" y="0px"
	 width="1400px" height="980px" viewBox="0 0 1400 980" enable-background="new 0 0 1400 980" xml:space="preserve">
<g id="XMLID_10_">
	<rect fill="#FFFFFF" width="1400" height="980"/>
</g>
<g id="XMLID_13_">
	
		<rect x="517.2" y="304.5" transform="matrix(0.9996 -2.937528e-02 2.937528e-02 0.9996 -10.3627 25.8311)" fill="#C1DB9A" width="713.6" height="122.2"/>
</g>
<g id="XMLID_2_">
	<path fill="#2D9045" d="M1357.6,560c0-15.2-12.4-27.6-27.6-27.6s-27.6,12.4-27.6,27.6H1260v42.4c-15.2,0-27.6,12.4-27.6,27.6
		s12.4,27.6,27.6,27.6V700h42.4c0,15.2,12.4,27.6,27.6,27.6s27.6-12.4,27.6-27.6h42.4V560H1357.6z"/>
</g>
<g id="XMLID_18_">
	<path fill="#EE9822" d="M1330,727.6c-15.2,0-27.6-12.4-27.6-27.6H1260v42.4c15.2,0,27.6,12.4,27.6,27.6s-12.4,27.6-27.6,27.6V840
		h42.4c0-15.2,12.4-27.6,27.6-27.6c15.2,0,27.6,12.4,27.6,27.6h42.4V700h-42.4C1357.6,715.2,1345.2,727.6,1330,727.6z"/>
</g>
<g id="XMLID_7_">
	<path fill="#FFF68B" d="M1357.6,840c0-15.2-12.4-27.6-27.6-27.6c-15.2,0-27.6,12.4-27.6,27.6H1260v42.4
		c-15.2,0-27.6,12.4-27.6,27.6s12.4,27.6,27.6,27.6V980h140V840H1357.6z"/>
</g>
<g id="XMLID_26_">
	<path fill="#FFF200" d="M167.6,910c0-15.2-12.4-27.6-27.6-27.6V840H97.6c0-15.2-12.4-27.6-27.6-27.6S42.4,824.8,42.4,840H0v42.4
		v55.2V980h140v-42.4C155.2,937.6,167.6,925.2,167.6,910z"/>
</g>
<g id="XMLID_16_">
	<path fill="#FFF200" d="M420,742.4V700h-42.4c0-15.2-12.4-27.6-27.6-27.6s-27.6,12.4-27.6,27.6H280v42.4
		c-15.2,0-27.6,12.4-27.6,27.6s12.4,27.6,27.6,27.6V840h42.4c0,15.2,12.4,27.6,27.6,27.6s27.6-12.4,27.6-27.6H420v-42.4
		c15.2,0,27.6-12.4,27.6-27.6S435.2,742.4,420,742.4z"/>
</g>
<g id="XMLID_24_">
	<path fill="#FFF200" d="M1260,742.4V700h-42.4c0-15.2-12.4-27.6-27.6-27.6c-15.2,0-27.6,12.4-27.6,27.6H1120v42.4
		c-15.2,0-27.6,12.4-27.6,27.6s12.4,27.6,27.6,27.6V840h42.4c0,15.2,12.4,27.6,27.6,27.6c15.2,0,27.6-12.4,27.6-27.6h42.4v-42.4
		c15.2,0,27.6-12.4,27.6-27.6S1275.2,742.4,1260,742.4z"/>
</g>
<g id="XMLID_23_">
	<path fill="#56AADB" d="M252.4,630c0-15.2,12.4-27.6,27.6-27.6V560h-42.4c0-15.2-12.4-27.6-27.6-27.6s-27.6,12.4-27.6,27.6H140
		v42.4c15.2,0,27.6,12.4,27.6,27.6s-12.4,27.6-27.6,27.6V700h42.4c0-15.2,12.4-27.6,27.6-27.6s27.6,12.4,27.6,27.6H280v-42.4
		C264.8,657.6,252.4,645.2,252.4,630z"/>
</g>
<g id="XMLID_54_">
	<path fill="#2D9045" d="M252.4,349.2c0-15.2,12.4-27.6,27.6-27.6v-42.4h-42.4c0-15.2-12.4-27.6-27.6-27.6s-27.6,12.4-27.6,27.6H140
		v42.4c15.2,0,27.6,12.4,27.6,27.6s-12.4,27.6-27.6,27.6v42.4h42.4c0-15.2,12.4-27.6,27.6-27.6s27.6,12.4,27.6,27.6H280v-42.4
		C264.8,376.8,252.4,364.5,252.4,349.2z"/>
</g>
<g id="XMLID_9_">
	<path fill="#8CC240" d="M252.4,770c0-15.2,12.4-27.6,27.6-27.6V700h-42.4c0-15.2-12.4-27.6-27.6-27.6s-27.6,12.4-27.6,27.6H140
		v42.4c15.2,0,27.6,12.4,27.6,27.6s-12.4,27.6-27.6,27.6V840h42.4c0,15.2,12.4,27.6,27.6,27.6s27.6-12.4,27.6-27.6H280v-42.4
		C264.8,797.6,252.4,785.2,252.4,770z"/>
</g>
<g id="XMLID_53_">
	<path fill="#2D74B6" d="M1092.4,630c0-15.2,12.4-27.6,27.6-27.6V560h-42.4c0-15.2-12.4-27.6-27.6-27.6s-27.6,12.4-27.6,27.6H980
		v42.4c15.2,0,27.6,12.4,27.6,27.6s-12.4,27.6-27.6,27.6V700h42.4c0,15.2,12.4,27.6,27.6,27.6s27.6-12.4,27.6-27.6h42.4v-42.4
		C1104.7,657.6,1092.4,645.2,1092.4,630z"/>
</g>
<g id="XMLID_4_">
	<path fill="#F285B5" d="M280,882.4V840h-42.4c0,15.2-12.4,27.6-27.6,27.6s-27.6-12.4-27.6-27.6H140v42.4
		c15.2,0,27.6,12.4,27.6,27.6s-12.4,27.6-27.6,27.6V980h140v-42.4c15.2,0,27.6-12.4,27.6-27.6S295.2,882.4,280,882.4z"/>
</g>
<g id="XMLID_8_">
	<path fill="#E3452E" d="M140,602.4V560H97.6c0-15.2-12.4-27.6-27.6-27.6S42.4,544.8,42.4,560H0v140h42.4
		c0,15.2,12.4,27.6,27.6,27.6s27.6-12.4,27.6-27.6H140v-42.4c15.2,0,27.6-12.4,27.6-27.6S155.2,602.4,140,602.4z"/>
</g>
<g id="XMLID_25_">
	<path fill="#2D74B6" d="M140,742.4V700H97.6c0,15.2-12.4,27.6-27.6,27.6S42.4,715.2,42.4,700H0v140h42.4
		c0-15.2,12.4-27.6,27.6-27.6s27.6,12.4,27.6,27.6H140v-42.4c15.2,0,27.6-12.4,27.6-27.6S155.2,742.4,140,742.4z"/>
</g>
<g id="XMLID_58_">
	<path fill="#EE9822" d="M140,462.4V420H97.6c0,15.2-12.4,27.6-27.6,27.6S42.4,435.2,42.4,420H0v140h42.4
		c0-15.2,12.4-27.6,27.6-27.6s27.6,12.4,27.6,27.6H140v-42.4c15.2,0,27.6-12.4,27.6-27.6S155.2,462.4,140,462.4z"/>
</g>
<g id="XMLID_3_">
	<path fill="#56AADB" d="M560,882.4V840h-42.4c0-15.2-12.4-27.6-27.6-27.6s-27.6,12.4-27.6,27.6H420v42.4
		c-15.2,0-27.6,12.4-27.6,27.6s12.4,27.6,27.6,27.6V980h140v-42.4c15.2,0,27.6-12.4,27.6-27.6S575.2,882.4,560,882.4z"/>
</g>
<g id="XMLID_19_">
	<path fill="#56AADB" d="M1120,882.4V840h-42.4c0-15.2-12.4-27.6-27.6-27.6s-27.6,12.4-27.6,27.6H980v42.4
		c-15.2,0-27.6,12.4-27.6,27.6s12.4,27.6,27.6,27.6V980h140v-42.4c15.2,0,27.6-12.4,27.6-27.6S1135.2,882.4,1120,882.4z"/>
</g>
<g id="XMLID_5_">
	<path fill="#E3452E" d="M672.4,910c0-15.2,12.4-27.6,27.6-27.6V840h-42.4c0-15.2-12.4-27.6-27.6-27.6s-27.6,12.4-27.6,27.6H560
		v42.4c15.2,0,27.6,12.4,27.6,27.6s-12.4,27.6-27.6,27.6V980h140v-42.4C684.8,937.6,672.4,925.2,672.4,910z"/>
</g>
<g id="XMLID_14_">
	<path fill="#41AD6C" d="M392.4,910c0-15.2,12.4-27.6,27.6-27.6V840h-42.4c0,15.2-12.4,27.6-27.6,27.6s-27.6-12.4-27.6-27.6H280
		v42.4c15.2,0,27.6,12.4,27.6,27.6s-12.4,27.6-27.6,27.6V980h140v-42.4C404.8,937.6,392.4,925.2,392.4,910z"/>
</g>
<g id="XMLID_27_">
	<path fill="#27397B" d="M700,742.4V700h-42.4c0,15.2-12.4,27.6-27.6,27.6s-27.6-12.4-27.6-27.6H560v42.4
		c-15.2,0-27.6,12.4-27.6,27.6s12.4,27.6,27.6,27.6V840h42.4c0-15.2,12.4-27.6,27.6-27.6s27.6,12.4,27.6,27.6H700v-42.4
		c15.2,0,27.6-12.4,27.6-27.6S715.2,742.4,700,742.4z"/>
</g>
<g id="XMLID_22_">
	<path fill="#F285B5" d="M490,727.6c-15.2,0-27.6-12.4-27.6-27.6H420v42.4c15.2,0,27.6,12.4,27.6,27.6s-12.4,27.6-27.6,27.6V840
		h42.4c0-15.2,12.4-27.6,27.6-27.6s27.6,12.4,27.6,27.6H560v-42.4c-15.2,0-27.6-12.4-27.6-27.6s12.4-27.6,27.6-27.6V700h-42.4
		C517.6,715.2,505.2,727.6,490,727.6z"/>
</g>
<g id="XMLID_20_">
	<path fill="#41AD6C" d="M1050,727.6c-15.2,0-27.6-12.4-27.6-27.6H980v42.4c15.2,0,27.6,12.4,27.6,27.6s-12.4,27.6-27.6,27.6V840
		h42.4c0-15.2,12.4-27.6,27.6-27.6s27.6,12.4,27.6,27.6h42.4v-42.4c-15.2,0-27.6-12.4-27.6-27.6s12.4-27.6,27.6-27.6V700h-42.4
		C1077.6,715.2,1065.2,727.6,1050,727.6z"/>
</g>
<g id="XMLID_11_">
	<path fill="#F285B5" d="M980,742.4V700h-42.4c0-15.2-12.4-27.6-27.6-27.6s-27.6,12.4-27.6,27.6H840v42.4
		c-15.2,0-27.6,12.4-27.6,27.6s12.4,27.6,27.6,27.6V840h42.4c0,15.2,12.4,27.6,27.6,27.6s27.6-12.4,27.6-27.6H980v-42.4
		c15.2,0,27.6-12.4,27.6-27.6S995.2,742.4,980,742.4z"/>
</g>
<g id="XMLID_6_">
	<path fill="#8CC240" d="M420,462.8v-42.4h-42.4c0-15.2-12.4-27.6-27.6-27.6s-27.6,12.4-27.6,27.6H280v42.4
		c-15.2,0-27.6,12.4-27.6,27.6S264.8,518,280,518v42.4h42.4c0,15.2,12.4,27.6,27.6,27.6s27.6-12.4,27.6-27.6H420V518
		c15.2,0,27.6-12.4,27.6-27.6S435.2,462.8,420,462.8z"/>
</g>
<g id="XMLID_17_">
	<path fill="#DE2127" d="M910,867.6c-15.2,0-27.6-12.4-27.6-27.6H840v42.4c15.2,0,27.6,12.4,27.6,27.6s-12.4,27.6-27.6,27.6V980h140
		v-42.4c-15.2,0-27.6-12.4-27.6-27.6s12.4-27.6,27.6-27.6V840h-42.4C937.6,855.2,925.2,867.6,910,867.6z"/>
</g>
<g id="XMLID_51_">
	<path fill="#8CC240" d="M1190,867.6c-15.2,0-27.6-12.4-27.6-27.6H1120v42.4c15.2,0,27.6,12.4,27.6,27.6s-12.4,27.6-27.6,27.6V980
		h140v-42.4c-15.2,0-27.6-12.4-27.6-27.6s12.4-27.6,27.6-27.6V840h-42.4C1217.6,855.2,1205.2,867.6,1190,867.6z"/>
</g>
<g id="XMLID_21_">
	<path fill="#EE9822" d="M840,882.4V840h-42.4c0,15.2-12.4,27.6-27.6,27.6s-27.6-12.4-27.6-27.6H700v42.4
		c-15.2,0-27.6,12.4-27.6,27.6s12.4,27.6,27.6,27.6V980h140v-42.4c15.2,0,27.6-12.4,27.6-27.6S855.2,882.4,840,882.4z"/>
</g>
<g id="XMLID_1_">
	<path id="XMLID_49_" fill="#27397B" d="M620,174.1c2.4,0.3,5.4,0.1,5.9,0.4c0.3,0.3,0.8,3.3,1.3,5.6c0.8,3.3,1.6,6.5,2.2,10.4
		c0.3,1.7-0.4,3.3,0.4,4.5c0.7,0.9,0.3,3.4,0.5,5.9c0.1,1.5,0.7,2.8,0.9,4.1c0.1,0.9-0.3,2,0,2.6c0.1,0.5,0.8,0.8,0.9,1.5
		c0,0.3-0.5,0.4-0.5,0.8c0.1,0.4,0.8,1.5,0.9,2.4c0.1,0.7-0.4,0.7-0.4,1.3c0,2.8,0.9,7.9,1.3,11.4c0.9,9.1,1.9,16.1,2.8,25
		c0.7,8.2,1.5,12.7,1.7,21.3c0.1,3.7,0,7.7-0.4,8.2c-0.8,0.9-3-0.4-5,0.5c-0.1,0,0.1,0.8,0,0.8c-0.5,0.7-18.9,0.5-19.6,0
		c-0.7-0.4-1.1-3.7-1.3-6.3c-0.4-5.3-0.3-9.9-0.4-14c-0.3-2.9-0.9-5.4-0.9-6.9c0-1.2,1.1-3.3,0.9-5.4c0,0-1.1-4.2-1.5-4.5
		c-2.1-1.5-11.9,1.2-13.1,1.3c-2.4,0.4-5.4,0-6.9,1.3c-1.2,1.2-0.8,2.5-1.3,4.6c-0.3,0.7-0.7,0.8-0.9,1.7c0-0.1,0.7,0.3,0.4,0.5
		c-0.8,0.7-0.8,2.4-0.9,3.2c0,0.4-0.4,0.8-0.4,0.9c0,0.4,0.3,1.9,0,3.2c-0.1,0.9-0.8,1.1-0.9,1.9c-0.3,1.2-0.1,2.6-0.4,4.5
		c-0.3,2-0.9,4.4-1.5,6.7c-0.1,0.9-0.4,6.9-0.8,7.3c-0.9,0.9-7.5,0.1-9.1,0c-2.8,0-5.8,0.1-8.6,0c-2.4,0-5.8,0.1-6.9-1.3
		c-0.5-0.8-0.1-5.6,0.4-9.1c0.1-0.7,0.8-0.9,0.9-1.7c0.3-0.8-0.1-1.6,0-2.4c0.9-4,1.9-8.1,2.8-12.2c0.3-1.2,0.5-2,0.9-4.1
		c0.3-2.2,0.3-4,0.9-5.9c0-0.1-0.1-0.8,0-0.9c0,0,0.8,0.1,0.9,0c0.3-1.1-0.3-2.2,0-3.2c0.7-3.4,1.9-7,2.6-10.8
		c0.3-1.1,0.1-2.2,0.5-3.2c1.5-5.3,3.2-13.1,4.5-19.2c0.1-0.7,0.8-1.3,0.9-2.2c0.1-0.9-0.3-2.2,0-3.2c0.4-1.7,1.6-3.6,2.2-5.9
		c0.3-1.1,0.1-2.2,0.4-3.6c0.3-0.9,0.7-2.1,0.9-3.2c0.4-1.5,1.2-4.1,1.9-6.3c1.6-5.6,0.9-5.6,6.3-6.9c3.4-0.8,10.2-1.1,14.1-1.3
		C602.2,173.9,614.5,173.5,620,174.1z M597.3,202.2c-0.3,0.8-0.7,1.7-0.9,2.2c-1.1,3.4-1.1,6.5-1.9,10c-0.3,2-2.1,5.6-0.8,6.7
		c1.1,1.1,6.5-0.8,7.3-0.9c1.7-0.1,7.8,0.1,8.6-0.8c1.3-1.7-0.8-11.6-0.9-12.8c-0.1-0.7,0.1-2.4,0-4.1c-0.1-1.3-1.5-7.3-1.3-7.3
		c-0.7-0.4-5,0-5.9,0c-0.5,0.1-0.3,0.4-0.4,0.5c-0.4,0.1-1.2-0.3-1.5,0C598.5,196.8,597.8,201,597.3,202.2z"/>
	<path id="XMLID_55_" fill="#27397B" d="M698.9,174.3c1.6,0.4,3.4,0.7,3.7,0.9c1.2,1.6-0.4,7.1-0.5,10c-0.4,7.8-0.4,17.7-0.4,22.2
		c0,2.9,0.7,6.3,0.9,10c0.4,10.3,0.7,25.4,4.5,31.3c0.3,0.4,0.7,0.5,0.9,0.9c0.1,0.3,0.1,1.1,0.4,1.3c0.9,0.9,5.4,3.3,7.3,3.6
		c3,0.5,5.2,0,7.3-1.3c3-1.7,4.4-4.1,5.9-8.2c1.5-3.7,1.6-13.3,1.9-19.4c0.4-11.4,1.2-21.7,0-32.8c0,0-0.5-0.1-0.5-0.4
		c0-0.4,0.5-0.5,0.5-0.5c-0.1-3.3-0.3-5.2-0.5-8.6c-0.1-3.3-0.8-7,0-7.7c1.2-1.2,9.1-0.4,11,0c0.4,0,0.4,0.7,0.9,0.8
		c0.8,0.4,2.4,0.3,3.6,0.5c1.7,0.3,5.3,0.3,5.4,0.4c0.5,0.5,1.7,9.4,1.9,11c0.3,4.4,0.4,9.4,0.4,12.3c0.1,1.9-0.4,3.8-0.4,5.8
		c0.1,4.2,0.1,10.4,0,15.1c0,1.1,0.5,2,0.4,2.6c0,0.8-0.8,1.5-0.8,2.2c-0.4,2.6,0.1,6.3,0,9.6c-0.1,1.9-0.8,3.7-0.9,5.4
		c-0.1,1.1,0.1,2.2,0,3.2c-0.3,0.9-0.8,1.3-0.9,2.2c0-0.1,0.5,0.1,0.4,0.4c0,0.4-0.5,2.6-0.9,3.3c-0.5,1.3-0.8,4.1-1.3,6.3
		c-0.4,1.5-1.2,2.9-1.9,4.5c-1.1,2.9-1.1,4.9-2.6,6.9c-0.4,0.4-1.1,0.7-1.5,1.3c-0.9,1.5-1.6,2.8-2.2,3.6c-2.1,2.4-5.9,4.5-9,6.3
		c-1.5,0.9-3.7,1.9-5.9,2.8c-2,0.8-5.8,1.3-9.5,1.3c-3,0-7-0.3-9.5-1.3c-1.8-0.7-3.3-1.5-5-2.2c-3.2-1.6-7.1-4.9-9.5-8.2
		c-0.3-0.4-0.8-0.7-0.9-0.9c-1.5-2-2.6-4-4.1-6.3c-1.9-2.8-3.2-7.3-4.6-11.4c-0.3-0.9-1.1-2-1.3-3.2c-0.5-2-0.5-4.1-0.9-5.9
		c-0.3-1.7-0.5-3.3-0.9-5.4c-0.4-2.6-1.1-5.9-1.3-9.9c-0.3-4.8,0.1-9.8,0-15.1c-0.1-4.5-0.8-9-0.9-13.1c0-5.2,0.8-13.5,0.9-17.3
		c0.1-2.1-0.8-4.1-0.4-5.9c0.5-2.5,0.9-2.4,2.6-3.2c1.1-0.4,3.7-0.3,5.9-0.4C689.5,173.7,695.2,173.5,698.9,174.3z"/>
	<path id="XMLID_57_" fill="#27397B" d="M838.4,175.1c4.8,1.5,14.1-0.1,20.5,0.9c1.7,0.3,3.7,1.2,4.1,1.9c1.5,2.2,0.3,8.6,0,9.9
		c-0.1,0.9-0.8,2.4-1.3,4.1c-0.5,1.2-1.1,4-1.5,4.1c-2,1.2-12.4-0.5-15.9-0.4c-1.5,0-4.4,0.3-4.5,0.4c-1.9,1.3-0.7,6.1-0.5,8.7
		c0.1,1.1,0,2,0,3.2c0.1,8.1,0.1,16.5,0.5,25.4c0.1,4.1,0.7,8.1,0.9,12.3c0.3,10,0.4,19.2,0.8,30.8c0.1,3,0.8,5.7,0.5,5.9
		c0.1-0.1-1.6,0.8-2.2,0.9c-4.2,0.8-11.2,0.3-16,0c-0.9,0-2.1,0.1-3.2,0c-0.7-0.1-2.2-0.9-2.2-0.9c-0.4-0.5-0.3-6.9-0.4-9.5
		c-0.5-9.1,0-20.5-0.5-30.4c0-1.2-0.8-5.7-0.9-7.8c-0.3-4.8-0.3-17.3,0-24.5c0.1-0.9,1.5-10.8,0-12.3c-1.3-1.3-7.4,0.3-9.5,0.4
		c-1.7,0.1-4.6,0-7.3,0c-2.5,0.1-5.3,0.8-6.3,0c-0.4-0.3-2.2-6.7-2.2-8.1c0-0.9,0.3-3.3,0-6.5c-0.1-1.9-0.8-4.6-0.4-5.4
		c1.5-3,12-2.1,18.1-2.2c8.7-0.3,15.7-0.4,20.9-0.9C830.4,175.1,836,174.4,838.4,175.1z"/>
	<path id="XMLID_60_" fill="#27397B" d="M924.3,179.1c3,0.1,8.9-0.3,10.4,0.9c1.2,0.7,5,0.3,7.3,0.8c1.9,0.4,4.5,1.7,4.6,1.9
		c1.2,1.6,0.8,6.2,0.4,9.5c-0.1,1.2-0.5,4.8-0.9,5c-0.4,0.4-4.1,0.5-4.9,0.5c-2.6-0.1-2.8-1.2-4.1,0c-1.3,1.1-0.7,5.2-0.9,7.3
		c-1.1,5.9,0.5,17.2,0.4,24.5c0,0.8-0.8,1.6-0.9,2.2c0,0.8,0.5,1.6,0.5,2.2c0,5.3-0.3,11.8-0.5,17.3c0,2-1.2,7.9-0.4,9.1
		c0.9,1.3,3.6,0.4,4.5,0.4c1.5,0.1,4.9,0,5.6,0.5c0.9,0.8,0.4,5.2,0.4,7.3c0,0.8,0.4,1.9,0.4,2.2c0,1.5,0.4,3.3,0,5
		c0.1-0.3-0.8,3.7-1.3,4c-0.1,0.1-4.6,0.4-6.7,0.5c-2.2,0.1-4.8,0.4-6.9,0.4c-5.8,0.3-12.2-0.8-15.9-0.9c-4.8,0-10.2,1.2-12.7-0.4
		c-2.2-1.3-2.2-6.5-2.4-9.5c0-1.6-0.1-3.2,0-4.1c0,0.4,1.2-4.2,1.9-4.5c-0.3,0.1,5.4-0.5,5.9,0c0,0-0.1,0.8,0,0.8
		c0.7,0.3,2.2,0.1,2.6-0.4c0.4-0.4,1.1,0,1.5-0.4c2-2,0.1-12.3,0-17.3c-0.4-6.5-0.1-12.8-0.5-18.6c0-0.5,0.4-0.3,0.5-0.4
		c0-0.5-0.9-3.3-0.9-4.6c0-1.1,0.4-2.1,0.4-3.2c-0.1-3.4-0.1-11-0.4-15.9c0-0.8-0.3-3.4-0.5-3.6c-1.7-1.6-5.7,0.1-8.1,0
		c-3.7-0.3-3.3-4-3.7-7.8c-0.1-1.6-0.4-2.9-0.4-4.5c-0.1-1.1-0.5-3.6,0-4.6c-0.4,0.8,1.6-1.2,1.7-1.3c0.3-0.1,0.7,0.1,0.9,0
		C904.3,178.1,916.6,178.7,924.3,179.1z"/>
	<path id="XMLID_62_" fill="#27397B" d="M1027.8,177.6c0.4,0.5,2.5,0.5,4.1,0.9c3.2,0.9,5.9,1.7,8.6,3.2c0.9,0.5,2.2,0.9,3.2,1.9
		c0.1,0.1,0.3,0.8,0.5,0.9c0.7,0.5,1.7,0.5,2.2,0.9c1.1,0.8,5.7,5.3,5.8,6.7c0.1,1.2-2.4,5.4-3.2,6.3c-0.5,0.7-1.5,1.1-1.7,1.5
		c-2,2-4.8,5.3-7.3,5.4c-3.2,0-7.8-5.4-10.4-6.9c-1.2-0.5-3.4-1.3-5-1.7c-1.7-0.5-2.8-1.3-5.9-0.9c-2.9,0.4-7.4,3.2-8.2,6.3
		c-2,9.4,8.1,12.2,14.1,14.5c1.1,0.4,2.1,0.9,3.2,1.3c3.7,1.3,5.6,2.1,9.1,4.1c2.9,1.6,5.4,2.8,8.1,4.5c1.6,1.1,3.2,1.9,5,3.2
		c0.4,0.4,0.5,1.2,0.9,1.5c0.4,0.3,1.1,0,1.3,0.4c0.5,0.5,0.5,1.1,0.9,1.9c0.4,0.5,1.1,0.8,1.5,1.3c0.5,0.8,1.1,1.5,1.7,2.2
		c0.4,0.5,0.7,1.9,1.5,3.2c0.1,0.4,1.1,1.1,1.3,1.9c0.1,0.5,0.3,1.9,0.4,2.8c0.8,4,0.9,12.4-0.4,16.4c-0.4,1.1-0.5,2.1-0.9,3.2
		c-0.4,0.9-0.9,1.9-1.3,2.6c-0.8,1.6-1.5,3.3-2.8,5c-0.4,0.7-1.2,1.1-1.9,1.9c-1.8,2.4-2.2,4.1-4.9,5.4c-0.8,0.4-1.2,0.5-1.9,0.9
		c-2.1,1.2-4,2.1-6.9,3.2c-1.1,0.4-2.6,1.2-3.6,1.3c-2.5,0.4-6.2,0-11,0c-3.4,0-7.4,0.5-10.8,0c-2.2-0.3-5.3-1.6-8.2-2.6
		c-2.9-1.1-5.9-2.1-7.7-3.2c-0.3-0.1-0.4-0.9-0.5-0.9c-0.3-0.1-0.7,0.1-0.9,0c-1.1-0.8-2.6-2.9-4.1-4.1c-0.4-0.5-1.5-0.7-1.7-0.9
		c-0.4-0.3-0.7-1.5-0.9-1.9c-1.3-1.5-2.6-2.4-2.8-5c0-1.5-0.1-1.2,0.5-2.2c0.8-1.7,2.5-3.7,4.5-5.4c0.3-0.3,1.1-0.3,1.3-0.5
		c1.5-1.1,3.6-4.9,6.3-4.9c2,0,2.6,1.2,3.7,2.2c0.9,0.9,1.7,2.2,2.6,3.2c1.1,0.9,2.5,1.3,3.7,2.2c1.1,0.8,2,1.7,3.2,2.2
		c1.1,0.5,2.8,0.9,4.5,1.5c0.8,0.1,2-0.3,2.8,0c0.4,0.1,0.4,0.7,1.8,0.8c2.2,0.3,5.7,0.7,8.2,0c4-0.8,9.8-6.5,8.6-14
		c-0.7-3.7-3.8-5.9-6.9-8.2c-3-2.2-7.9-4.2-12.2-5.9c-4.4-1.7-9.8-4.1-14.1-6.7c-1.3-0.8-3.3-1.9-5-3.2c-0.4-0.3-0.5-1.1-0.9-1.3
		c-0.4-0.4-0.9-0.1-1.3-0.5c-0.7-0.7-1.1-1.9-1.9-2.8s-1.7-1.6-2.6-2.6c-0.4-0.4-2.4-3.3-2.8-4.1c-0.3-0.7-0.5-2.1-0.9-3.2
		c-1.1-3.4-1.6-8.9-0.9-13.6c0.5-3.4,1.3-4.9,2.8-7.8c1.6-2.9,2.1-3.8,4.5-5.8c1.7-1.5,4.2-3.4,6.9-4.6c3.6-1.6,7.7-2.4,11.8-3.6
		c0.3-0.1,0.7,0,0.9,0C1016.3,177.1,1026.2,175.6,1027.8,177.6z"/>
	<path id="XMLID_64_" fill="#27397B" d="M1154.7,228.2c0.5-1.5,1.2-2.8,1.9-4.1c0.5-1.3,1.2-2.4,1.9-3.7c1.9-4.2,2.6-7.9,4.5-12.3
		c0.9-2.2,2.1-5,3.2-7.7c0.8-1.9,1.2-3.3,2.2-5c0.3-0.3,0.3-0.5,0.5-0.9c0.3-0.7,0.1-1.5,0.4-2.2c0.4-1.2,1.3-2.4,1.9-3.6
		c0.8-1.9,1.5-3.6,2.6-5.6c1.6-2.2,0.4-1.1,4.1-1.7c0.3-0.1,0.8,0,0.9,0c0.1-0.1-0.1-0.9,0-0.9c0.4-0.3,3.4-0.3,4.6,0
		c0.8,0.1,1.3,0.7,2.2,0.9c4.1,0.7,5-0.4,6.3,2.6c0.8,2.1,0.5,4.4,0.9,7.3c0.3,1.9,1.2,4.5,1.3,6.9c0.4,4.9-0.3,10.6,0,15.9
		c0.5,11.4,0.1,21.3,0,32.6c0,0.9-0.4,2-0.4,2.8c0,0.9,0.4,1.9,0.4,2.8c-0.1,4.6-0.1,8.7-0.4,12.7c-0.1,0.9-0.8,2.6-0.9,4.5
		c-0.4,4,0.5,8.9-0.9,10c-1.5,1.2-5.8-0.4-8.2-0.5c-5-0.1-9.6,1.3-11.4-0.4c-1.8-1.9-0.1-6.9,0-10c0.1-2.6-0.1-5.6,0-8.6
		c0.1-2.6,0.8-5.3,0.9-7.7c0.3-5-0.8-9.9,0.9-13.6c-2.8,1.1-2.5,4.6-3.7,7.3c-0.3,0.8-1.1,1.5-1.3,2.2c-0.7,1.7-0.7,3.8-1.3,5.8
		c-0.5,1.7-1.6,3.4-2.2,5c-0.4,0.8-0.5,1.9-0.9,2.8c-0.7,1.3-1.7,2.9-2.4,5c-0.1,0.5,0.3,1.2,0,1.7c0,0.3-0.8,0.8-0.8,0.9
		c-0.9,2.2-2.1,5-3.7,7.3c-0.7,0.9-1.3,2.2-1.3,2.2c-1.1,0.5-3.6,0-5.4,0c-4.4,0.3-5.2,0.3-10,0c-1.9,0-4.1,0.5-5,0
		c-0.3-0.1-1.9-3-2.2-4.1c-0.8-1.6-1.3-5.8-1.9-7.3c-0.7-2.1-1.7-4-2.2-5.8c-0.8-2.8-1.1-6.3-2.2-9.5c-0.3-0.8-1.1-1.9-1.3-2.8
		c-0.8-2-0.8-4.4-1.5-6.3c-0.4-1.3-1.6-4.1-2.2-5.9c-0.9-2.6-0.1-2.5-1.3-4.5c-2.1-3.6-0.5,3.8-0.5,6.7c0.1,1.9-0.3,3.6-0.4,5.6
		c-0.4,6.3,0.7,15.1,0.4,23.1c0,2.5-0.1,4.6-0.4,6.7c-0.1,0.8,0.4,1.3,0,2.8c-1.2,3.8-2.6,1.1-6.3,2.8c-1.1,0.4-10.7,1.2-12.3,0
		c-2.6-2-1.1-10.4-0.9-13.6c0.4-8.5-0.1-19.7,0-30.5c0.1-10.4-0.5-20.8,0-28.5c0.4-4.8-0.1-14.3,0.5-21.4c0-0.8,0.7-1.2,0.8-2.2
		c0.1-0.1-0.7-0.9,0-1.9c0.8-0.8,2.9-1.5,4.6-1.7c1.7-0.3,4.1,0.1,6.3,0c3.7-0.3,7.9-1.3,10.4,0c0.4,0.1,1.2,0.1,1.3,0.4
		c0.3,0.4-0.1,1.1,0,1.3c0.4,0.5,1.1,0.7,1.5,1.5c0.3,0.5,0.1,1.3,0.4,2.2c0.3,0.7,0.7,1.2,0.9,1.9c2,5,2.8,7.9,4.5,12.2
		c0.7,1.5,0.9,2.8,1.5,4.1c0.9,3,2.4,5.9,3.2,7.8c0.1,0.7,0.3,1.2,0.4,1.9c1.2,3.8,3.4,9.4,5,14c0.5,1.5,0.8,3,1.3,4.5
		c0.4,1.2,1.3,2.4,1.9,3.7c0.3,0.7,0.1,1.5,0.4,2.2c0.5,1.5,1.6,3.8,2.4,5.9C1151.2,239.3,1152.7,233.5,1154.7,228.2z"/>
</g>
<g id="XMLID_15_">
	<path id="XMLID_28_" fill="#2D9045" d="M589.1,333.4c1.6,0.1,3.6,0,4,0.1c0.2,0.2,0.6,2.2,1,3.7c0.6,2.2,1.2,4.3,1.7,6.9
		c0.2,1.1-0.2,2.2,0.4,3c0.5,0.6,0.2,2.3,0.5,4c0.1,1,0.5,1.8,0.7,2.7c0.1,0.6-0.1,1.3,0.1,1.8c0.1,0.3,0.5,0.5,0.6,1
		c0,0.2-0.3,0.3-0.3,0.5c0.1,0.3,0.6,1,0.7,1.6c0.1,0.4-0.3,0.4-0.2,0.9c0.1,1.8,0.8,5.3,1.1,7.6c0.8,6.1,1.5,10.7,2.3,16.6
		c0.6,5.4,1.2,8.4,1.6,14.2c0.2,2.5,0.2,5.1-0.1,5.5c-0.5,0.6-2-0.2-3.3,0.5c-0.1,0,0.1,0.5,0,0.5c-0.3,0.5-12.6,0.7-13,0.4
		c-0.4-0.3-0.8-2.4-1-4.2c-0.4-3.5-0.4-6.6-0.5-9.3c-0.2-1.9-0.7-3.6-0.8-4.6c0-0.8,0.6-2.2,0.5-3.6c0,0-0.8-2.8-1.1-3
		c-1.4-0.9-7.9,1-8.7,1.1c-1.6,0.3-3.6,0.1-4.6,1c-0.8,0.8-0.5,1.7-0.8,3.1c-0.2,0.4-0.4,0.5-0.6,1.2c0-0.1,0.4,0.2,0.3,0.3
		c-0.5,0.5-0.5,1.6-0.6,2.1c0,0.3-0.2,0.5-0.2,0.6c0,0.3,0.2,1.2,0.1,2.1c-0.1,0.6-0.5,0.7-0.6,1.3c-0.2,0.8,0,1.8-0.2,3
		c-0.1,1.3-0.5,2.9-0.8,4.5c-0.1,0.6-0.1,4.6-0.4,4.9c-0.6,0.6-5,0.2-6.1,0.2c-1.9,0.1-3.9,0.2-5.7,0.2c-1.6,0-3.9,0.2-4.6-0.7
		c-0.4-0.5-0.2-3.7,0.1-6.1c0.1-0.4,0.5-0.6,0.6-1.2c0.2-0.5-0.1-1.1,0-1.6c0.5-2.7,1.1-5.4,1.6-8.2c0.2-0.8,0.3-1.3,0.5-2.7
		c0.1-1.5,0.1-2.6,0.5-4c0-0.1-0.1-0.5,0-0.6c0,0,0.5,0.1,0.6,0c0.2-0.7-0.2-1.5-0.1-2.1c0.4-2.3,1.1-4.7,1.5-7.3
		c0.2-0.7,0-1.5,0.3-2.1c0.9-3.6,1.9-8.8,2.6-12.9c0.1-0.4,0.5-0.9,0.6-1.5c0.1-0.6-0.2-1.5-0.1-2.1c0.2-1.2,1-2.4,1.4-4
		c0.2-0.7,0-1.5,0.2-2.4c0.2-0.6,0.4-1.4,0.6-2.1c0.2-1,0.7-2.8,1.1-4.3c0.9-3.7,0.5-3.7,4.1-4.7c2.3-0.6,6.8-0.9,9.4-1.2
		C577.2,333.7,585.4,333.2,589.1,333.4z M574.5,352.7c-0.2,0.5-0.4,1.2-0.6,1.5c-0.6,2.3-0.6,4.3-1,6.7c-0.1,1.3-1.3,3.7-0.4,4.5
		c0.7,0.7,4.3-0.7,4.8-0.8c1.1-0.1,5.2-0.1,5.7-0.7c0.8-1.2-0.8-7.7-0.9-8.5c-0.1-0.4,0-1.6-0.1-2.7c-0.1-0.9-1.1-4.8-1-4.8
		c-0.4-0.3-3.3,0.1-4,0.1c-0.4,0.1-0.2,0.3-0.3,0.4c-0.3,0.1-0.8-0.2-1,0C575.2,349,574.8,351.8,574.5,352.7z"/>
	<path id="XMLID_31_" fill="#2D9045" d="M647.2,374.7c0.3-0.8,0.2-1.9,0.5-2.7c0.2-0.6,0.8-1.5,1.2-2.2c0.6-1.3,1-2,1.4-3.7
		c0.2-1.1,0.9-2.4,1.4-3.7c0.7-1.7,1.1-3.5,2.3-4.3c0.2-0.2,1.9,0.1,2.7-0.3c0.2-0.2-0.2-0.5,0.2-0.6c1.7-0.3,4.7-0.6,6.1,0.1
		c1.3,0.8,3.4,6.1,4.1,7.8c0.4,0.7,0.7,1.4,1,2.1c0.8,1.9,1.8,3.8,2.6,6c1.2-1.8,1.3-5.2,1.6-8c0-0.4-0.4-0.5-0.4-0.6
		c0.1-1.1,0.6-2,0.5-2.7c0-1.3-0.2-2.7-0.1-4.2c0.2-3.2,0.8-7.1,0.9-11.2c0-1.6-0.1-4.9,0-7.8c0.2-2.9,0-6.4,0.8-7.3
		c0.9-1.1,5.6-0.9,8.4-1.4c0.6-0.2,0.4-0.6,0.9-0.6c0.8-0.1,3.3-0.4,3.7-0.1c0.5,0.3,0.6,3.3,0.7,4.2c0.1,2.4-0.5,2.6-0.4,3.9
		c-0.1,1.2,0.4,2.1,0.4,3.3c0,2-0.6,4.2-0.7,6.4c-0.1,0.8-0.3,1.9-0.3,2.5c0,0.3,0.4,0.3,0.4,0.6c-0.1,0.9-0.5,1.8-0.5,2.8
		c-0.2,2-0.4,4.1-0.8,6.4c-0.2,2-0.1,4.2-0.3,6.4c-0.3,2.5-1.1,4.9-1.4,7.4c-0.1,1.2,0,2.6-0.2,3.9c-0.1,0.5-0.5,1-0.6,1.5
		c-0.2,1.3-0.2,3.4-0.5,4.9c0,0-0.5,0.2-0.3,0.4c0.5,0.4-0.2,0.6-0.3,1.5c0,0.2,0.5,0.5,0.4,0.9c0,0.1-0.3,0.4-0.3,0.6
		c-0.1,1.3-0.3,2.5-0.5,3.6c-0.1,1.2-0.6,2.2-0.8,3.4c-0.2,1.4,0.1,3.3-0.5,4.9c0,0.1-0.7,2.7-0.8,2.8c-0.5,0.5-4.5,1.5-6,1.7
		c-1,0.2-2.4,0.4-3.3,0.4c-2.7,0-2.8-0.3-3.7-2.6c-0.2-0.7-0.5-1.3-0.7-1.8c-0.3-1.1-0.6-3.1-1-4.2c-0.4-1.2-1.1-2.3-1.6-3.6
		c-0.6-1.7-1-4.1-1.7-6c-0.1-0.2-0.5-0.2-0.6-0.6c-0.1-0.3,0.1-0.9,0-1.2c-0.2-0.4-1.4-2.2-1-1.5c-0.7-1.4,0-1.5-0.9-1.5
		c-1.1,0-0.2,0.4-0.6,1.3c0,0.1-0.5,0.2-0.6,0.3c-0.2,0.4-0.2,1.4-0.5,1.9c-0.6,1-1.5,3.1-2,4.6c-0.2,0.4-0.2,0.8-0.3,1.2
		c-0.3,0.8-0.8,1.4-1.2,2.2c-0.2,0.6,0,1-0.2,1.5c-0.3,0.7-1.3,2.2-1.8,3.1c-0.1,0.2-0.5,0.9-0.6,1.3c-0.1,0.4,0.3,1,0,1.5
		c-0.1,0.2-0.5,0.6-0.8,1.2c-0.1,0.3-1.7,3.7-1.7,3.8c0,0-1.1,0.1-2.1,0.3c-0.8,0.2-1,0.3-1.8,0.4c-1.3,0-2.5-0.6-4.3-0.8
		c-2.7-0.4-5.3,0.2-6.4-1c-0.7-0.8-0.5-2-0.7-3.9c-0.1-0.8-0.6-0.7-0.7-1.5c0,0.1,0-1.4,0-1.6c-0.8-6.6-1.7-12.3-2.4-19.6
		c0-0.6-0.3-1.2-0.3-1.8c0-0.8,0.3-1.2,0.2-1.9c-0.3-3-1.1-5.8-1.5-8.8c0-0.7,0.3-1.3,0.3-2.1c0-0.6-0.3-1.5-0.4-2.1
		c-0.4-4.5-0.9-8.7-1.3-13.3c-0.1-1.5-0.3-2.9-0.4-4.6c-0.2-2.5-0.6-4-0.2-6.6c0.3-2,0-2.3,2-2.5c2.8-0.3,6.4,0,9.4,0.1
		c1.3,0,3.3-0.4,3.7-0.1c0,0,0.9,2.3,1,2.7c0.2,1.4-0.5,3.1-0.5,4.5c0,2.5,1,5.1,1.1,7.9c0,1.2-0.5,2.6-0.5,3.9
		c0.1,2,0.9,4.2,1.2,6.3c0.5,5.8-0.5,12.4,0.8,16.6c0,0.1,0.4,0,0.4,0.3c0,0.4-0.2,1.3,0.3,2.1C646.1,376.2,646.8,375.5,647.2,374.7
		z"/>
	<path id="XMLID_33_" fill="#2D9045" d="M749.4,328.7c1.6,0.1,3.6,0,4,0.1c0.2,0.2,0.6,2.2,1,3.7c0.6,2.2,1.2,4.3,1.7,6.9
		c0.2,1.1-0.2,2.2,0.4,3c0.5,0.6,0.2,2.3,0.5,4c0.1,1,0.5,1.8,0.7,2.7c0.1,0.6-0.1,1.3,0.1,1.8c0.1,0.4,0.5,0.5,0.6,1
		c0,0.2-0.3,0.3-0.3,0.5c0.1,0.3,0.6,1,0.7,1.6c0.1,0.4-0.2,0.4-0.2,0.9c0.1,1.8,0.8,5.3,1.1,7.6c0.8,6.1,1.5,10.7,2.3,16.6
		c0.6,5.4,1.2,8.4,1.6,14.2c0.2,2.5,0.1,5.1-0.1,5.5c-0.5,0.6-2-0.2-3.3,0.5c-0.1,0,0.1,0.5,0,0.5c-0.3,0.5-12.6,0.7-13,0.4
		c-0.4-0.3-0.8-2.4-1-4.2c-0.4-3.5-0.4-6.6-0.5-9.3c-0.2-1.9-0.7-3.6-0.8-4.6c0-0.8,0.6-2.2,0.5-3.6c0,0-0.8-2.8-1.1-3
		c-1.4-0.9-7.9,1-8.7,1.1c-1.6,0.3-3.6,0.1-4.6,1c-0.8,0.8-0.5,1.7-0.8,3.1c-0.2,0.4-0.4,0.5-0.6,1.2c0-0.1,0.4,0.2,0.3,0.3
		c-0.5,0.5-0.5,1.6-0.6,2.1c0,0.3-0.2,0.5-0.2,0.6c0,0.3,0.2,1.2,0.1,2.1c-0.1,0.6-0.5,0.7-0.6,1.3c-0.2,0.8,0,1.8-0.2,3
		c-0.1,1.3-0.5,2.9-0.8,4.5c-0.1,0.6-0.1,4.6-0.4,4.9c-0.6,0.6-5,0.2-6.1,0.2c-1.9,0.1-3.9,0.2-5.7,0.2c-1.6,0-3.9,0.2-4.6-0.7
		c-0.4-0.5-0.2-3.7,0.1-6.1c0.1-0.4,0.5-0.6,0.6-1.2c0.2-0.5-0.1-1.1,0-1.6c0.5-2.7,1.1-5.4,1.6-8.2c0.2-0.8,0.3-1.3,0.5-2.7
		c0.1-1.5,0.1-2.6,0.5-4c0-0.1-0.1-0.5,0-0.6c0,0,0.5,0.1,0.6,0c0.2-0.7-0.2-1.5-0.1-2.1c0.4-2.3,1.1-4.7,1.5-7.3
		c0.2-0.7,0-1.5,0.3-2.1c0.9-3.6,1.9-8.8,2.6-12.9c0.1-0.4,0.5-0.9,0.6-1.5c0.1-0.6-0.2-1.5-0.1-2.1c0.2-1.2,1-2.4,1.4-4
		c0.2-0.7,0-1.5,0.2-2.4c0.2-0.6,0.4-1.4,0.6-2.1c0.2-1,0.7-2.8,1.1-4.3c0.9-3.7,0.5-3.7,4.1-4.7c2.3-0.6,6.8-0.9,9.4-1.2
		C737.5,329,745.7,328.5,749.4,328.7z M734.8,347.9c-0.2,0.5-0.4,1.2-0.6,1.5c-0.6,2.3-0.6,4.3-1,6.7c-0.1,1.3-1.3,3.7-0.4,4.5
		c0.7,0.7,4.3-0.7,4.8-0.8c1.1-0.1,5.2-0.1,5.7-0.7c0.8-1.2-0.8-7.7-0.9-8.5c-0.1-0.4,0-1.6-0.1-2.7c-0.1-0.9-1.1-4.8-1-4.8
		c-0.4-0.3-3.3,0.1-4,0.1c-0.4,0.1-0.2,0.3-0.3,0.4c-0.3,0.1-0.8-0.2-1,0C735.5,344.3,735.2,347.1,734.8,347.9z"/>
	<path id="XMLID_36_" fill="#2D9045" d="M807.2,328.2c0.1,0.1-0.1,0.5,0,0.6c0.1,0.1,0.5,0,0.6,0c3.5,0.5,7.6-0.3,10.3,0.6
		c0.4,0.2,1,0.7,1.5,0.9c1.2,0.4,2.7,0.5,3.6,1c0.3,0.2,0.5,0.7,0.9,0.9c1,0.6,2.4,1.4,3.4,2.6c0.3,0.3,0.4,1,0.7,1.5
		c0.4,0.4,0.8,0.7,0.9,0.9c0.5,1,0.8,2.4,1.1,3.6c0.1,0.4,0.2,1.3,0.3,1.8c0.1,0.6,0.3,1.5,0.4,1.8c0,0.4-0.5,0.8-0.6,1.5
		c-0.2,1,0.5,1.8,0.3,2.7c0,0-0.6,0.8-0.6,1.2c0,0.3,0.4,0.3,0.4,0.6c-0.2,0.9-0.6,2.1-0.9,3.1c-0.5,2.9-0.4,2.9-2,4.9
		c-0.3,0.5-0.8,1.1-1.1,1.5c-0.9,1.1-2.2,1.6-2.4,3.1c-0.4,3,1.9,5.2,2.7,6.9c0.4,1,0.5,2.2,1,3.3c0.2,0.5,0.5,1,0.7,1.5
		c0.2,0.4,0.5,0.8,0.7,1.2c0.4,1,0.5,2.3,1,3.3c0.1,0.1,0.5,0.4,0.6,0.6c0.8,2.4,1.8,5.3,3,8c0.4,1,0.9,1.5,1.2,2.7
		c0-0.1-0.3,0.2-0.3,0.4c0.1,0.3,0.9,2,0.7,2.7c-0.5,1.2-3.8,1.8-5.7,2.5c-0.6,0.2-1.1,0.8-1.6,0.9c-0.1,0.1-5.4,0.6-5.7,0.5
		c-0.5-0.2-1.1-2.1-1.6-3.6c-0.4-1.2-0.6-2.7-1-3.9c-0.5-1.2-1.2-2.3-1.7-3.6c-0.4-1.3-0.6-2.9-1-3.9c-0.5-1.4-1.2-2-1.6-3
		c-0.4-1-0.3-2.3-0.7-3.7c-0.6-2.1-1.3-3.8-2.3-5.9c-0.5-1-1.1-2.6-1.3-2.7c-1.2-0.7-6.4,0.4-6.9,1.1c-0.7,1,0.3,3.2,0.5,5.2
		c0,0,0.4,0,0.3,0.3c0,0.1-0.4,0-0.3,0.3c0.2,1.1,0.6,1.7,0.7,2.4c0,1,0.2,2.2,0.4,3.3c0.2,1.5,0.7,3.2,0.7,3.9
		c0,1.1-0.3,2.7-0.3,3.1c0.2,1.7,0.9,3.1,1.1,5.7c0.2,2.1,0.5,5.4-0.2,6.4c-1,1.6-8.3,2-11.2,1.6c-2.5-0.5-3.6-1.2-4-3.9
		c-0.1-0.4,0.2-0.9,0.2-1.5c0-0.1-0.3-0.8-0.3-1.2c-0.2-2.1-0.7-4.4-0.8-6.3c-0.2-2.2-0.6-4.2-0.8-6.3c0-0.2,0-1.5-0.1-2.7
		c-0.2-1.1-0.6-1.9-0.7-2.7c-0.1-0.7,0.3-1.5,0.2-2.4c0-1.1-0.6-1.9-0.7-2.4c-0.1-1.6,0-3.5-0.2-5.1c-0.1-1.9-0.6-3.8-0.7-5.8
		c-0.1-0.5,0.2-0.6,0.2-1.2c0-0.9-0.3-2.6-0.4-4.2c-0.7-6.3-1.3-11.2-1.5-18.5c-0.1-2.7-0.2-5.3,0.2-5.7c1-1.3,8-1.5,12.4-1.6
		c2.3-0.1,3.9,0.2,5.1-0.1c0.2-0.1,0.6-0.3,0.6-0.3C805,328.6,806.4,327.8,807.2,328.2z M802,345.3c0.2,1.7,0,1.7,0.1,3
		c0,1.8,0.3,2.5,0.7,3.6c-0.1-0.1-0.3,0.1-0.3,0.4c0.3,3.4,7,1.3,9.1,0.6c0.8-0.3,1.7-0.5,2.1-0.7c0.1-0.1,0.2-0.5,0.3-0.6
		c0.3-0.2,0.6-0.1,0.9-0.3c1.1-1,3.1-3,3.2-3.8c0.4-1.8-0.6-4.7-1.1-5.3c-2-2.9-7.8-2-11.9-1.8c-0.7,0-0.8-0.2-1.5,0
		c-0.3,0.1-1.2-0.2-1.5,0C801,341.4,801.8,344.6,802,345.3z"/>
	<path id="XMLID_39_" fill="#2D9045" d="M898.3,326.3c0.5,0.4-0.2,2.2,0.1,2.7c0.1,0.1,0.6,0.2,0.6,0.2c0,0.4-0.6,2.9-0.5,4
		c0.2,1.2,0.1,5.3-0.1,5.5c-0.4,0.5-2.3,1.1-3.6,1.3c-3.2,0.5-8.3,0.1-12.2,0.6c-0.1,0-0.8-0.1-0.9,0c-0.1,0.1,0.1,0.6,0,0.6
		c-0.5,0.2-3.6,0.1-4,0.4c-0.4,0.5-0.8,3.6-0.8,4.3c-0.1,1.1,0,3.8,0.8,4.5c1,0.9,5.8,0.3,8.2,0.4c0.6,0.1,1.4,0.1,2.4,0.2
		c0.8,0.2,1.7,0.1,2.5,0.3c2,0.2,4.6,0.3,4.8,2.6c0.1,0.5-0.3,0.9-0.2,1.5c0.1,0.6,0.3,1.2,0.3,1.8c0.1,0.8,0.3,2.9,0.1,4.5
		c0,0.5,0,2.7-0.4,3c-0.2,0.1-1.2,0-2.5,0.1c-2.9,0.2-6.8,0.3-10.6,0.7c-1.1,0.1-2.8,0.3-3.6,0.7c-2.3,1.3-1.5,5.2-1.6,8.2
		c0,0.5-0.3,1.4-0.2,1.8c0.3,3.2,0.8,3.6,4.3,3.2c0.9-0.1,1.5-0.4,2.7-0.3c1.1,0,2.2,0.4,3.9,0.4c2.1,0.1,4.3-0.4,6.3-0.5
		c2.2-0.1,4.7,0,5.5,0.7c0.3,0.3,0.2,0.9,0.4,1.5c0.4,1.9-0.3,3.1-0.5,5.5c-0.2,1.9-0.1,3.3-0.2,4.6c-0.1,1.2,0.2,2.5-0.2,3.6
		c0-0.1-0.6,0.3-0.6,0.4c-0.2,0.3,0,1.5-0.6,1.8c-0.2,0.1-2.6,0.3-2.7,0.1c-0.1-0.1,0.1-0.5,0-0.6c-0.6-0.2-3.2-0.1-4.5-0.1
		c-4.3-0.3-10.2,0.5-15.8,0.1c-0.4,0-0.9,0.2-1.2,0c-0.1,0,0.1-0.5,0-0.5c0-0.1-3.9-0.2-5.1-0.2c-2.3,0.1-4.9,0.8-5.7,0.2
		c0,0-1-3-1.1-4.2c0-1.1,0.6-2,0.5-3.4c0.1-0.6-0.2-1.7-0.3-2.4c-0.6-5-0.3-11.8-0.9-18.5c-0.3-4.4-0.4-8.6-0.4-13
		c0.1-4.9-0.6-9.5-0.4-13c0.1-1.2,0.6-2.1,0.5-3.1c0.1-4.1-1.7-6.6,1.9-7.9c0.5-0.2,1.2,0.1,1.9-0.1c0.1-0.1,0-0.5,0.2-0.6
		c1.7-0.5,5.8-0.1,7.3-1.1c1.4-1,5.9-0.6,8.2-1.2c0.5-0.1,1.1-0.5,1.7-0.6c3.2-0.6,7.7-0.5,11.5-0.7
		C893.8,326.4,897.9,326,898.3,326.3z"/>
	<path id="XMLID_41_" fill="#2D9045" d="M965.8,361c-0.3-3.3,0.1-7-0.3-10c-0.1-1-0.6-1.8-0.7-2.7c0-0.8,0.3-1.9,0.3-3
		c0-1.4-0.8-3.9-1.2-6.6c-0.3-2.9-0.6-8.5,0.1-9.4c0.3-0.4,1.8,0,2.1-0.3c0-0.1-0.1-0.6,0-0.6c0.5-0.1,1.7-0.2,2.4-0.1
		c0.3,0,0.3,0.5,0.6,0.6c3.2,0.6,7.3-1.4,8,1.9c0,0.2,0.4,0.3,0.3,0.5c-0.2,0.6-0.2,0.5,0,1.6c0.1,0.3,0,0.3,0,0.9
		c0.2,1.9,0.6,3.9,0.8,5.4c0.8,7.7,0.4,17,0.7,25.4c0.1,4.2,0.2,8.4,0.4,12.2c0.1,4.5-0.1,8.5,0.1,11.5c0,0.7,0.5,2,0.4,3.3
		c-0.1,0.5-0.3,0.3-0.6,1.3c-0.1,0.2-0.1,1.2-0.2,1.2c-0.6,0.4-3.7,0.1-4.8,0.1c-1.7,0-3.6,0.2-4.8,0.1c-0.4-0.1-1.1-0.4-1.9-0.6
		c-1.4-0.2-1.6,0.3-2.4-0.5c-1.4-1.3-2.6-3.7-3.9-5.6c-0.5-0.8-1.2-1.2-1.6-1.8c-0.8-1.3-1.3-3-2.2-4.4c-0.2-0.4-0.7-0.5-0.9-0.9
		c-0.3-0.3-0.1-0.8-0.4-1.1c-0.2-0.3-0.7-0.5-0.9-0.9c-0.5-0.8-0.7-1.3-1.3-2.1c-0.3-0.3-0.3-0.8-0.7-1.2c-0.2-0.3-0.7-0.5-0.9-0.9
		c-0.2-0.3-0.1-0.8-0.3-1.2c-0.3-0.3-0.8-0.5-1-0.9c-0.2-0.4,0-0.8-0.3-1.2c-0.2-0.3-0.8-0.5-0.9-0.9c-0.3-0.4-0.1-0.8-0.4-1.2
		c-0.3-0.4-0.7-1-1.3-1.5c-0.4-0.4-0.7-1.7-1.2-2.7c-0.3-0.4-1.1-1-1.6-1.7c-0.8-1.1-1.5-3.9-1.9-0.3c-0.1,0.9,0.4,3.7,0.4,5.2
		c0,0.2,0,1.1,0.1,1.8c0.3,2.7,0.5,6.7,0.6,9.1c0.2,2.3,0.1,4.8,0.2,8.2c0.1,1.9,0.7,7.7,0.2,8.2c-0.3,0.3-6,0.1-6.7-0.2
		c-0.1,0,0-0.3-0.3-0.3c-0.2,0-0.4,0.3-0.3,0.3c-0.7-0.2-1.1-0.4-1.8-0.6c-2.6-0.3-4.7,0.1-5.5-0.7c-0.9-0.9-0.5-3.5-0.8-6.1
		c-0.2-1.5-0.6-1.7-0.7-2.6c0-1.1,0.2-3.6,0.2-5.5c-0.4-5.2-0.6-11.4-1.2-19.1c-0.6-7.5,0-14.8-0.4-22.4c0-1.2-0.2-3.5-0.2-5.2
		c0.1-1-0.7-1.3,0.5-2.7c0.3-0.3,0.2-0.8,0.6-1c0.6-0.2,1.6,0.3,2.4-0.1c0.3-0.1,0.2-0.5,0.6-0.6c0.4,0,3.3-0.5,4.2-0.1
		c0.1,0.1,0.3,0.6,0.4,0.6c2.8,0.6,4.7-0.6,6,1.3c0.5,0.7,0.4,1.7,1,2.4c0.3,0.3,0.9,0.9,1.3,1.5c0.5,0.9,1,1.8,1.6,2.7
		c0.6,1,1.2,1.8,1.6,2.4c0.3,0.3,0.4,1,0.7,1.5c0.3,0.4,0.6,0.7,0.9,1.1c0.5,0.9,0.8,1.9,1.3,2.7c0.3,0.4,0.9,0.4,1.3,0.9
		c0.2,0.3,0,1.1,0.3,1.5c1.5,2.2,3.2,4.8,4.8,7.4c0.2,0.3,0.7,0.8,0.9,1.2c0.1,0.2-0.1,0.6,0,0.9c0.1,0.2,0.5,0.2,0.6,0.2
		c0.3,0.5,0.3,1,0.7,1.5c0.2,0.3,0.6,0.6,0.9,0.9c0.2,0.3,0.1,0.6,0.3,0.9c0.9,0.9,1.7,2.9,2.6,4.5c0.9,1.6,2.3,2.8,3.5,4.4
		C966.9,366.6,966.1,364,965.8,361z"/>
	<path id="XMLID_43_" fill="#2D9045" d="M1045.5,322c0.5,0.4-0.2,2.2,0.1,2.7c0.1,0.1,0.6,0.2,0.6,0.2c0,0.4-0.6,2.9-0.5,4
		c0.2,1.2,0.1,5.3-0.1,5.5c-0.4,0.5-2.3,1.1-3.6,1.3c-3.2,0.5-8.3,0.1-12.2,0.6c-0.1,0-0.8-0.1-0.9,0s0.1,0.6,0,0.6
		c-0.5,0.2-3.6,0.1-4,0.4c-0.4,0.5-0.8,3.6-0.8,4.3c-0.1,1.1,0,3.8,0.8,4.5c1,0.9,5.8,0.3,8.2,0.4c0.6,0.1,1.4,0.1,2.4,0.2
		c0.8,0.2,1.7,0.1,2.5,0.3c2,0.2,4.6,0.3,4.8,2.6c0.1,0.5-0.3,0.9-0.2,1.5c0.1,0.6,0.3,1.2,0.3,1.8c0.1,0.8,0.3,2.9,0.1,4.5
		c0,0.5,0,2.7-0.4,3c-0.2,0.1-1.2,0-2.5,0.1c-2.9,0.2-6.8,0.3-10.6,0.7c-1.1,0.1-2.8,0.3-3.6,0.7c-2.3,1.3-1.5,5.2-1.6,8.2
		c0,0.5-0.3,1.4-0.2,1.8c0.3,3.2,0.8,3.6,4.3,3.2c0.9-0.1,1.5-0.4,2.7-0.3c1.1,0,2.2,0.4,3.9,0.4c2.1,0.1,4.3-0.4,6.3-0.5
		c2.2-0.1,4.7,0,5.5,0.7c0.3,0.3,0.2,0.9,0.4,1.5c0.4,1.9-0.3,3.1-0.5,5.5c-0.2,1.9-0.1,3.3-0.2,4.6c-0.1,1.2,0.2,2.5-0.2,3.6
		c0-0.1-0.6,0.3-0.6,0.4c-0.2,0.3,0,1.5-0.6,1.8c-0.2,0.1-2.5,0.3-2.7,0.1c-0.1-0.1,0.1-0.5,0-0.6c-0.6-0.2-3.2-0.1-4.5-0.1
		c-4.3-0.3-10.2,0.5-15.8,0.1c-0.4,0-0.9,0.2-1.2,0c-0.1,0,0.1-0.5,0-0.5c0-0.1-3.9-0.2-5.1-0.2c-2.3,0.1-4.9,0.8-5.7,0.2
		c0,0-1-3-1.1-4.2c0-1.1,0.6-2,0.5-3.4c0.1-0.6-0.2-1.7-0.3-2.4c-0.6-5-0.3-11.8-0.9-18.5c-0.3-4.4-0.4-8.6-0.4-13
		c0.1-4.9-0.6-9.5-0.4-13c0.1-1.2,0.6-2.1,0.5-3.1c0.1-4.1-1.7-6.6,1.9-7.9c0.5-0.2,1.2,0.1,1.9-0.1c0.1-0.1,0-0.5,0.2-0.6
		c1.8-0.5,5.8-0.1,7.3-1.1c1.4-1,5.9-0.6,8.2-1.2c0.5-0.1,1.1-0.5,1.7-0.6c3.2-0.6,7.7-0.5,11.5-0.7
		C1041,322.1,1045,321.6,1045.5,322z"/>
	<path id="XMLID_45_" fill="#2D9045" d="M1099,320.8c0.3,0.3,1.7,0.3,2.8,0.5c2.1,0.6,4,1,5.8,1.9c0.6,0.3,1.5,0.6,2.2,1.2
		c0.1,0.1,0.2,0.5,0.4,0.6c0.5,0.3,1.2,0.3,1.5,0.6c0.7,0.5,3.9,3.4,4,4.4c0.1,0.8-1.5,3.7-2,4.3c-0.3,0.5-0.9,0.7-1.1,1
		c-1.3,1.4-3.1,3.6-4.7,3.8c-2.1,0.1-5.3-3.5-7.1-4.4c-0.8-0.3-2.3-0.8-3.4-1c-1.2-0.3-1.9-0.8-4-0.5c-1.9,0.3-4.9,2.3-5.3,4.4
		c-1.1,6.3,5.6,7.9,9.7,9.4c0.7,0.2,1.4,0.6,2.1,0.8c2.5,0.8,3.7,1.3,6.2,2.6c2,1,3.7,1.7,5.5,2.8c1.1,0.7,2.2,1.2,3.4,2
		c0.3,0.3,0.4,0.8,0.6,1c0.3,0.2,0.7,0,0.9,0.2c0.4,0.3,0.4,0.7,0.7,1.2c0.3,0.3,0.7,0.5,1,0.9c0.4,0.5,0.7,0.9,1.2,1.5
		c0.3,0.3,0.5,1.2,1,2.1c0.1,0.3,0.7,0.7,0.9,1.2c0.1,0.4,0.2,1.2,0.3,1.8c0.6,2.6,0.9,8.3,0.1,10.9c-0.2,0.7-0.3,1.4-0.6,2.1
		c-0.2,0.6-0.6,1.3-0.8,1.8c-0.5,1.1-0.9,2.2-1.8,3.4c-0.3,0.4-0.8,0.7-1.2,1.3c-1.2,1.6-1.4,2.8-3.2,3.7c-0.5,0.3-0.8,0.4-1.2,0.7
		c-1.4,0.8-2.6,1.5-4.5,2.2c-0.7,0.3-1.7,0.8-2.4,1c-1.7,0.3-4.1,0.1-7.3,0.2c-2.3,0.1-4.9,0.5-7.2,0.2c-1.5-0.1-3.6-1-5.5-1.6
		c-2-0.6-4-1.3-5.2-2c-0.2-0.1-0.3-0.6-0.4-0.6c-0.2-0.1-0.4,0.1-0.6,0c-0.7-0.5-1.8-1.9-2.8-2.7c-0.3-0.3-1-0.4-1.2-0.6
		c-0.3-0.2-0.5-1-0.7-1.2c-0.9-0.9-1.8-1.5-1.9-3.3c0-1-0.1-0.8,0.3-1.5c0.5-1.2,1.6-2.5,2.9-3.7c0.2-0.2,0.7-0.2,0.9-0.4
		c0.9-0.7,2.3-3.3,4.1-3.4c1.3,0,1.8,0.7,2.5,1.4c0.6,0.6,1.2,1.5,1.8,2.1c0.7,0.6,1.7,0.8,2.5,1.4c0.7,0.5,1.4,1.1,2.2,1.4
		c0.7,0.3,1.9,0.6,3,0.9c0.5,0.1,1.3-0.2,1.8-0.1c0.3,0.1,0.3,0.4,1.2,0.5c1.5,0.1,3.8,0.3,5.5-0.2c2.6-0.6,6.4-4.5,5.5-9.5
		c-0.5-2.5-2.7-3.9-4.7-5.3c-2.1-1.4-5.4-2.7-8.2-3.7c-2.9-1.1-6.6-2.5-9.6-4.2c-0.9-0.5-2.2-1.2-3.4-2c-0.3-0.2-0.4-0.7-0.6-0.9
		c-0.3-0.3-0.6-0.1-0.9-0.3c-0.5-0.4-0.7-1.2-1.3-1.8c-0.5-0.6-1.2-1-1.8-1.7c-0.3-0.3-1.7-2.2-1.9-2.7c-0.2-0.4-0.4-1.4-0.7-2.1
		c-0.8-2.3-1.2-5.9-0.9-9.1c0.3-2.3,0.8-3.3,1.7-5.3c1-2,1.3-2.6,2.9-4c1.1-1,2.8-2.4,4.5-3.2c2.3-1.1,5.1-1.7,7.8-2.6
		c0.2-0.1,0.4,0,0.6,0C1091.4,320.7,1097.9,319.5,1099,320.8z"/>
	<path id="XMLID_47_" fill="#2D9045" d="M1174.3,318.6c0.3,0.3,1.7,0.3,2.7,0.5c2.1,0.6,4,1,5.8,1.9c0.6,0.3,1.5,0.6,2.2,1.2
		c0.1,0.1,0.2,0.5,0.4,0.6c0.5,0.3,1.2,0.3,1.5,0.6c0.7,0.5,3.9,3.4,4,4.4c0.1,0.8-1.5,3.7-2,4.3c-0.3,0.5-0.9,0.7-1.1,1
		c-1.3,1.4-3.1,3.6-4.7,3.8c-2.1,0.1-5.3-3.5-7.1-4.4c-0.8-0.3-2.3-0.8-3.4-1c-1.2-0.3-1.9-0.8-4-0.5c-1.9,0.3-4.9,2.3-5.3,4.4
		c-1.1,6.3,5.6,7.9,9.7,9.4c0.7,0.2,1.4,0.6,2.1,0.8c2.5,0.8,3.7,1.3,6.2,2.6c2,1,3.7,1.7,5.5,2.8c1.1,0.7,2.2,1.2,3.4,2
		c0.3,0.3,0.4,0.8,0.6,1c0.3,0.2,0.7,0,0.9,0.2c0.4,0.3,0.4,0.7,0.7,1.2c0.3,0.3,0.7,0.5,1,0.9c0.4,0.5,0.7,0.9,1.2,1.5
		c0.3,0.3,0.5,1.2,1,2.1c0.1,0.3,0.7,0.7,0.9,1.2c0.1,0.3,0.2,1.2,0.3,1.8c0.6,2.6,0.9,8.3,0.1,10.9c-0.2,0.7-0.3,1.4-0.6,2.1
		c-0.2,0.6-0.6,1.3-0.8,1.8c-0.5,1.1-0.9,2.2-1.8,3.4c-0.3,0.4-0.8,0.7-1.2,1.3c-1.2,1.6-1.4,2.8-3.2,3.7c-0.5,0.3-0.8,0.4-1.2,0.7
		c-1.4,0.8-2.6,1.5-4.5,2.2c-0.7,0.3-1.7,0.8-2.4,1c-1.7,0.3-4.1,0.1-7.3,0.2c-2.3,0.1-4.9,0.5-7.2,0.2c-1.5-0.1-3.6-1-5.5-1.6
		c-2-0.6-4-1.3-5.2-2c-0.2-0.1-0.3-0.6-0.4-0.6c-0.2-0.1-0.4,0.1-0.6,0c-0.7-0.5-1.8-1.9-2.8-2.7c-0.3-0.3-1-0.4-1.2-0.6
		c-0.3-0.2-0.5-1-0.7-1.2c-0.9-0.9-1.8-1.5-1.9-3.3c0-1-0.1-0.8,0.3-1.5c0.5-1.2,1.6-2.5,2.9-3.7c0.2-0.2,0.7-0.2,0.9-0.4
		c0.9-0.7,2.3-3.3,4.1-3.4c1.3,0,1.8,0.7,2.5,1.4c0.6,0.6,1.2,1.5,1.8,2.1c0.7,0.6,1.7,0.8,2.5,1.4c0.7,0.5,1.4,1.1,2.2,1.4
		c0.7,0.3,1.9,0.6,3,0.9c0.5,0.1,1.3-0.2,1.8-0.1c0.3,0.1,0.3,0.4,1.2,0.5c1.5,0.1,3.8,0.3,5.5-0.2c2.6-0.6,6.4-4.5,5.5-9.5
		c-0.5-2.5-2.7-3.9-4.7-5.3c-2.1-1.4-5.4-2.7-8.2-3.7c-2.9-1.1-6.6-2.5-9.6-4.2c-0.9-0.5-2.2-1.2-3.4-2c-0.3-0.2-0.4-0.7-0.6-0.9
		c-0.3-0.3-0.6-0.1-0.9-0.3c-0.5-0.4-0.7-1.2-1.3-1.8c-0.5-0.6-1.2-1-1.8-1.7c-0.3-0.3-1.7-2.2-1.9-2.7c-0.2-0.4-0.4-1.4-0.7-2.1
		c-0.8-2.3-1.2-5.9-0.9-9.1c0.3-2.3,0.8-3.3,1.7-5.3c1-2,1.3-2.6,2.9-4c1.1-1,2.8-2.4,4.5-3.2c2.3-1.1,5.1-1.7,7.8-2.6
		c0.2-0.1,0.4,0,0.6,0C1166.6,318.5,1173.2,317.3,1174.3,318.6z"/>
</g>
</svg>
