<?xml version="1.0" encoding="utf-8"?>
<!-- Generator: Adobe Illustrator 16.0.3, SVG Export Plug-In . SVG Version: 6.00 Build 0)  -->
<!DOCTYPE svg PUBLIC "-//W3C//DTD SVG 1.0//EN" "http://www.w3.org/TR/2001/REC-SVG-20010904/DTD/svg10.dtd" [
	<!ENTITY ns_flows "http://ns.adobe.com/Flows/1.0/">
	<!ENTITY ns_extend "http://ns.adobe.com/Extensibility/1.0/">
	<!ENTITY ns_ai "http://ns.adobe.com/AdobeIllustrator/10.0/">
	<!ENTITY ns_graphs "http://ns.adobe.com/Graphs/1.0/">
	<!ENTITY ns_vars "http://ns.adobe.com/Variables/1.0/">
	<!ENTITY ns_imrep "http://ns.adobe.com/ImageReplacement/1.0/">
	<!ENTITY ns_sfw "http://ns.adobe.com/SaveForWeb/1.0/">
	<!ENTITY ns_custom "http://ns.adobe.com/GenericCustomNamespace/1.0/">
	<!ENTITY ns_adobe_xpath "http://ns.adobe.com/XPath/1.0/">
]>
<svg version="1.0" id="Layer_1" xmlns:x="&ns_extend;" xmlns:i="&ns_ai;" xmlns:graph="&ns_graphs;"
	 xmlns="http://www.w3.org/2000/svg" xmlns:xlink="http://www.w3.org/1999/xlink" xmlns:a="http://ns.adobe.com/AdobeSVGViewerExtensions/3.0/"
	 x="0px" y="0px" width="1400px" height="980px" viewBox="0 0 1400 980" enable-background="new 0 0 1400 980" xml:space="preserve"
	>
<metadata>
	<sfw  xmlns="&ns_sfw;">
		<slices></slices>
		<sliceSourceBounds  y="-821.377" x="81.348" width="1237.305" height="662.754" bottomLeftOrigin="true"></sliceSourceBounds>
	</sfw>
</metadata>
<g>
	<path fill-rule="evenodd" clip-rule="evenodd" fill="#28A8CC" d="M221.928,350.841c0.639,1.359,1.1,2.787,1.374,4.261
		c0.865,4.578-0.067,9.267-1.445,13.643c-1.422,4.511-3.324,8.834-4.972,13.258c-1.715,4.602-3.319,9.646-3.28,14.603
		c0.057,6.629,3.137,11.648,7.998,15.953c9.444,8.372,17.24,19.372,17.302,32.457c0.043,8.676-3.478,17.183-9.41,23.479
		c-1.277,1.359-3.43,1.427-4.789,0.149c-1.359-1.283-1.422-3.43-0.144-4.79c4.736-5.033,7.599-11.869,7.565-18.806
		c-0.053-11.033-7.104-20.405-15.021-27.418c-6.312-5.597-10.208-12.389-10.275-20.968c-0.048-5.87,1.672-11.576,3.704-17.028
		c1.604-4.309,3.478-8.531,4.861-12.922c1.014-3.228,1.883-6.975,1.249-10.356c-0.173-0.907-0.452-1.787-0.846-2.622
		c-0.797-1.687-0.067-3.713,1.619-4.511C219.103,348.431,221.13,349.155,221.928,350.841L221.928,350.841z"/>
	<path fill-rule="evenodd" clip-rule="evenodd" fill="#28A8CC" d="M125.978,222.396v3.607c0,4.477,1.263,6.081,3.396,5.571
		c3.104-0.749,4.924-5.851,13.479-5.851c6.739,0,14.545,6.884,14.545,15.381c0,8.492-7.806,15.377-14.545,15.377
		c-8.555,0-10.375-5.103-13.479-5.847c-2.133-0.514-3.396,1.096-3.396,5.567c0,9.67,0,19.334,0,29.004h-1.97
		c-1.739-9.463-2.666-19.051-2.666-28.528C121.342,244.093,122.975,232.65,125.978,222.396L125.978,222.396z"/>
	<path fill-rule="evenodd" clip-rule="evenodd" fill="#A8D51B" d="M125.978,285.206v-29.004c0-4.472,1.263-6.081,3.396-5.567
		c3.104,0.744,4.924,5.847,13.479,5.847c6.739,0,14.545-6.885,14.545-15.377c0-8.497-7.806-15.381-14.545-15.381
		c-8.555,0-10.375,5.102-13.479,5.851c-2.133,0.51-3.396-1.095-3.396-5.571v-3.607c2.776-9.488,6.734-17.961,11.677-25.396h17.326
		c4.472,0,6.082-1.264,5.568-3.392c-0.745-3.104-5.846-4.924-5.846-13.483c0-0.653,0.062-1.321,0.192-1.989
		c5.999-4.798,12.643-8.732,19.786-11.778c6.245,2.134,10.779,8.301,10.779,13.768c0,8.56-5.101,10.38-5.851,13.483
		c-0.509,2.128,1.096,3.392,5.572,3.392c9.665,0,19.334,0,29.004,0v29.004c0,4.477-1.268,6.081-3.396,5.571
		c-3.103-0.749-4.923-5.851-13.483-5.851c-6.735,0-14.54,6.884-14.54,15.381c0,8.492,7.805,15.377,14.54,15.377
		c8.56,0,10.38-5.103,13.483-5.847c2.128-0.514,3.396,1.096,3.396,5.567v29.004h-29.004c-4.477,0-6.081,1.263-5.572,3.396
		c0.75,3.104,5.851,4.924,5.851,13.479c0,6.739-6.883,14.545-15.381,14.545c-8.492,0-15.375-7.806-15.375-14.545
		c0-8.556,5.101-10.376,5.846-13.479c0.514-2.133-1.096-3.396-5.568-3.396H125.978z"/>
	<path fill-rule="evenodd" clip-rule="evenodd" fill="#F6E116" d="M214.185,196.999h-29.004c-4.477,0-6.081-1.264-5.572-3.392
		c0.75-3.104,5.851-4.924,5.851-13.483c0-5.467-4.534-11.634-10.779-13.768c11.985-5.115,25.372-7.733,39.504-7.733
		c9.746,0,19.142,1.249,27.971,3.699c-2.896,3.621-7.176,5.956-11.096,5.956c-8.56,0-10.38-5.102-13.483-5.851
		c-2.128-0.514-3.391,1.095-3.391,5.567V196.999z M154.895,178.135c-0.13,0.668-0.192,1.336-0.192,1.989
		c0,8.56,5.101,10.38,5.846,13.483c0.514,2.128-1.096,3.392-5.568,3.392h-17.326C142.511,189.697,148.318,183.395,154.895,178.135
		L154.895,178.135z"/>
	<path fill-rule="evenodd" clip-rule="evenodd" fill="#F6573E" d="M125.978,285.206v9.28c-0.745-3.074-1.398-6.173-1.97-9.28
		H125.978z"/>
	<path fill-rule="evenodd" clip-rule="evenodd" fill="#A8D51B" d="M154.77,355.371c0.725-6.441,7.301-13.378,15.309-13.378
		c8.498,0,15.381,7.801,15.381,14.54c0,8.561-5.101,10.381-5.851,13.483c-0.509,2.129,1.096,3.392,5.572,3.392
		c9.665,0,19.334,0,29.004,0v29.004c0,4.477-1.268,6.081-3.396,5.572c-2.873-0.692-4.649-5.121-11.691-5.77
		c-0.111-0.816-0.168-1.7-0.168-2.651c0-3.68,0.865-7.926,2.354-11.874C183.73,383.702,167.749,371.823,154.77,355.371
		L154.77,355.371z"/>
	<path fill-rule="evenodd" clip-rule="evenodd" fill="#F6E116" d="M214.185,373.408h-29.004c-4.477,0-6.081-1.263-5.572-3.392
		c0.75-3.103,5.851-4.923,5.851-13.483c0-6.739-6.883-14.54-15.381-14.54c-8.007,0-14.583,6.937-15.309,13.378
		c-13.2-16.73-23.297-38.188-28.792-60.885v-9.28h29.003c4.472,0,6.082,1.263,5.568,3.396c-0.745,3.104-5.846,4.924-5.846,13.479
		c0,6.739,6.883,14.545,15.375,14.545c8.498,0,15.381-7.806,15.381-14.545c0-8.556-5.101-10.376-5.851-13.479
		c-0.509-2.133,1.096-3.396,5.572-3.396h29.004v29.004c0,4.472,1.263,6.081,3.391,5.567c3.103-0.745,4.923-5.847,13.483-5.847
		c6.74,0,14.541,6.884,14.541,15.377c0,8.492-7.801,15.381-14.541,15.381c-8.56,0-10.38-5.102-13.483-5.852
		c-2.128-0.514-3.391,1.096-3.391,5.568V373.408z"/>
	<path fill-rule="evenodd" clip-rule="evenodd" fill="#28A8CC" d="M214.185,196.999h29.003c4.472,0,6.081,1.268,5.568,3.396
		c-0.75,3.104-5.851,4.924-5.851,13.484c0,6.738,6.888,14.539,15.381,14.539s15.381-7.801,15.381-14.539
		c0-8.561-5.106-10.381-5.851-13.484c-0.514-2.128,1.095-3.396,5.567-3.396h17.332c4.938,7.431,8.896,15.908,11.672,25.396v3.607
		c0,3.616,0.827,5.36,2.268,5.624c1.225,6.125,1.989,12.624,2.257,19.479c-0.365-0.216-0.739-0.379-1.128-0.471
		c-2.133-0.514-3.396,1.096-3.396,5.567c0,9.67,0,19.334,0,29.004h-29.004c-4.472,0-6.081-1.264-5.567-3.396
		c0.745-3.103,5.851-4.923,5.851-13.479c0-6.739-6.888-14.545-15.381-14.545s-15.381,7.806-15.381,14.545
		c0,8.556,5.102,10.376,5.851,13.479c0.513,2.133-1.096,3.396-5.568,3.396h-29.003v-29.004c0-4.472-1.268-6.081-3.396-5.567
		c-3.103,0.744-4.923,5.847-13.483,5.847c-6.735,0-14.54-6.885-14.54-15.377c0-8.497,7.805-15.381,14.54-15.381
		c8.56,0,10.38,5.102,13.483,5.851c2.128,0.51,3.396-1.095,3.396-5.571V196.999z"/>
	<path fill-rule="evenodd" clip-rule="evenodd" fill="#F6573E" d="M290.714,196.999h-17.332c-4.472,0-6.081,1.268-5.567,3.396
		c0.745,3.104,5.851,4.924,5.851,13.484c0,6.738-6.888,14.539-15.381,14.539s-15.381-7.801-15.381-14.539
		c0-8.561,5.102-10.381,5.851-13.484c0.513-2.128-1.096-3.396-5.568-3.396c-9.669,0-19.339,0-29.003,0v-29.004
		c0-4.473,1.263-6.081,3.391-5.567c3.103,0.749,4.923,5.851,13.483,5.851c3.92,0,8.2-2.335,11.096-5.956
		C262.085,167.86,279.114,179.552,290.714,196.999L290.714,196.999z"/>
	<path fill-rule="evenodd" clip-rule="evenodd" fill="#A8D51B" d="M302.387,285.206v-29.004c0-4.472,1.264-6.081,3.396-5.567
		c0.389,0.092,0.763,0.255,1.128,0.471c0.072,1.835,0.111,3.689,0.111,5.572c0,9.478-0.927,19.065-2.662,28.528H302.387z
		 M304.654,231.627c-1.441-0.264-2.268-2.008-2.268-5.624v-3.607C303.261,225.373,304.02,228.447,304.654,231.627L304.654,231.627z"
		/>
	<path fill-rule="evenodd" clip-rule="evenodd" fill="#28A8CC" d="M214.185,373.408h29.003c4.472,0,6.081,1.269,5.568,3.396
		c-0.216,0.894-0.788,1.681-1.499,2.551c-6.413,3.891-13.171,6.744-20.175,8.334c1.494,3.948,2.358,8.194,2.358,11.874
		c0,10.338-6.831,12.226-15.256,12.226c-7.647,0-13.983-1.557-15.088-9.574c7.042,0.648,8.819,5.077,11.691,5.77
		c2.128,0.509,3.396-1.096,3.396-5.572V373.408z"/>
	<path fill-rule="evenodd" clip-rule="evenodd" fill="#F6573E" d="M302.387,285.206v9.28c-1.883,7.776-4.309,15.409-7.21,22.754
		c-1.994-1.59-4.693-3.31-9.665-3.31c-6.74,0-14.541,6.884-14.541,15.377c0,6.893,5.135,12.725,10.673,14.68
		c-9.501,14.977-21.227,27.375-34.388,35.368c0.711-0.87,1.283-1.657,1.499-2.551c0.513-2.128-1.096-3.396-5.568-3.396
		c-9.669,0-19.339,0-29.003,0v-29.003c0-4.473,1.263-6.082,3.391-5.568c3.103,0.75,4.923,5.852,13.483,5.852
		c6.74,0,14.541-6.889,14.541-15.381c0-8.493-7.801-15.377-14.541-15.377c-8.56,0-10.38,5.102-13.483,5.847
		c-2.128,0.514-3.391-1.096-3.391-5.567v-29.004h29.003c4.472,0,6.081-1.264,5.568-3.396c-0.75-3.103-5.851-4.923-5.851-13.479
		c0-6.739,6.888-14.545,15.381-14.545s15.381,7.806,15.381,14.545c0,8.556-5.106,10.376-5.851,13.479
		c-0.514,2.133,1.095,3.396,5.567,3.396H302.387z"/>
	<path fill-rule="evenodd" clip-rule="evenodd" fill="#F6E116" d="M281.645,343.987c-5.539-1.955-10.673-7.787-10.673-14.68
		c0-8.493,7.801-15.377,14.541-15.377c4.971,0,7.671,1.72,9.665,3.31C291.425,326.732,286.872,335.754,281.645,343.987
		L281.645,343.987z M302.387,294.486v-9.28h1.974C303.79,288.313,303.131,291.412,302.387,294.486L302.387,294.486z"/>
</g>
<g>
	<path fill-rule="evenodd" clip-rule="evenodd" fill="#A8D51B" d="M441.039,595.961h9.285c4.693,0,6.384-1.326,5.846-3.564
		c-0.745-3.089-5.61-4.966-6.101-12.835c5.63-5.927,13.522-11.058,23.019-14.882c5.452,2.768,9.228,8.46,9.228,13.57
		c0,8.982-5.356,10.891-6.144,14.146c-0.538,2.238,1.153,3.564,5.846,3.564h4.486l23.682,36.325
		c-0.389,0.091-0.816,0.076-1.288-0.034c-3.257-0.788-5.168-6.14-14.151-6.14c-7.071,0-15.261,7.226-15.261,16.14
		c0,8.916,8.189,16.146,15.261,16.146c8.983,0,10.894-5.356,14.151-6.139c2.239-0.543,3.564,1.147,3.564,5.841v30.444h-30.444
		c-1.879,0-3.271,0.212-4.237,0.61l5.111-7.854l-38.409-66.524C440.837,608.455,439.843,602.066,441.039,595.961L441.039,595.961z
		 M476.104,691.729c0.014,0.125,0.039,0.249,0.067,0.379c0.788,3.257,6.144,5.164,6.144,14.151c0,7.07-7.229,15.261-16.145,15.261
		c-2.901,0-5.62-0.864-7.969-2.276L476.104,691.729z"/>
	<path fill-rule="evenodd" clip-rule="evenodd" fill="#F6E116" d="M486.504,595.961h-4.486c-4.693,0-6.384-1.326-5.846-3.564
		c0.788-3.256,6.144-5.164,6.144-14.146c0-5.11-3.776-10.803-9.228-13.57c11.24-4.519,24.724-7.209,39.375-7.209h0.024h0.029
		c10.01,0,19.483,1.259,28.062,3.497c-2.949,2.987-6.816,4.846-10.4,4.846c-8.987,0-10.895-5.354-14.151-6.138
		c-2.239-0.539-3.564,1.147-3.564,5.846v2.425l0,0c-15.76,0-33.817,12.673-28.538,24.057L486.504,595.961z M450.069,579.562
		c0.49,7.869,5.356,9.746,6.101,12.835c0.538,2.238-1.153,3.564-5.846,3.564h-9.285
		C442.182,590.135,445.319,584.563,450.069,579.562L450.069,579.562z"/>
	<path fill-rule="evenodd" clip-rule="evenodd" fill="#A8D51B" d="M429.083,781.128h21.241c4.693,0,6.384-1.33,5.846-3.564
		c-0.788-3.257-6.139-5.169-6.139-14.15c0-7.071,7.225-15.267,16.14-15.267s16.145,8.195,16.145,15.267
		c0,8.981-5.356,10.894-6.144,14.15c-0.538,2.234,1.153,3.564,5.846,3.564h2.377l-22.221,38.49L429.083,781.128z"/>
	<path fill-rule="evenodd" clip-rule="evenodd" fill="#F6E116" d="M484.396,781.128h-2.377c-4.693,0-6.384-1.33-5.846-3.564
		c0.788-3.257,6.144-5.169,6.144-14.15c0-7.071-7.229-15.267-16.145-15.267s-16.14,8.195-16.14,15.267
		c0,8.981,5.352,10.894,6.139,14.15c0.538,2.234-1.153,3.564-5.846,3.564h-21.241l-6.35-7.388l35.469-54.496
		c2.349,1.412,5.067,2.276,7.969,2.276c8.916,0,16.145-8.19,16.145-15.261c0-8.987-5.356-10.895-6.139-14.151
		c-0.034-0.13-0.058-0.254-0.072-0.379l1.676-2.575c0.966-0.398,2.358-0.61,4.237-0.61h30.444v30.445
		c0,4.693,1.326,6.38,3.564,5.841c3.256-0.783,5.164-6.139,14.151-6.139c7.071,0,15.261,7.229,15.261,16.145
		s-8.19,16.141-15.261,16.141c-3.843,0-6.393-0.981-8.305-2.162l-9.41-16.299L484.396,781.128z"/>
	<path fill-rule="evenodd" clip-rule="evenodd" fill="#28A8CC" d="M538.425,595.961h4.477c4.698,0,6.384,1.326,5.846,3.564
		c-0.783,3.257-6.139,5.168-6.139,14.15c0,7.071,7.229,15.262,16.145,15.262s16.14-8.19,16.14-15.262
		c0-8.982-5.356-10.894-6.139-14.15c-0.538-2.238,1.148-3.564,5.846-3.564h9.338c1.191,6.105,0.202,12.494-3.449,18.815h-0.053
		l-23.624,40.922c-8.003,1.07-14.204,8.578-14.204,15.131c0,3.017,0.605,5.235,1.437,6.979l-1.965,3.406l4.506,6.911
		c-0.917,0.274-2.138,0.418-3.685,0.418h-30.44V658.1c0-4.693-1.326-6.384-3.564-5.841c-3.257,0.782-5.168,6.139-14.151,6.139
		c-7.071,0-15.261-7.229-15.261-16.146c0-8.914,8.189-16.14,15.261-16.14c8.983,0,10.894,5.352,14.151,6.14
		c0.471,0.11,0.898,0.125,1.288,0.034l2.301,3.534L538.425,595.961z"/>
	<path fill-rule="evenodd" clip-rule="evenodd" fill="#F6573E" d="M583.939,595.961h-9.338c-4.698,0-6.384,1.326-5.846,3.564
		c0.783,3.257,6.139,5.168,6.139,14.15c0,7.071-7.224,15.262-16.14,15.262s-16.145-8.19-16.145-15.262
		c0-8.982,5.356-10.894,6.139-14.15c0.539-2.238-1.147-3.564-5.846-3.564h-4.477l2.575-3.958l0.053,0.034v-0.034
		c5.274-11.384-12.777-24.057-28.538-24.057h-0.029h-0.024l0,0v-2.425c0-4.698,1.326-6.385,3.564-5.846
		c3.256,0.783,5.164,6.138,14.151,6.138c3.583,0,7.451-1.858,10.4-4.846C564.105,567.106,580.937,580.638,583.939,595.961
		L583.939,595.961z"/>
	<path fill-rule="evenodd" clip-rule="evenodd" fill="#28A8CC" d="M540.524,781.128h2.378c4.698,0,6.384,1.326,5.846,3.559
		c-0.389,1.624-1.907,2.907-3.338,4.896L540.524,781.128z M559.552,814.08c8.545-0.471,15.342-8.383,15.342-15.241
		c0-8.983-5.356-10.895-6.139-14.152c-0.538-2.232,1.148-3.559,5.846-3.559h21.005l-32.856,38.49L559.552,814.08z"/>
	<path fill-rule="evenodd" clip-rule="evenodd" fill="#F6573E" d="M573.251,729.023c-0.75,1.807-1.187,3.762-1.187,5.813
		c0,8.915,8.19,16.141,15.266,16.141c0.077,0,0.153,0,0.23,0l14.626,22.437l-6.581,7.715h-21.005c-4.698,0-6.384,1.326-5.846,3.559
		c0.783,3.258,6.139,5.169,6.139,14.152c0,6.858-6.797,14.771-15.342,15.241l-14.142-24.498c1.431-1.988,2.949-3.271,3.338-4.896
		c0.539-2.232-1.147-3.559-5.846-3.559h-2.378l-18.652-32.313c1.912,1.181,4.462,2.162,8.305,2.162
		c7.071,0,15.261-7.226,15.261-16.141s-8.19-16.145-15.261-16.145c-8.987,0-10.895,5.355-14.151,6.139
		c-2.239,0.539-3.564-1.147-3.564-5.841v-30.445h30.44c1.547,0,2.767-0.144,3.685-0.418L573.251,729.023z M544.046,677.809
		c-0.832-1.744-1.437-3.963-1.437-6.979c0-6.553,6.201-14.061,14.204-15.131L544.046,677.809z"/>
	<path fill-rule="evenodd" clip-rule="evenodd" fill="#F6E116" d="M587.561,750.977c-0.077,0-0.154,0-0.23,0
		c-7.076,0-15.266-7.226-15.266-16.141c0-2.051,0.437-4.006,1.187-5.813L587.561,750.977z"/>
</g>
<g>
	<path fill-rule="evenodd" clip-rule="evenodd" fill="#28A8CC" d="M457.928,282.886c-2.613,3.199-6.427,5.25-9.919,5.25
		c-7.734,0-9.382-4.611-12.182-5.283c-0.015-0.005-0.029-0.005-0.039-0.01L457.928,282.886z M434.641,282.843
		c-1.201,0.341-1.883,1.916-1.883,5.039c0,8.737,0,17.475,0,26.208h-16.668l-11.164-8.075c1.023-1.652,1.878-3.848,1.878-7.172
		c0-6.09-6.226-13.143-13.902-13.143c-3.9,0-7.426,1.826-9.948,4.415l-10.217-7.393L434.641,282.843z"/>
	<path fill-rule="evenodd" clip-rule="evenodd" fill="#A8D51B" d="M432.757,314.09v-26.208c0-3.123,0.682-4.698,1.883-5.039h1.147
		c0.01,0.005,0.024,0.005,0.039,0.01c2.8,0.672,4.448,5.283,12.182,5.283c3.492,0,7.306-2.051,9.919-5.25l21.698,0.043
		l15.669-48.539h17.167v26.208c0,4.039-1.144,5.495-3.069,5.029c-2.805-0.673-4.448-5.284-12.182-5.284
		c-6.086,0-13.137,6.221-13.137,13.896c0,7.677,7.051,13.896,13.137,13.896c7.734,0,9.377-4.611,12.182-5.283
		c1.926-0.466,3.069,0.989,3.069,5.029v26.208h-26.208c-4.044,0-5.495,1.144-5.034,3.069c0.677,2.805,5.284,4.448,5.284,12.182
		c0,6.091-6.22,13.143-13.896,13.143c-7.671,0-13.896-7.052-13.896-13.143c0-7.733,4.611-9.377,5.289-12.182
		c0.461-1.926-0.99-3.069-5.034-3.069H432.757z"/>
	<path fill-rule="evenodd" clip-rule="evenodd" fill="#F6E116" d="M512.462,234.39h-17.167l17.167-53.185v0.01
		c0.043,2.545,0.562,3.996,1.47,4.538l6.739,20.882c-2.272-1.374-3.511-3.094-5.139-3.487c-1.927-0.466-3.07,0.989-3.07,5.029
		V234.39z"/>
	<path fill-rule="evenodd" clip-rule="evenodd" fill="#28A8CC" d="M512.462,234.39h17.168l15.669,48.539l48.775-0.096
		c-1.215,0.326-1.907,1.902-1.907,5.049c0,8.737,0,17.475,0,26.208h-26.208c-4.044,0-5.495-1.139-5.034-3.064
		c0.677-2.806,5.284-4.449,5.284-12.183c0-6.09-6.22-13.143-13.896-13.143c-7.671,0-13.896,7.053-13.896,13.143
		c0,7.733,4.611,9.377,5.289,12.183c0.461,1.926-0.994,3.064-5.034,3.064h-26.208v-26.208c0-4.04-1.144-5.495-3.069-5.029
		c-2.805,0.672-4.448,5.283-12.182,5.283c-6.086,0-13.137-6.22-13.137-13.896c0-7.676,7.051-13.896,13.137-13.896
		c7.734,0,9.377,4.611,12.182,5.284c1.926,0.466,3.069-0.99,3.069-5.029V234.39z M617.42,282.79
		c-2.618,3.252-6.471,5.346-10.001,5.346c-7.734,0-9.381-4.611-12.182-5.283c-0.034-0.01-0.062-0.015-0.091-0.02L617.42,282.79z"/>
	<path fill-rule="evenodd" clip-rule="evenodd" fill="#F6573E" d="M529.63,234.39h-17.168v-26.213c0-4.04,1.143-5.495,3.07-5.029
		c1.628,0.394,2.867,2.113,5.139,3.487L529.63,234.39z M513.933,185.753c-0.908-0.542-1.427-1.993-1.47-4.538L513.933,185.753z"/>
	<path fill-rule="evenodd" clip-rule="evenodd" fill="#A8D51B" d="M592.168,314.09v-26.208c0-3.146,0.691-4.723,1.907-5.049h1.071
		c0.029,0.005,0.058,0.01,0.091,0.02c2.801,0.672,4.448,5.283,12.182,5.283c3.53,0,7.383-2.094,10.001-5.346l29.157-0.058
		c0.696,0.879,1.484,1.672,2.33,2.363l-40.071,28.994H592.168z"/>
	<path fill-rule="evenodd" clip-rule="evenodd" fill="#28A8CC" d="M433.56,424.196c0.523,0.821,1.297,1.076,2.268,0.841
		c2.8-0.673,4.448-5.284,12.182-5.284c3.208,0,6.691,1.729,9.261,4.491l-31.166,22.735L433.56,424.196z"/>
	<path fill-rule="evenodd" clip-rule="evenodd" fill="#F6573E" d="M432.757,314.09v12.062l-16.668-12.062H432.757z M382.955,290.115
		c2.522-2.589,6.047-4.415,9.948-4.415c7.676,0,13.902,7.053,13.902,13.143c0,3.324-0.855,5.52-1.878,7.172L382.955,290.115z"/>
	<path fill-rule="evenodd" clip-rule="evenodd" fill="#A8D51B" d="M457.27,424.244c-2.57-2.762-6.053-4.491-9.261-4.491
		c-7.734,0-9.382,4.611-12.182,5.284c-0.97,0.235-1.744-0.02-2.268-0.841l9.938-30.401h15.467c4.044,0,5.495-1.139,5.034-3.064
		c-0.677-2.806-5.289-4.448-5.289-12.183c0-6.091,6.226-13.143,13.896-13.143c7.676,0,13.896,7.052,13.896,13.143
		c0,7.734-4.606,9.377-5.284,12.183c-0.461,1.926,0.99,3.064,5.034,3.064h12.758L457.27,424.244z"/>
	<path fill-rule="evenodd" clip-rule="evenodd" fill="#F6E116" d="M499.012,393.795h-12.758c-4.044,0-5.495-1.139-5.034-3.064
		c0.677-2.806,5.284-4.448,5.284-12.183c0-6.091-6.22-13.143-13.896-13.143c-7.671,0-13.896,7.052-13.896,13.143
		c0,7.734,4.611,9.377,5.289,12.183c0.461,1.926-0.99,3.064-5.034,3.064h-15.467l15.833-48.41l-26.573-19.233V314.09h26.208
		c4.044,0,5.495,1.144,5.034,3.069c-0.677,2.805-5.289,4.448-5.289,12.182c0,6.091,6.226,13.143,13.896,13.143
		c7.676,0,13.896-7.052,13.896-13.143c0-7.733-4.606-9.377-5.284-12.182c-0.461-1.926,0.99-3.069,5.034-3.069h26.208v26.213
		c0,4.039,1.143,5.495,3.07,5.029c2.8-0.673,4.448-5.284,12.182-5.284c6.086,0,13.138,6.221,13.138,13.896
		c0,7.677-7.052,13.896-13.138,13.896c-7.734,0-9.381-4.611-12.182-5.283c-1.927-0.466-3.07,0.989-3.07,5.029v16.399
		L499.012,393.795z"/>
	<path fill-rule="evenodd" clip-rule="evenodd" fill="#28A8CC" d="M525.912,393.795h12.758c4.04,0,5.496,1.144,5.034,3.069
		c-0.48,1.983-2.92,3.387-4.313,6.763L525.912,393.795z M560.704,419.177c3.344-2.618,5.505-6.543,5.505-10.131
		c0-7.734-4.606-9.377-5.284-12.182c-0.461-1.926,0.99-3.069,5.034-3.069h15.462l16.361,50.023
		c-0.888-0.734-1.657-1.345-2.546-1.557c-0.865-0.206-1.566-0.033-2.084,0.587L560.704,419.177z"/>
	<path fill-rule="evenodd" clip-rule="evenodd" fill="#F6573E" d="M592.168,314.09v12.062l-26.579,19.233l0.418,1.268
		c-1.374,2.119-2.234,4.617-2.234,7.292c0,5.895,4.165,10.934,8.853,12.95l8.795,26.9h-15.462c-4.044,0-5.495,1.144-5.034,3.069
		c0.677,2.805,5.284,4.447,5.284,12.182c0,3.588-2.161,7.513-5.505,10.131l-21.313-15.55c1.393-3.376,3.833-4.779,4.313-6.763
		c0.461-1.926-0.994-3.069-5.034-3.069h-12.758l-13.45-9.809v-16.399c0-4.04,1.143-5.495,3.07-5.029
		c2.8,0.672,4.448,5.283,12.182,5.283c6.086,0,13.138-6.22,13.138-13.896c0-7.676-7.052-13.896-13.138-13.896
		c-7.734,0-9.381,4.611-12.182,5.284c-1.927,0.466-3.07-0.99-3.07-5.029V314.09h26.208c4.04,0,5.496-1.139,5.034-3.064
		c-0.677-2.806-5.289-4.449-5.289-12.183c0-6.09,6.226-13.143,13.896-13.143c7.676,0,13.896,7.053,13.896,13.143
		c0,7.733-4.606,9.377-5.284,12.183c-0.461,1.926,0.99,3.064,5.034,3.064H592.168z"/>
	<path fill-rule="evenodd" clip-rule="evenodd" fill="#A8D51B" d="M593.152,442.849c0.519-0.62,1.22-0.793,2.084-0.587
		c0.889,0.212,1.658,0.822,2.546,1.557l1.033,3.161L593.152,442.849z"/>
	<path fill-rule="evenodd" clip-rule="evenodd" fill="#F6E116" d="M572.626,366.895c-4.688-2.017-8.853-7.056-8.853-12.95
		c0-2.675,0.86-5.173,2.234-7.292L572.626,366.895z M592.168,326.151V314.09h16.668L592.168,326.151z"/>
	<path fill-rule="evenodd" clip-rule="evenodd" fill="#28A8CC" d="M648.907,285.096c-0.845-0.691-1.633-1.484-2.33-2.363l5.611-0.01
		L648.907,285.096z"/>
</g>
<g>
	<path fill-rule="evenodd" clip-rule="evenodd" fill="#28A8CC" d="M1099.972,234.01h5.26c0,8.776,0,17.552,0,26.333
		c0,4.059,1.147,5.52,3.083,5.054c2.816-0.678,4.468-5.308,12.24-5.308c6.114,0,13.2,6.249,13.2,13.959
		c0,7.714-7.086,13.964-13.2,13.964c-7.772,0-9.424-4.631-12.24-5.309c-1.936-0.466-3.083,0.994-3.083,5.054
		c0,8.775,0,17.557,0,26.333h-24.287c2.983-4.055,5.851-7.974,7.532-10.559c4.679-7.186,6.269-13.743,3.55-18.46
		c-2.715-4.722-3.876-10.241-1.879-16.289C1091.931,263.384,1094.01,249.083,1099.972,234.01L1099.972,234.01z"/>
	<path fill-rule="evenodd" clip-rule="evenodd" fill="#F6573E" d="M1105.231,222.679v11.331h-5.26
		C1101.461,230.239,1103.2,226.421,1105.231,222.679L1105.231,222.679z"/>
	<path fill-rule="evenodd" clip-rule="evenodd" fill="#A8D51B" d="M1105.231,314.09v-26.333c0-4.06,1.147-5.52,3.083-5.054
		c2.816,0.678,4.468,5.309,12.24,5.309c6.114,0,13.2-6.25,13.2-13.964c0-7.71-7.086-13.959-13.2-13.959
		c-7.772,0-9.424,4.63-12.24,5.308c-1.936,0.466-3.083-0.995-3.083-5.054V234.01c8.775,0,17.553,0,26.332,0
		c4.061,0,5.52-1.148,5.055-3.084c-0.678-2.814-5.309-4.467-5.309-12.239c0-6.115,6.25-13.2,13.959-13.2
		c7.715,0,13.964,7.085,13.964,13.2c0,7.772-4.631,9.425-5.308,12.239c-0.466,1.936,0.994,3.084,5.054,3.084
		c8.775,0,17.557,0,26.332,0v26.333c0,4.059-1.147,5.52-3.083,5.054c-2.814-0.678-4.468-5.308-12.24-5.308
		c-6.114,0-13.2,6.249-13.2,13.959c0,7.714,7.086,13.964,13.2,13.964c7.772,0,9.426-4.631,12.24-5.309
		c1.936-0.466,3.083,0.994,3.083,5.054v26.333h-26.332c-4.06,0-5.52,1.147-5.054,3.084c0.677,2.814,5.308,4.467,5.308,12.234
		c0,6.119-6.249,13.204-13.964,13.204c-7.709,0-13.959-7.085-13.959-13.204c0-7.768,4.631-9.42,5.309-12.234
		c0.465-1.937-0.994-3.084-5.055-3.084H1105.231z"/>
	<path fill-rule="evenodd" clip-rule="evenodd" fill="#F6E116" d="M1185.311,234.01h-26.332c-4.06,0-5.52-1.148-5.054-3.084
		c0.677-2.814,5.308-4.467,5.308-12.239c0-6.115-6.249-13.2-13.964-13.2c-7.709,0-13.959,7.085-13.959,13.2
		c0,7.772,4.631,9.425,5.309,12.239c0.465,1.936-0.994,3.084-5.055,3.084h-26.332v-11.331c0.648-1.196,1.33-2.383,2.042-3.56
		c11.864-19.546,38.927-33.75,74.181-37.088c1.316-0.125,2.617-0.23,3.915-0.322c0.249,2.959,1.34,4.011,3.026,3.607
		c1.854-0.446,3.203-2.608,6.129-4.03c3.958-0.071,7.814,0.005,11.571,0.23c4.218,2.306,7.738,7.019,7.738,12.451
		c0,7.714-7.085,13.964-13.2,13.964c-7.771,0-9.424-4.631-12.238-5.308c-1.937-0.466-3.085,0.994-3.085,5.053V234.01z"/>
	<path fill-rule="evenodd" clip-rule="evenodd" fill="#28A8CC" d="M1185.311,234.01h26.334c4.059,0,5.519,1.148,5.053,3.084
		c-0.678,2.814-5.308,4.467-5.308,12.234c0,6.12,6.249,13.205,13.959,13.205c7.714,0,13.964-7.085,13.964-13.205
		c0-7.768-4.631-9.42-5.308-12.234c-0.467-1.936,0.994-3.084,5.053-3.084h26.333c0,8.776,0,17.552,0,26.333
		c0,4.059,1.148,5.52,3.085,5.054c2.814-0.678,4.466-5.308,12.238-5.308c6.115,0,13.2,6.249,13.2,13.959
		c0,7.714-7.085,13.964-13.2,13.964c-7.772,0-9.424-4.631-12.238-5.309c-1.937-0.466-3.085,0.994-3.085,5.054
		c0,8.775,0,17.557,0,26.333h-26.333c-4.059,0-5.52-1.148-5.053-3.084c0.677-2.815,5.308-4.468,5.308-12.239
		c0-6.115-6.25-13.2-13.964-13.2c-7.71,0-13.959,7.085-13.959,13.2c0,7.771,4.63,9.424,5.308,12.239
		c0.466,1.936-0.994,3.084-5.053,3.084h-26.334v-26.333c0-4.06-1.147-5.52-3.083-5.054c-2.814,0.678-4.468,5.309-12.24,5.309
		c-6.114,0-13.2-6.25-13.2-13.964c0-7.71,7.086-13.959,13.2-13.959c7.772,0,9.426,4.63,12.24,5.308
		c1.936,0.466,3.083-0.995,3.083-5.054V234.01z"/>
	<path fill-rule="evenodd" clip-rule="evenodd" fill="#F6573E" d="M1238.333,187.987c-0.918,1.815-1.466,3.843-1.466,5.98
		c0,7.714,7.085,13.964,13.2,13.964c7.771,0,9.425-4.631,12.239-5.308c1.937-0.466,3.084,0.994,3.084,5.053v26.333
		c-8.776,0-17.557,0-26.333,0c-4.059,0-5.52,1.148-5.053,3.084c0.677,2.814,5.308,4.467,5.308,12.234
		c0,6.12-6.25,13.205-13.964,13.205c-7.71,0-13.959-7.085-13.959-13.205c0-7.768,4.63-9.42,5.308-12.234
		c0.466-1.936-0.994-3.084-5.053-3.084c-8.776,0-17.558,0-26.334,0v-26.333c0-4.059,1.148-5.519,3.085-5.053
		c2.814,0.677,4.467,5.308,12.238,5.308c6.115,0,13.2-6.25,13.2-13.964c0-5.433-3.521-10.146-7.738-12.451
		C1217.855,182.228,1228.615,184.395,1238.333,187.987L1238.333,187.987z M1194.524,181.286c-2.926,1.422-4.275,3.584-6.129,4.03
		c-1.687,0.403-2.777-0.648-3.026-3.607C1188.477,181.483,1191.531,181.339,1194.524,181.286L1194.524,181.286z"/>
	<path fill-rule="evenodd" clip-rule="evenodd" fill="#A8D51B" d="M1265.391,314.09v-26.333c0-4.06,1.148-5.52,3.085-5.054
		c2.814,0.678,4.466,5.309,12.238,5.309c6.115,0,13.2-6.25,13.2-13.964c0-7.71-7.085-13.959-13.2-13.959
		c-7.772,0-9.424,4.63-12.238,5.308c-1.937,0.466-3.085-0.995-3.085-5.054V234.01h22.605c5.294,10.86,9.223,23.345,11.74,37.4
		c3.203,17.869,1.172,31.723-3.248,43.981c-0.652-0.836-2.181-1.302-4.765-1.302H1265.391z M1291.709,326.545
		c0.476-2.676,1.585-4.409,2.657-5.773C1293.53,322.727,1292.637,324.648,1291.709,326.545L1291.709,326.545z"/>
	<path fill-rule="evenodd" clip-rule="evenodd" fill="#F6E116" d="M1287.996,234.01h-22.605c0-8.775,0-17.557,0-26.333
		c0-4.059-1.147-5.519-3.084-5.053c-2.814,0.677-4.468,5.308-12.239,5.308c-6.115,0-13.2-6.25-13.2-13.964
		c0-2.138,0.548-4.165,1.466-5.98C1260.391,196.148,1277.087,211.635,1287.996,234.01L1287.996,234.01z"/>
	<path fill-rule="evenodd" clip-rule="evenodd" fill="#28A8CC" d="M1091.311,394.17h13.921v21.097
		c-5.582-1.595-9.299-4.573-12.326-9.112C1090.538,402.6,1090.711,398.363,1091.311,394.17L1091.311,394.17z"/>
	<path fill-rule="evenodd" clip-rule="evenodd" fill="#F6573E" d="M1105.231,314.09v26.333c0,4.059-1.148,5.52-3.084,5.053
		c-2.814-0.677-4.467-5.308-12.24-5.308c-3.174,0-6.613,1.687-9.184,4.386c-1.547-0.682-3.42-1.432-5.61-2.345
		c-8.022-3.343-5.428-9.856-5.265-11.946c0.111-1.335,5.793-8.968,11.096-16.173H1105.231z M1090.34,368.086
		c7.402-0.168,9.046-4.64,11.808-5.303c1.936-0.467,3.084,0.994,3.084,5.053v26.334h-13.921c0.836-5.861,2.498-11.645-0.787-15.415
		C1085.705,373.216,1089.221,369.147,1090.34,368.086L1090.34,368.086z"/>
	<path fill-rule="evenodd" clip-rule="evenodd" fill="#A8D51B" d="M1105.231,415.267V394.17c8.775,0,17.553,0,26.332,0
		c4.061,0,5.52-1.148,5.055-3.085c-0.678-2.814-5.309-4.467-5.309-12.239c0-6.114,6.25-13.199,13.959-13.199
		c7.715,0,13.964,7.085,13.964,13.199c0,7.772-4.631,9.425-5.308,12.239c-0.466,1.937,0.994,3.085,5.054,3.085
		c8.775,0,17.557,0,26.332,0v26.332c0,4.06-1.147,5.52-3.083,5.054c-2.814-0.678-4.468-5.309-12.24-5.309
		c-6.114,0-13.2,6.25-13.2,13.96c0,5.653,3.805,10.52,8.249,12.72H1142.8c-0.898-8.21-1.465-15.693-1.609-18.552
		c-0.336-6.6,2.085-13.2-16.207-11.946C1116.438,417.015,1110.122,416.669,1105.231,415.267L1105.231,415.267z M1176.03,446.927
		c2.974-1.427,4.328-3.617,6.197-4.064c1.768-0.427,2.882,0.755,3.06,4.064H1176.03z"/>
	<path fill-rule="evenodd" clip-rule="evenodd" fill="#F6E116" d="M1185.311,394.17h-26.332c-4.06,0-5.52-1.148-5.054-3.085
		c0.677-2.814,5.308-4.467,5.308-12.239c0-6.114-6.249-13.199-13.964-13.199c-7.709,0-13.959,7.085-13.959,13.199
		c0,7.772,4.631,9.425,5.309,12.239c0.465,1.937-0.994,3.085-5.055,3.085h-26.332c0-8.776,0-17.558,0-26.334
		c0-4.059-1.148-5.52-3.084-5.053c-2.762,0.663-4.405,5.135-11.808,5.303c0.188-0.183,0.308-0.273,0.308-0.273
		s1.254,0.624-3.967-2.926c-5.217-3.55-1.461-10.985-0.625-14.574c0.605-2.612-1.215-3.943-5.332-5.759
		c2.57-2.699,6.01-4.386,9.184-4.386c7.773,0,9.426,4.631,12.24,5.308c1.936,0.467,3.084-0.994,3.084-5.053
		c0-8.781,0-17.557,0-26.333h26.332c4.061,0,5.52,1.147,5.055,3.084c-0.678,2.814-5.309,4.467-5.309,12.234
		c0,6.119,6.25,13.204,13.959,13.204c7.715,0,13.964-7.085,13.964-13.204c0-7.768-4.631-9.42-5.308-12.234
		c-0.466-1.937,0.994-3.084,5.054-3.084h26.332v26.333c0,4.059,1.148,5.52,3.085,5.053c2.814-0.677,4.467-5.308,12.238-5.308
		c6.115,0,13.2,6.249,13.2,13.959c0,7.715-7.085,13.964-13.2,13.964c-7.771,0-9.424-4.631-12.238-5.308
		c-1.937-0.467-3.085,0.994-3.085,5.053V394.17z"/>
	<path fill-rule="evenodd" clip-rule="evenodd" fill="#28A8CC" d="M1185.311,394.17h26.334c4.059,0,5.519,1.147,5.053,3.083
		c-0.678,2.815-5.308,4.468-5.308,12.239c0,6.115,6.249,13.201,13.959,13.201c7.714,0,13.964-7.086,13.964-13.201
		c0-7.771-4.631-9.424-5.308-12.239c-0.467-1.936,0.994-3.083,5.053-3.083h24.277c-1.499,15.947,1.494,34.896,8.689,51.065
		c-1.35-1.066-2.344-2.084-3.549-2.373c-1.769-0.427-2.884,0.755-3.061,4.064h-34.634c-1.671-0.76-3.506-1.201-5.433-1.201
		c-1.922,0-3.762,0.441-5.428,1.201h-34.634c-0.178-3.31-1.292-4.491-3.06-4.064c-1.869,0.447-3.224,2.638-6.197,4.064h-10.994
		c-4.444-2.2-8.249-7.066-8.249-12.72c0-7.71,7.086-13.96,13.2-13.96c7.772,0,9.426,4.631,12.24,5.309
		c1.936,0.466,3.083-0.994,3.083-5.054V394.17z"/>
	<path fill-rule="evenodd" clip-rule="evenodd" fill="#F6573E" d="M1265.391,314.09v26.333c0,4.059-1.147,5.52-3.084,5.053
		c-2.814-0.677-4.468-5.308-12.239-5.308c-6.115,0-13.2,6.249-13.2,13.959c0,7.715,7.085,13.964,13.2,13.964
		c7.771,0,9.425-4.631,12.239-5.308c1.937-0.467,3.084,0.994,3.084,5.053V382.3c-0.389,1.6-0.754,3.224-1.07,4.89
		c-0.433,2.248-0.76,4.578-0.985,6.98h-24.277c-4.059,0-5.52,1.147-5.053,3.083c0.677,2.815,5.308,4.468,5.308,12.239
		c0,6.115-6.25,13.201-13.964,13.201c-7.71,0-13.959-7.086-13.959-13.201c0-7.771,4.63-9.424,5.308-12.239
		c0.466-1.936-0.994-3.083-5.053-3.083c-8.776,0-17.558,0-26.334,0v-26.334c0-4.059,1.148-5.52,3.085-5.053
		c2.814,0.677,4.467,5.308,12.238,5.308c6.115,0,13.2-6.249,13.2-13.964c0-7.71-7.085-13.959-13.2-13.959
		c-7.771,0-9.424,4.631-12.238,5.308c-1.937,0.467-3.085-0.994-3.085-5.053V314.09h26.334c4.059,0,5.519-1.148,5.053-3.084
		c-0.678-2.815-5.308-4.468-5.308-12.239c0-6.115,6.249-13.2,13.959-13.2c7.714,0,13.964,7.085,13.964,13.2
		c0,7.771-4.631,9.424-5.308,12.239c-0.467,1.936,0.994,3.084,5.053,3.084H1265.391z"/>
	<path fill-rule="evenodd" clip-rule="evenodd" fill="#A8D51B" d="M1265.415,446.927c0.177-3.31,1.292-4.491,3.061-4.064
		c1.205,0.289,2.199,1.307,3.549,2.373c0.255,0.566,0.51,1.129,0.773,1.691H1265.415z"/>
	<path fill-rule="evenodd" clip-rule="evenodd" fill="#F6E116" d="M1265.391,382.3v-14.464c0-4.059-1.147-5.52-3.084-5.053
		c-2.814,0.677-4.468,5.308-12.239,5.308c-6.115,0-13.2-6.249-13.2-13.964c0-7.71,7.085-13.959,13.2-13.959
		c7.771,0,9.425,4.631,12.239,5.308c1.937,0.467,3.084-0.994,3.084-5.053c0-8.781,0-17.557,0-26.333h26.333
		c2.584,0,4.112,0.466,4.765,1.302c-0.658,1.825-1.368,3.617-2.122,5.38c-1.072,1.364-2.182,3.098-2.657,5.773
		C1283.063,344.17,1270.892,359.848,1265.391,382.3L1265.391,382.3z"/>
</g>
<g>
	<path fill-rule="evenodd" clip-rule="evenodd" fill="#28A8CC" d="M723.578,262.331c0.729,0.135,1.484,0.207,2.253,0.207
		c7.709,0,13.959-7.085,13.959-13.205c0-5.385-2.225-7.829-3.814-9.766c1.283-1.888,2.613-3.737,3.987-5.553h25.905
		c0,8.776,0,17.552,0,26.328c0,4.063,1.147,5.524,3.084,5.059c2.814-0.678,4.467-5.313,12.239-5.313
		c2.608,0,5.395,1.143,7.734,3.045c-6.082,6.802-10.967,14.698-14.32,23.359c-2.599-1.417-3.899-3.367-5.653-3.79
		c-1.937-0.466-3.084,0.994-3.084,5.059c0,8.775,0,17.552,0,26.328h-26.333c-4.059,0-5.52-1.144-5.053-3.079
		c0.677-2.82,5.308-4.473,5.308-12.239c0-6.12-6.25-13.205-13.959-13.205c-4.28,0-8.109,2.186-10.669,5.169
		C716.915,280.85,719.764,271.338,723.578,262.331L723.578,262.331z M713.403,305.381c1.417,2.584,3.354,3.881,3.776,5.63
		c0.423,1.768-0.759,2.877-4.063,3.055C713.116,311.145,713.216,308.253,713.403,305.381L713.403,305.381z"/>
	<path fill-rule="evenodd" clip-rule="evenodd" fill="#F6573E" d="M765.868,208.109v25.905h-25.905
		C747.364,224.234,756.088,215.512,765.868,208.109L765.868,208.109z M735.976,239.567c1.59,1.937,3.814,4.381,3.814,9.766
		c0,6.12-6.25,13.205-13.959,13.205c-0.769,0-1.523-0.072-2.253-0.207C726.974,254.31,731.138,246.691,735.976,239.567
		L735.976,239.567z"/>
	<path fill-rule="evenodd" clip-rule="evenodd" fill="#A8D51B" d="M765.868,314.09v-26.328c0-4.064,1.147-5.524,3.084-5.059
		c1.754,0.423,3.055,2.373,5.653,3.79c-3.314,8.56-5.135,17.864-5.135,27.597l0,0H765.868z M788.926,263.134
		c-2.34-1.902-5.126-3.045-7.734-3.045c-7.772,0-9.425,4.635-12.239,5.313c-1.937,0.466-3.084-0.995-3.084-5.059v-26.328
		c8.776,0,17.557,0,26.333,0c4.06,0,5.519-1.147,5.054-3.084c-0.678-2.819-5.308-4.467-5.308-12.239c0-6.12,6.248-13.2,13.963-13.2
		c7.71,0,13.959,7.08,13.959,13.2c0,7.772-4.63,9.42-5.308,12.239c-0.466,1.937,0.994,3.084,5.054,3.084c8.78,0,17.557,0,26.332,0
		v3.598C823.285,237.612,802.927,247.474,788.926,263.134L788.926,263.134z"/>
	<path fill-rule="evenodd" clip-rule="evenodd" fill="#F6E116" d="M845.947,234.015h-26.332c-4.06,0-5.52-1.147-5.054-3.084
		c0.678-2.819,5.308-4.467,5.308-12.239c0-6.12-6.249-13.2-13.959-13.2c-7.715,0-13.963,7.08-13.963,13.2
		c0,7.772,4.63,9.42,5.308,12.239c0.465,1.937-0.994,3.084-5.054,3.084h-26.333v-25.905c22.27-16.851,50.004-26.852,80.079-26.852
		c0.011,0,0.02,0,0.024,0c0.178,3.305,1.292,4.491,3.061,4.063c1.743-0.418,3.045-2.358,5.629-3.771
		c4.958,0.321,9.848,0.903,14.642,1.753c2.987,2.565,5.168,6.394,5.168,10.669c0,7.715-7.084,13.964-13.2,13.964
		c-7.771,0-9.424-4.631-12.238-5.313c-1.937-0.462-3.085,0.994-3.085,5.058V234.015z"/>
	<path fill-rule="evenodd" clip-rule="evenodd" fill="#28A8CC" d="M845.947,234.015h26.334c4.059,0,5.52,1.148,5.053,3.079
		c-0.423,1.753-2.368,3.056-3.785,5.659c-8.564-3.319-17.869-5.141-27.602-5.141l0,0V234.015z M896.903,257.067
		c1.908-2.335,3.046-5.121,3.046-7.734c0-7.767-4.63-9.419-5.308-12.239c-0.467-1.931,0.994-3.079,5.053-3.079h26.334
		c0,8.776,0,17.552,0,26.328c0,4.063,1.146,5.524,3.083,5.059c2.814-0.678,4.468-5.313,12.239-5.313c6.115,0,13.2,6.254,13.2,13.963
		c0,7.71-7.085,13.964-13.2,13.964c-7.771,0-9.425-4.635-12.239-5.313c-1.937-0.466-3.083,0.994-3.083,5.059
		c0,8.775,0,17.552,0,26.328h-3.604C922.425,291.432,912.568,271.074,896.903,257.067L896.903,257.067z"/>
	<path fill-rule="evenodd" clip-rule="evenodd" fill="#F6573E" d="M897.706,191.72c-0.13,0.735-0.201,1.484-0.201,2.253
		c0,7.715,7.084,13.964,13.199,13.964c5.39,0,7.835-2.224,9.766-3.819c1.889,1.283,3.742,2.613,5.559,3.992v25.905
		c-8.777,0-17.558,0-26.334,0c-4.059,0-5.52,1.148-5.053,3.079c0.678,2.82,5.308,4.473,5.308,12.239
		c0,2.613-1.138,5.399-3.046,7.734c-6.802-6.082-14.693-10.963-23.354-14.314c1.417-2.604,3.362-3.906,3.785-5.659
		c0.467-1.931-0.994-3.079-5.053-3.079c-8.776,0-17.557,0-26.334,0v-26.333c0-4.063,1.148-5.52,3.085-5.058
		c2.814,0.682,4.467,5.313,12.238,5.313c6.116,0,13.2-6.249,13.2-13.964c0-4.275-2.181-8.104-5.168-10.669
		C879.192,185.062,888.704,187.905,897.706,191.72L897.706,191.72z M854.661,181.551c-2.584,1.412-3.886,3.353-5.629,3.771
		c-1.769,0.428-2.883-0.759-3.061-4.063C848.893,181.258,851.789,181.363,854.661,181.551L854.661,181.551z"/>
	<path fill-rule="evenodd" clip-rule="evenodd" fill="#A8D51B" d="M926.028,314.09v-26.328c0-4.064,1.146-5.524,3.083-5.059
		c2.814,0.678,4.468,5.313,12.239,5.313c6.115,0,13.2-6.254,13.2-13.964c0-7.709-7.085-13.963-13.2-13.963
		c-7.771,0-9.425,4.635-12.239,5.313c-1.937,0.466-3.083-0.995-3.083-5.059v-26.328h25.905c16.85,22.265,26.852,50,26.852,80.075
		c0,0.01,0,0.019,0,0.028c-3.311,0.178-4.491,1.287-4.064,3.056c0.418,1.748,2.358,3.045,3.771,5.629
		c-0.321,4.963-0.907,9.848-1.758,14.646c-2.56,2.983-6.389,5.169-10.668,5.169c-7.711,0-13.959-7.086-13.959-13.205
		c0-7.768,4.63-9.42,5.307-12.239c0.467-1.937-0.993-3.084-5.053-3.084H926.028z"/>
	<path fill-rule="evenodd" clip-rule="evenodd" fill="#F6E116" d="M951.934,234.015h-25.905v-25.905
		C935.808,215.512,944.531,224.234,951.934,234.015L951.934,234.015z M920.47,204.117c-1.931,1.596-4.376,3.819-9.766,3.819
		c-6.115,0-13.199-6.249-13.199-13.964c0-0.769,0.071-1.518,0.201-2.253C905.728,195.115,913.347,199.28,920.47,204.117
		L920.47,204.117z"/>
	<path fill-rule="evenodd" clip-rule="evenodd" fill="#28A8CC" d="M739.963,394.17h25.905v25.905
		C756.088,412.673,747.364,403.949,739.963,394.17L739.963,394.17z M771.426,424.066c1.931-1.595,4.381-3.819,9.766-3.819
		c6.115,0,13.2,6.25,13.2,13.964c0,0.765-0.072,1.519-0.202,2.253C786.168,433.068,778.55,428.903,771.426,424.066L771.426,424.066z
		"/>
	<path fill-rule="evenodd" clip-rule="evenodd" fill="#F6573E" d="M765.868,314.09v26.333c0,4.063-1.148,5.523-3.078,5.058
		c-2.82-0.677-4.474-5.313-12.24-5.313c-6.12,0-13.205,6.254-13.205,13.964s7.085,13.964,13.205,13.964
		c7.767,0,9.42-4.636,12.24-5.313c1.93-0.467,3.078,0.994,3.078,5.058v26.329h-25.905c-16.851-22.266-26.847-50-26.847-80.08
		c0-0.005,0-0.015,0-0.024c3.305-0.178,4.486-1.287,4.063-3.055c-0.423-1.749-2.359-3.046-3.776-5.63
		c0.323-4.962,0.908-9.848,1.759-14.646c2.56-2.983,6.389-5.169,10.669-5.169c7.709,0,13.959,7.085,13.959,13.205
		c0,7.767-4.631,9.419-5.308,12.239c-0.467,1.936,0.994,3.079,5.053,3.079H765.868z"/>
	<path fill-rule="evenodd" clip-rule="evenodd" fill="#A8D51B" d="M794.189,436.464c0.13-0.734,0.202-1.488,0.202-2.253
		c0-7.714-7.085-13.964-13.2-13.964c-5.385,0-7.835,2.225-9.766,3.819c-1.888-1.282-3.737-2.618-5.558-3.991V394.17
		c8.776,0,17.557,0,26.333,0c4.06,0,5.519-1.148,5.054-3.08c-0.678-2.819-5.308-4.472-5.308-12.239c0-2.613,1.138-5.398,3.045-7.733
		c6.801,6.081,14.698,10.962,23.354,14.314c-1.412,2.604-3.363,3.905-3.785,5.658c-0.466,1.932,0.994,3.08,5.054,3.08
		c8.78,0,17.557,0,26.332,0v26.332c0,4.06-1.147,5.52-3.083,5.054c-2.815-0.678-4.468-5.309-12.239-5.309
		c-6.115,0-13.201,6.25-13.201,13.964c0,4.275,2.182,8.104,5.169,10.669C812.703,443.122,803.191,440.278,794.189,436.464
		L794.189,436.464z M837.234,446.634c2.589-1.412,3.886-3.354,5.63-3.771c1.768-0.427,2.882,0.76,3.06,4.064
		C843.004,446.927,840.106,446.82,837.234,446.634L837.234,446.634z"/>
	<path fill-rule="evenodd" clip-rule="evenodd" fill="#F6E116" d="M845.947,394.17h-26.332c-4.06,0-5.52-1.148-5.054-3.08
		c0.422-1.753,2.373-3.055,3.785-5.658c8.564,3.319,17.869,5.14,27.601,5.14V394.17z M794.992,371.117
		c-1.907,2.335-3.045,5.12-3.045,7.733c0,7.768,4.63,9.42,5.308,12.239c0.465,1.932-0.994,3.08-5.054,3.08h-26.333
		c0-8.776,0-17.553,0-26.329c0-4.063-1.148-5.524-3.078-5.058c-2.82,0.677-4.474,5.313-12.24,5.313
		c-6.12,0-13.205-6.254-13.205-13.964s7.085-13.964,13.205-13.964c7.767,0,9.42,4.636,12.24,5.313
		c1.93,0.466,3.078-0.994,3.078-5.058c0-8.776,0-17.553,0-26.333h3.603C769.471,336.753,779.327,357.109,794.992,371.117
		L794.992,371.117z"/>
	<path fill-rule="evenodd" clip-rule="evenodd" fill="#28A8CC" d="M845.947,394.17h26.334c4.059,0,5.52,1.147,5.053,3.083
		c-0.678,2.815-5.308,4.468-5.308,12.239c0,6.115,6.249,13.201,13.959,13.201c7.715,0,13.964-7.086,13.964-13.201
		c0-7.771-4.63-9.424-5.308-12.239c-0.467-1.936,0.994-3.083,5.053-3.083h26.334v25.905c-22.266,16.851-50.006,26.852-80.081,26.852
		c-0.009,0-0.015,0-0.023,0c-0.178-3.305-1.292-4.491-3.06-4.064c-1.744,0.418-3.046,2.359-5.63,3.771
		c-4.957-0.322-9.847-0.903-14.642-1.754c-2.987-2.564-5.169-6.394-5.169-10.669c0-7.714,7.086-13.964,13.201-13.964
		c7.771,0,9.424,4.631,12.239,5.309c1.936,0.466,3.083-0.994,3.083-5.054V394.17z"/>
	<path fill-rule="evenodd" clip-rule="evenodd" fill="#F6573E" d="M926.028,314.09v26.333c0,4.063-1.148,5.523-3.085,5.058
		c-1.748-0.423-3.051-2.373-5.654-3.79c3.315-8.56,5.136-17.864,5.136-27.601H926.028z M902.971,365.051
		c2.34,1.901,5.125,3.045,7.733,3.045c7.771,0,9.425-4.636,12.239-5.313c1.937-0.467,3.085,0.994,3.085,5.058v26.329
		c-8.777,0-17.558,0-26.334,0c-4.059,0-5.52,1.147-5.053,3.083c0.678,2.815,5.308,4.468,5.308,12.239
		c0,6.115-6.249,13.201-13.964,13.201c-7.71,0-13.959-7.086-13.959-13.201c0-7.771,4.63-9.424,5.308-12.239
		c0.467-1.936-0.994-3.083-5.053-3.083c-8.776,0-17.557,0-26.334,0v-3.599C868.611,390.571,888.968,380.71,902.971,365.051
		L902.971,365.051z"/>
	<path fill-rule="evenodd" clip-rule="evenodd" fill="#A8D51B" d="M926.028,420.075V394.17h25.905
		C944.531,403.949,935.808,412.673,926.028,420.075L926.028,420.075z M955.92,388.611c-1.59-1.931-3.813-4.376-3.813-9.761
		c0-6.119,6.248-13.204,13.959-13.204c0.769,0,1.522,0.071,2.257,0.206C964.922,373.874,960.757,381.493,955.92,388.611
		L955.92,388.611z"/>
	<path fill-rule="evenodd" clip-rule="evenodd" fill="#F6E116" d="M968.322,365.853c-0.734-0.135-1.488-0.206-2.257-0.206
		c-7.711,0-13.959,7.085-13.959,13.204c0,5.385,2.224,7.83,3.813,9.761c-1.282,1.893-2.613,3.742-3.986,5.559h-25.905
		c0-8.776,0-17.553,0-26.329c0-4.063-1.148-5.524-3.085-5.058c-2.814,0.677-4.468,5.313-12.239,5.313
		c-2.608,0-5.394-1.144-7.733-3.045c6.081-6.802,10.966-14.699,14.318-23.36c2.604,1.417,3.906,3.367,5.654,3.79
		c1.937,0.466,3.085-0.994,3.085-5.058c0-8.776,0-17.553,0-26.333h26.332c4.06,0,5.52,1.147,5.053,3.084
		c-0.677,2.819-5.307,4.472-5.307,12.239c0,6.119,6.248,13.205,13.959,13.205c4.279,0,8.108-2.186,10.668-5.169
		C974.98,347.335,972.132,356.846,968.322,365.853L968.322,365.853z M978.491,322.803c-1.412-2.584-3.353-3.881-3.771-5.629
		c-0.427-1.769,0.754-2.878,4.064-3.056C978.78,317.034,978.679,319.931,978.491,322.803L978.491,322.803z"/>
</g>
<g>
	<path fill-rule="evenodd" clip-rule="evenodd" fill="#28A8CC" d="M748.331,688.544h32.097c4.952,0,6.729,1.397,6.163,3.757
		c-0.826,3.435-6.476,5.447-6.476,14.92c0,7.46,7.624,16.097,17.024,16.097c4.64,0,8.843-2.104,11.912-5.136
		c9.728,9.953,22.51,17.745,36.896,21.598c10.876-2.916,20.838-8.08,29.254-14.723c3.233,3.098,5.52,7.464,5.52,12.297
		c0,9.4-8.637,17.023-16.097,17.023c-9.473,0-11.485-5.649-14.92-6.475c-2.358-0.567-3.757,1.21-3.757,6.162
		c0,10.697,0,21.4,0,32.098h-32.097c-4.952,0-6.734-1.398-6.163-3.757c0.826-3.435,6.471-5.447,6.471-14.919
		c0-7.456-7.618-16.092-17.019-16.092s-17.024,8.636-17.024,16.092c0,9.472,5.649,11.484,6.476,14.919
		c0.566,2.358-1.211,3.757-6.163,3.757h-32.097v-32.098c0-4.952-1.403-6.729-3.762-6.162c-3.435,0.825-5.447,6.475-14.92,6.475
		c-7.455,0-16.092-7.623-16.092-17.023s8.637-17.019,16.092-17.019c9.473,0,11.485,5.644,14.92,6.47
		c2.358,0.572,3.762-1.21,3.762-6.163V688.544z"/>
	<path fill-rule="evenodd" clip-rule="evenodd" fill="#F6573E" d="M845.947,590.923v32.101c0,4.953-1.397,6.73-3.756,6.163
		c-3.434-0.825-5.447-6.475-14.92-6.475c-7.354,0-15.851,7.412-16.092,16.63c-11.932,4.631-21.38,17.053-21.38,35.695
		c0,15.468,7.32,30.935,19.252,43.145c-3.069,3.032-7.272,5.136-11.912,5.136c-9.4,0-17.024-8.637-17.024-16.097
		c0-9.473,5.649-11.485,6.476-14.92c0.566-2.359-1.211-3.757-6.163-3.757c-10.697,0-21.399,0-32.097,0v-32.102
		c0-4.948,1.397-6.73,3.756-6.163c3.434,0.831,5.446,6.476,14.92,6.476c7.455,0,16.092-7.619,16.092-17.02
		s-8.637-17.023-16.092-17.023c-9.474,0-11.486,5.649-14.92,6.475c-2.358,0.567-3.756-1.21-3.756-6.163v-32.101h32.097
		c4.952,0,6.729-1.398,6.163-3.757c-0.826-3.435-6.476-5.447-6.476-14.92c0-7.455,7.624-16.092,17.024-16.092
		s17.019,8.637,17.019,16.092c0,9.473-5.645,11.485-6.471,14.92c-0.571,2.358,1.211,3.757,6.163,3.757H845.947z"/>
	<path fill-rule="evenodd" clip-rule="evenodd" fill="#A8D51B" d="M845.947,786.162v-32.098c0-4.952,1.398-6.729,3.757-6.162
		c3.435,0.825,5.447,6.475,14.92,6.475c7.46,0,16.097-7.623,16.097-17.023c0-4.833-2.286-9.199-5.52-12.297
		c16.37-12.932,26.896-31.474,26.896-50.02c0-8.315-1.883-15.387-5.024-21.088c8.305,1.259,14.708,9.084,14.708,15.919
		c0,9.468-5.649,11.485-6.476,14.92c-0.566,2.358,1.211,3.756,6.163,3.756c10.703,0,21.399,0,32.103,0v32.098
		c0,4.953-1.402,6.735-3.761,6.163c-3.436-0.826-5.447-6.47-14.92-6.47c-7.455,0-16.093,7.618-16.093,17.019
		s8.638,17.023,16.093,17.023c9.473,0,11.484-5.649,14.92-6.475c2.358-0.567,3.761,1.21,3.761,6.162v32.098h-32.103
		c-4.952,0-6.729,1.402-6.163,3.761c0.826,3.435,6.476,5.447,6.476,14.92c0,7.455-7.624,16.092-17.024,16.092
		s-17.019-8.637-17.019-16.092c0-9.473,5.645-11.485,6.476-14.92c0.566-2.358-1.216-3.761-6.163-3.761H845.947z"/>
	<path fill-rule="evenodd" clip-rule="evenodd" fill="#F6E116" d="M943.57,688.544h-32.103c-4.952,0-6.729-1.397-6.163-3.756
		c0.826-3.435,6.476-5.452,6.476-14.92c0-6.835-6.403-14.66-14.708-15.919c-10.583-19.214-35.498-22.802-51.125-5.409
		c-9.866-10.979-23.437-13.598-34.768-9.198c0.241-9.218,8.738-16.63,16.092-16.63c9.473,0,11.486,5.649,14.92,6.475
		c2.358,0.567,3.756-1.21,3.756-6.163c0-10.701,0-21.399,0-32.101h32.103c4.947,0,6.729,1.402,6.163,3.761
		c-0.831,3.435-6.476,5.447-6.476,14.92c0,7.455,7.618,16.091,17.019,16.091s17.024-8.636,17.024-16.091
		c0-9.473-5.649-11.485-6.476-14.92c-0.566-2.358,1.211-3.761,6.163-3.761h32.103v32.101c0,4.953,1.397,6.73,3.756,6.163
		c3.436-0.825,5.447-6.475,14.92-6.475c7.455,0,16.092,7.623,16.092,17.023s-8.637,17.02-16.092,17.02
		c-9.473,0-11.484-5.645-14.92-6.476c-2.358-0.567-3.756,1.215-3.756,6.163V688.544z"/>
</g>
<g>
	<path fill-rule="evenodd" clip-rule="evenodd" fill="#28A8CC" d="M1054.881,630.162c6.624-1.988,11.494-8.459,11.494-14.175
		c0-4.439-1.35-7.1-2.775-9.056c1.542-2.848,3.213-5.553,5.005-8.107h26.986c0,9.833,0,19.666,0,29.498
		c0,4.549,1.287,6.188,3.454,5.664c3.155-0.759,5.01-5.947,13.714-5.947c6.854,0,14.79,7.003,14.79,15.641
		c0,8.642-7.936,15.646-14.79,15.646c-8.704,0-10.559-5.188-13.714-5.952c-2.167-0.52-3.454,1.114-3.454,5.668
		c0,9.833,0,19.666,0,29.498h-29.499c-4.548,0-6.187-1.287-5.663-3.453c0.759-3.156,5.946-5.005,5.946-13.709
		c0-6.523-6.341-14.032-14.4-14.737c0-0.058-0.005-0.116-0.005-0.173C1051.97,647.014,1052.993,638.232,1054.881,630.162
		L1054.881,630.162z"/>
	<path fill-rule="evenodd" clip-rule="evenodd" fill="#F6573E" d="M1095.591,574.922v23.902h-26.986
		C1075.93,588.357,1085.226,580.311,1095.591,574.922L1095.591,574.922z M1063.6,606.932c1.426,1.956,2.775,4.616,2.775,9.056
		c0,5.716-4.87,12.187-11.494,14.175C1056.879,621.606,1059.853,613.85,1063.6,606.932L1063.6,606.932z"/>
	<path fill-rule="evenodd" clip-rule="evenodd" fill="#A8D51B" d="M1095.591,688.539v-29.498c0-4.554,1.287-6.188,3.454-5.668
		c3.155,0.764,5.01,5.952,13.714,5.952c6.854,0,14.79-7.004,14.79-15.646c0-8.638-7.936-15.641-14.79-15.641
		c-8.704,0-10.559,5.188-13.714,5.947c-2.167,0.523-3.454-1.115-3.454-5.664v-29.498c9.838,0,19.67,0,29.503,0
		c4.549,0,6.187-1.288,5.663-3.454c-0.758-3.155-5.946-5.011-5.946-13.714c0-5.832,5.067-12.445,11.903-14.291
		c4.366,0.52,8.732,1.432,13.036,2.781c3.849,2.945,6.347,7.422,6.347,11.51c0,8.703-5.193,10.559-5.952,13.714
		c-0.52,2.166,1.114,3.454,5.663,3.454c9.833,0,19.67,0,29.503,0v29.498c0,4.549-1.286,6.188-3.453,5.664
		c-3.156-0.759-5.006-5.947-13.714-5.947c-6.855,0-14.79,7.003-14.79,15.641c0,8.642,7.935,15.646,14.79,15.646
		c8.708,0,10.558-5.188,13.714-5.952c2.167-0.52,3.453,1.114,3.453,5.668v29.498h-29.503c-4.549,0-6.183,1.288-5.663,3.454
		c0.759,3.156,5.952,5.006,5.952,13.714c0,6.854-7.004,14.791-15.646,14.791c-8.637,0-15.641-7.937-15.641-14.791
		c0-8.708,5.188-10.558,5.946-13.714c0.523-2.166-1.114-3.454-5.663-3.454H1095.591z"/>
	<path fill-rule="evenodd" clip-rule="evenodd" fill="#F6E116" d="M1185.311,598.824h-29.503c-4.549,0-6.183-1.288-5.663-3.454
		c0.759-3.155,5.952-5.011,5.952-13.714c0-4.088-2.498-8.564-6.347-11.51c12.773,3.992,25.052,11.697,35.561,23.389V598.824z
		 M1136.714,567.365c-6.836,1.846-11.903,8.459-11.903,14.291c0,8.703,5.188,10.559,5.946,13.714
		c0.523,2.166-1.114,3.454-5.663,3.454h-29.503v-23.902C1108.268,568.331,1122.528,565.693,1136.714,567.365L1136.714,567.365z"/>
	<path fill-rule="evenodd" clip-rule="evenodd" fill="#F6573E" d="M1095.591,688.539v29.504c0,4.549-1.283,6.182-3.454,5.663
		c-3.156-0.759-5.005-5.951-13.709-5.951c-2.993,0-6.191,1.335-8.848,3.56c-11.235-20.43-17.576-42.55-17.605-64.675
		c8.06,0.705,14.4,8.214,14.4,14.737c0,8.704-5.188,10.553-5.946,13.709c-0.523,2.166,1.115,3.453,5.663,3.453H1095.591z
		 M1086.801,746.739c2.276-1.489,3.611-3.232,5.336-3.646c2.171-0.523,3.454,1.115,3.454,5.664v7.988
		C1092.521,753.498,1089.586,750.159,1086.801,746.739L1086.801,746.739z"/>
	<path fill-rule="evenodd" clip-rule="evenodd" fill="#A8D51B" d="M1119.752,778.26h5.342c4.549,0,6.187-1.287,5.663-3.453
		c-0.758-3.156-5.946-5.011-5.946-13.714c0-6.855,7.004-14.791,15.641-14.791c8.642,0,15.646,7.936,15.646,14.791
		c0,8.703-5.193,10.558-5.952,13.714c-0.52,2.166,1.114,3.453,5.663,3.453c9.833,0,19.67,0,29.503,0v29.498
		c0,0.923-0.053,1.725-0.153,2.412C1161.054,803.689,1138.847,792.56,1119.752,778.26L1119.752,778.26z"/>
	<path fill-rule="evenodd" clip-rule="evenodd" fill="#F6E116" d="M1185.311,778.26h-29.503c-4.549,0-6.183-1.287-5.663-3.453
		c0.759-3.156,5.952-5.011,5.952-13.714c0-6.855-7.004-14.791-15.646-14.791c-8.637,0-15.641,7.936-15.641,14.791
		c0,8.703,5.188,10.558,5.946,13.714c0.523,2.166-1.114,3.453-5.663,3.453h-5.342c-8.747-6.552-16.836-13.771-24.161-21.515v-7.988
		c0-4.549-1.283-6.188-3.454-5.664c-1.725,0.414-3.06,2.157-5.336,3.646c-6.581-8.065-12.36-16.587-17.221-25.425
		c2.656-2.225,5.854-3.56,8.848-3.56c8.704,0,10.553,5.192,13.709,5.951c2.171,0.519,3.454-1.114,3.454-5.663
		c0-9.833,0-19.671,0-29.504h29.503c4.549,0,6.187,1.288,5.663,3.454c-0.758,3.156-5.946,5.006-5.946,13.714
		c0,6.854,7.004,14.791,15.641,14.791c8.642,0,15.646-7.937,15.646-14.791c0-8.708-5.193-10.558-5.952-13.714
		c-0.52-2.166,1.114-3.454,5.663-3.454h29.503v29.504c0,4.549,1.288,6.182,3.454,5.663c3.156-0.759,5.006-5.951,13.709-5.951
		c6.854,0,14.795,7.004,14.795,15.645c0,8.638-7.94,15.641-14.795,15.641c-8.703,0-10.553-5.188-13.709-5.947
		c-2.166-0.523-3.454,1.115-3.454,5.664V778.26z"/>
	<path fill-rule="evenodd" clip-rule="evenodd" fill="#28A8CC" d="M1185.311,598.824h29.499c4.554,0,6.187,1.283,5.669,3.454
		c-0.765,3.155-5.952,5.005-5.952,13.709c0,6.854,7.004,14.789,15.645,14.789c8.637,0,15.641-7.935,15.641-14.789
		c0-8.704-5.188-10.554-5.946-13.709c-0.524-2.171,1.114-3.454,5.663-3.454h29.498c0,9.833,0,19.666,0,29.498
		c0,4.549,1.287,6.188,3.454,5.664c3.156-0.759,5.01-5.947,13.714-5.947c6.855,0,14.79,7.003,14.79,15.641
		c0,8.642-7.935,15.646-14.79,15.646c-8.704,0-10.558-5.188-13.714-5.952c-2.167-0.52-3.454,1.114-3.454,5.668
		c0,9.833,0,19.666,0,29.498h-29.498c-4.549,0-6.188-1.287-5.663-3.453c0.759-3.156,5.946-5.005,5.946-13.709
		c0-6.855-7.004-14.795-15.641-14.795c-8.641,0-15.645,7.939-15.645,14.795c0,8.704,5.188,10.553,5.952,13.709
		c0.518,2.166-1.115,3.453-5.669,3.453h-29.499v-29.498c0-4.554-1.286-6.188-3.453-5.668c-3.156,0.764-5.006,5.952-13.714,5.952
		c-6.855,0-14.79-7.004-14.79-15.646c0-8.638,7.935-15.641,14.79-15.641c8.708,0,10.558,5.188,13.714,5.947
		c2.167,0.523,3.453-1.115,3.453-5.664V598.824z"/>
	<path fill-rule="evenodd" clip-rule="evenodd" fill="#F6573E" d="M1250.879,567.408c2.22,1.394,4.665,2.195,6.985,2.195
		c1.095,0,2.084-0.081,2.982-0.226c4.88,1.331,9.636,3.176,14.18,5.544v23.902c-9.833,0-19.666,0-29.498,0
		c-4.549,0-6.188,1.283-5.663,3.454c0.759,3.155,5.946,5.005,5.946,13.709c0,6.854-7.004,14.789-15.641,14.789
		c-8.641,0-15.645-7.935-15.645-14.789c0-8.704,5.188-10.554,5.952-13.709c0.518-2.171-1.115-3.454-5.669-3.454
		c-9.833,0-19.666,0-29.499,0v-5.289C1203.968,572.774,1228.202,564.604,1250.879,567.408L1250.879,567.408z"/>
	<path fill-rule="evenodd" clip-rule="evenodd" fill="#A8D51B" d="M1275.026,688.539v-29.498c0-4.554,1.287-6.188,3.454-5.668
		c3.156,0.764,5.01,5.952,13.714,5.952c6.855,0,14.79-7.004,14.79-15.646c0-8.638-7.935-15.641-14.79-15.641
		c-8.704,0-10.558,5.188-13.714,5.947c-2.167,0.523-3.454-1.115-3.454-5.664v-29.498h26.991
		c10.246,14.641,16.635,34.038,16.635,57.643c0,18.767-4.539,37.539-12.758,55.279c-1.058-1.96-1.648-4.045-1.648-6.039
		c0-8.708,5.188-10.558,5.947-13.714c0.523-2.166-1.114-3.454-5.664-3.454H1275.026z"/>
	<path fill-rule="evenodd" clip-rule="evenodd" fill="#F6E116" d="M1302.018,598.824h-26.991v-23.902
		C1285.397,580.315,1294.692,588.357,1302.018,598.824L1302.018,598.824z M1260.847,569.378c-0.898,0.145-1.888,0.226-2.982,0.226
		c-2.32,0-4.766-0.802-6.985-2.195C1254.247,567.822,1257.575,568.484,1260.847,569.378L1260.847,569.378z"/>
	<path fill-rule="evenodd" clip-rule="evenodd" fill="#28A8CC" d="M1185.311,778.26h29.499c4.554,0,6.187,1.283,5.669,3.454
		c-0.765,3.155-5.952,5.005-5.952,13.709c0,1.312,0.26,2.661,0.734,3.992c-9.573,4.38-19.584,8.021-29.95,10.798
		c-0.053-0.015-0.105-0.029-0.153-0.043c0.101-0.688,0.153-1.489,0.153-2.412V778.26z M1241.72,784.707
		c-0.87-1.053-1.605-1.951-1.854-2.993c-0.524-2.171,1.114-3.454,5.663-3.454h5.336
		C1247.892,780.484,1244.841,782.641,1241.72,784.707L1241.72,784.707z"/>
	<path fill-rule="evenodd" clip-rule="evenodd" fill="#F6573E" d="M1275.026,688.539v29.504c0,4.549-1.282,6.182-3.453,5.663
		c-3.156-0.759-5.006-5.951-13.709-5.951c-6.854,0-14.791,7.004-14.791,15.645c0,8.638,7.937,15.641,14.791,15.641
		c8.703,0,10.553-5.188,13.709-5.947c2.171-0.523,3.453,1.115,3.453,5.664v7.988c-7.319,7.743-15.414,14.958-24.162,21.515h-5.336
		c-4.549,0-6.188,1.283-5.663,3.454c0.249,1.042,0.984,1.94,1.854,2.993c-8.34,5.528-17.193,10.467-26.459,14.708
		c-0.475-1.331-0.734-2.681-0.734-3.992c0-8.704,5.188-10.554,5.952-13.709c0.518-2.171-1.115-3.454-5.669-3.454
		c-9.833,0-19.666,0-29.499,0v-29.503c0-4.549,1.288-6.188,3.454-5.664c3.156,0.76,5.006,5.947,13.709,5.947
		c6.854,0,14.795-7.003,14.795-15.641c0-8.641-7.94-15.645-14.795-15.645c-8.703,0-10.553,5.192-13.709,5.951
		c-2.166,0.519-3.454-1.114-3.454-5.663v-29.504h29.499c4.554,0,6.187-1.287,5.669-3.453c-0.765-3.156-5.952-5.005-5.952-13.709
		c0-6.855,7.004-14.795,15.645-14.795c8.637,0,15.641,7.939,15.641,14.795c0,8.704-5.188,10.553-5.946,13.709
		c-0.524,2.166,1.114,3.453,5.663,3.453H1275.026z"/>
	<path fill-rule="evenodd" clip-rule="evenodd" fill="#F6E116" d="M1275.026,756.745v-7.988c0-4.549-1.282-6.188-3.453-5.664
		c-3.156,0.76-5.006,5.947-13.709,5.947c-6.854,0-14.791-7.003-14.791-15.641c0-8.641,7.937-15.645,14.791-15.645
		c8.703,0,10.553,5.192,13.709,5.951c2.171,0.519,3.453-1.114,3.453-5.663c0-9.833,0-19.671,0-29.504h29.503
		c4.55,0,6.188,1.288,5.664,3.454c-0.759,3.156-5.947,5.006-5.947,13.714c0,1.994,0.591,4.079,1.648,6.039
		C1298.425,727.856,1287.925,743.113,1275.026,756.745L1275.026,756.745z"/>
</g>
<g>
	<path fill-rule="evenodd" clip-rule="evenodd" fill="#28A8CC" d="M147.766,622.126l21.837,21.842
		c3.372,3.367,3.631,5.528,1.638,6.749c-2.896,1.771-8.108-0.696-14.555,5.745c-5.072,5.077-5.764,16.136,0.629,22.533
		c6.398,6.394,17.456,5.701,22.533,0.629c6.441-6.446,3.973-11.658,5.745-14.554c1.22-1.994,3.382-1.735,6.749,1.633l21.842,21.841
		c-7.283,7.277-14.56,14.56-21.842,21.838c-3.367,3.372-3.627,5.532-1.638,6.753c2.901,1.773,8.113-0.701,14.559,5.745
		c5.073,5.073,5.764,16.136-0.634,22.529c-6.393,6.397-17.456,5.706-22.528,0.634c-6.446-6.446-3.973-11.658-5.745-14.56
		c-1.22-1.988-3.381-1.729-6.753,1.638c-7.278,7.282-14.56,14.56-21.837,21.842l-21.842-21.842
		c-3.367-3.367-3.626-5.528-1.632-6.749c2.896-1.772,8.108,0.696,14.554-5.745c5.073-5.076,5.764-16.135-0.629-22.533
		c-6.398-6.394-17.46-5.701-22.533-0.629c-6.442,6.446-3.973,11.658-5.745,14.554c-1.22,1.994-3.381,1.735-6.749-1.637
		l-21.841-21.838l21.841-21.841c3.368-3.368,3.627-5.529,1.633-6.749c-2.896-1.773-8.108,0.696-14.555-5.745
		c-5.072-5.073-5.764-16.136,0.629-22.529c6.398-6.397,17.46-5.706,22.533-0.634c6.442,6.446,3.973,11.658,5.745,14.555
		c1.22,1.993,3.382,1.734,6.749-1.633L147.766,622.126z"/>
	<path fill-rule="evenodd" clip-rule="evenodd" fill="#F6573E" d="M280.598,622.126l-21.836,21.842
		c-3.367,3.367-5.534,3.626-6.749,1.633c-1.777-2.896,0.696-8.108-5.75-14.555c-5.072-5.072-16.135-5.764-22.529,0.634
		c-6.393,6.394-5.706,17.456-0.628,22.529c6.441,6.441,11.653,3.972,14.554,5.745c1.989,1.22,1.729,3.381-1.638,6.749
		l-21.837,21.841c-7.283-7.281-14.56-14.559-21.842-21.841c-3.367-3.368-5.529-3.627-6.749-1.633
		c-1.772,2.896,0.696,8.107-5.745,14.554c-5.078,5.072-16.135,5.765-22.533-0.629c-6.394-6.397-5.702-17.456-0.629-22.533
		c6.446-6.441,11.659-3.974,14.555-5.745c1.993-1.221,1.734-3.382-1.638-6.749c-7.278-7.283-14.56-14.56-21.837-21.842
		l21.837-21.837c3.372-3.372,5.533-3.632,6.753-1.638c1.772,2.896-0.701,8.107,5.745,14.554c5.072,5.073,16.135,5.765,22.528-0.629
		c6.398-6.398,5.707-17.456,0.634-22.533c-6.446-6.441-11.658-3.973-14.559-5.745c-1.989-1.22-1.729-3.381,1.638-6.749
		l21.842-21.841l21.837,21.841c3.367,3.368,5.533,3.627,6.749,1.639c1.778-2.901-0.696-8.114,5.75-14.555
		c5.072-5.078,16.135-5.77,22.528,0.629c6.393,6.394,5.706,17.456,0.629,22.528c-6.441,6.446-11.653,3.973-14.554,5.745
		c-1.989,1.22-1.729,3.382,1.638,6.754L280.598,622.126z"/>
	<path fill-rule="evenodd" clip-rule="evenodd" fill="#A8D51B" d="M147.766,754.963l21.837-21.842
		c3.372-3.367,5.533-3.626,6.753-1.638c1.772,2.901-0.701,8.113,5.745,14.56c5.072,5.072,16.135,5.764,22.528-0.634
		c6.398-6.394,5.707-17.456,0.634-22.529c-6.446-6.446-11.658-3.972-14.559-5.745c-1.989-1.221-1.729-3.381,1.638-6.753
		l21.842-21.838c7.277,7.277,14.559,14.56,21.837,21.838c3.367,3.372,5.533,3.631,6.749,1.637c1.778-2.896-0.696-8.107,5.75-14.554
		c5.072-5.072,16.135-5.765,22.528,0.629c6.393,6.398,5.706,17.457,0.629,22.533c-6.441,6.441-11.653,3.973-14.554,5.745
		c-1.989,1.221-1.729,3.382,1.638,6.749c7.277,7.282,14.56,14.56,21.836,21.842L258.761,776.8c-3.367,3.367-5.534,3.627-6.749,1.638
		c-1.777-2.9,0.696-8.113-5.75-14.555c-5.072-5.072-16.135-5.765-22.529,0.63c-6.393,6.393-5.706,17.456-0.628,22.528
		c6.441,6.446,11.653,3.973,14.554,5.749c1.989,1.216,1.729,3.382-1.638,6.75l-21.837,21.837l-21.842-21.837
		c-3.367-3.368-5.529-3.627-6.749-1.639c-1.772,2.901,0.696,8.114-5.745,14.555c-5.078,5.077-16.135,5.77-22.533-0.629
		c-6.394-6.394-5.702-17.456-0.629-22.528c6.446-6.446,11.659-3.973,14.555-5.75c1.993-1.215,1.734-3.382-1.638-6.749
		L147.766,754.963z"/>
	<path fill-rule="evenodd" clip-rule="evenodd" fill="#F6E116" d="M280.598,754.963l-21.836-21.842
		c-3.367-3.367-3.626-5.528-1.638-6.749c2.901-1.772,8.113,0.696,14.554-5.745c5.077-5.076,5.764-16.135-0.629-22.533
		c-6.394-6.394-17.457-5.701-22.528-0.629c-6.447,6.446-3.973,11.658-5.75,14.554c-1.215,1.994-3.381,1.735-6.749-1.637
		l-21.837-21.838c7.277-7.281,14.559-14.559,21.837-21.841c3.367-3.368,3.626-5.529,1.638-6.749
		c-2.901-1.773-8.113,0.696-14.554-5.745c-5.078-5.073-5.765-16.136,0.628-22.529c6.394-6.397,17.457-5.706,22.529-0.634
		c6.446,6.446,3.973,11.658,5.75,14.555c1.215,1.993,3.382,1.734,6.749-1.633c7.277-7.283,14.56-14.56,21.836-21.842l21.842,21.842
		c3.368,3.367,3.627,5.528,1.638,6.749c-2.901,1.771-8.113-0.696-14.555,5.745c-5.077,5.077-5.769,16.136,0.629,22.533
		c6.393,6.394,17.456,5.701,22.529,0.629c6.446-6.446,3.972-11.658,5.745-14.554c1.22-1.994,3.381-1.735,6.753,1.633l21.837,21.841
		l-21.837,21.838c-3.372,3.372-3.631,5.532-1.638,6.753c2.896,1.773,8.108-0.701,14.555,5.745
		c5.073,5.073,5.765,16.136-0.629,22.529c-6.398,6.397-17.457,5.706-22.534,0.634c-6.441-6.446-3.972-11.658-5.745-14.56
		c-1.22-1.988-3.381-1.729-6.749,1.638L280.598,754.963z"/>
</g>
</svg>
