<svg height="482pt" viewBox="-3 0 482 482.146" width="482pt" xmlns="http://www.w3.org/2000/svg"><path d="m389.910156 304.660156h-359.671875c-16.660156 0-30.1640622-13.507812-30.1640622-30.164062v-244.332032c0-16.660156 13.5039062-30.164062 30.1640622-30.164062h359.667969c16.660156 0 30.164062 13.507812 30.164062 30.164062v244.328126c.003907 16.660156-13.503906 30.167968-30.160156 30.167968zm0 0" fill="#4671c6"/><path d="m384.792969 260.351562h-41.441407c-2.085937 0-3.777343-1.691406-3.777343-3.78125v-12.855468c0-2.085938 1.691406-3.777344 3.777343-3.777344h41.441407c2.089843 0 3.78125 1.691406 3.78125 3.777344v12.855468c0 2.085938-1.691407 3.78125-3.78125 3.78125zm0 0" fill="#ffc34c"/><path d="m384.792969 219.519531h-41.441407c-2.085937 0-3.777343-1.695312-3.777343-3.78125v-12.855469c0-2.089843 1.691406-3.78125 3.777343-3.78125h41.441407c2.089843 0 3.78125 1.691407 3.78125 3.78125v12.855469c0 2.085938-1.691407 3.78125-3.78125 3.78125zm0 0" fill="#a4c9ff"/><path d="m384.792969 178.683594h-41.441407c-2.085937 0-3.777343-1.691406-3.777343-3.78125v-12.855469c0-2.089844 1.691406-3.78125 3.777343-3.78125h41.441407c2.089843 0 3.78125 1.691406 3.78125 3.78125v12.855469c0 2.085937-1.691407 3.78125-3.78125 3.78125zm0 0" fill="#a4c9ff"/><path d="m384.792969 137.851562h-41.441407c-2.085937 0-3.777343-1.695312-3.777343-3.78125v-12.855468c0-2.089844 1.691406-3.78125 3.777343-3.78125h41.441407c2.089843 0 3.78125 1.691406 3.78125 3.78125v12.855468c0 2.085938-1.691407 3.78125-3.78125 3.78125zm0 0" fill="#a4c9ff"/><path d="m283.671875 31.867188h-45.53125v240.921874h45.535156c13.476563 0 24.398438-12.851562 24.398438-28.703124v-183.515626c0-15.851562-10.925781-28.703124-24.402344-28.703124zm0 0" fill="#e0ebfc"/><path d="m168.207031 31.867188h69.933594v240.921874h-69.933594zm0 0" fill="#6bdddd"/><path d="m98.273438 31.867188h69.933593v240.921874h-69.933593zm0 0" fill="#ffea92"/><path d="m52.472656 31.867188c-13.476562 0-24.398437 12.851562-24.398437 28.703124v183.519532c0 15.851562 10.921875 28.699218 24.398437 28.699218h45.535156v-240.921874zm0 0" fill="#f9a7a7"/><path d="m384.792969 260.351562h-41.441407c-2.085937 0-3.777343-1.691406-3.777343-3.78125v-12.855468c0-2.085938 1.691406-3.777344 3.777343-3.777344h41.441407c2.089843 0 3.78125 1.691406 3.78125 3.777344v12.855468c0 2.085938-1.691407 3.78125-3.78125 3.78125zm0 0" fill="#a4c9ff"/><path d="m392.019531 67.472656c0 15.433594-12.511719 27.945313-27.945312 27.945313-15.433594 0-27.945313-12.511719-27.945313-27.945313s12.511719-27.945312 27.945313-27.945312c15.433593 0 27.945312 12.511718 27.945312 27.945312zm0 0" fill="#a4c9ff"/><path d="m126.367188 403.777344h14.378906c.03125-.003906.0625-.007813.089844-.007813l.007812.007813h94.566406c24.984375 0 45.238282 20.25 45.238282 45.234375v29.132812h-199.515626v-29.132812c0-24.984375 20.253907-45.234375 45.234376-45.234375zm0 0" fill="#a4c9ff"/><path d="m180.890625 393.367188c14.492187 0 28.171875-3.445313 40.246094-9.558594v18.277344c0 .636718-.089844 1.261718-.222657 1.875-.003906 0-.007812 0-.011718 0-.132813.613281-.328125 1.210937-.578125 1.78125-.035157.078124-.066407.152343-.101563.226562-.109375.238281-.230468.464844-.363281.6875-.128906.21875-.269531.429688-.417969.632812-.082031.113282-.148437.230469-.234375.339844l-5.714843 7.265625c-5.695313 7.238281-13.589844 12.484375-22.527344 14.574219-1.199219.28125-2.445313.523438-3.730469.71875-14.511719 2.175781-29.027344-4.003906-38.050781-15.644531l-8.332032-10.753907c-.113281-.574218-.191406-1.160156-.191406-1.753906v-18.214844c12.074219 6.105469 25.746094 9.546876 40.230469 9.546876zm0 0" fill="#f9cfcf"/><path d="m91.632812 272.03125c.1875 0 .371094.023438.558594.027344v-8.304688c0-48.546875 39.710938-87.902344 88.699219-87.902344s88.695313 39.355469 88.695313 87.902344v8.304688c.1875-.003906.375-.027344.5625-.027344 14.945312 0 27.058593 12.003906 27.058593 26.816406 0 14.808594-12.117187 26.8125-27.058593 26.8125-.984376 0-1.949219-.054687-2.90625-.15625-9.152344 38.882813-44.328126 67.863282-86.355469 67.863282-42.027344 0-77.203125-28.976563-86.355469-67.863282-.953125.097656-1.921875.15625-2.902344.15625-14.949218 0-27.0625-12.003906-27.0625-26.8125.003906-14.8125 12.117188-26.816406 27.066406-26.816406zm0 0" fill="#f9cfcf"/><path d="m180.890625 397.367188c-42.179687 0-78.480469-27.671876-89.425781-67.707032-17.050782-.085937-30.894532-13.875-30.894532-30.816406 0-15.839844 12.105469-28.925781 27.621094-30.628906v-4.460938c0-50.675781 41.582032-91.898437 92.699219-91.898437s92.699219 41.222656 92.699219 91.898437v4.460938c15.515625 1.707031 27.625 14.792968 27.625 30.628906 0 16.941406-13.847656 30.730469-30.898438 30.816406-10.949218 40.035156-47.25 67.707032-89.425781 67.707032zm-86.351563-75.863282c1.832032 0 3.460938 1.261719 3.890626 3.085938 8.976562 38.136718 42.882812 64.777344 82.460937 64.777344 39.574219 0 73.480469-26.636719 82.457031-64.777344.464844-1.964844 2.316406-3.242188 4.320313-3.0625.871093.09375 1.679687.136718 2.480469.136718 12.710937 0 23.058593-10.234374 23.058593-22.816406 0-12.582031-10.347656-22.816406-23.058593-22.816406-.167969.015625-.320313.023438-.476563.027344-1.164063-.039063-2.117187-.390625-2.882813-1.140625-.769531-.753907-1.203124-1.78125-1.203124-2.859375v-8.304688c0-46.261718-37.996094-83.898437-84.699219-83.898437s-84.699219 37.636719-84.699219 83.898437v8.304688c0 1.078125-.433594 2.105468-1.203125 2.859375-.746094.730469-1.753906 1.140625-2.796875 1.140625-.027344 0-.054688 0-.085938 0-.15625-.003906-.308593-.011719-.464843-.023438l-.007813-.003906c-12.714844 0-23.0625 10.234375-23.0625 22.816406 0 12.582032 10.347656 22.816406 23.0625 22.816406.796875 0 1.609375-.042968 2.476563-.136718.148437-.015625.292969-.023438.433593-.023438zm0 0" fill="#3762cc"/><path d="m280.644531 482.144531h-199.507812c-2.210938 0-4-1.789062-4-4v-29.132812c0-27.148438 22.085937-49.234375 49.230469-49.234375h10.296874v-15.957032c0-1.386718.71875-2.679687 1.902344-3.410156 1.183594-.722656 2.660156-.789062 3.902344-.160156 11.960938 6.050781 24.890625 9.117188 38.421875 9.117188 13.535156 0 26.46875-3.070313 38.441406-9.125 1.242188-.628907 2.714844-.566407 3.902344.160156 1.183594.726562 1.902344 2.019531 1.902344 3.40625v15.96875h10.273437c27.148438 0 49.234375 22.085937 49.234375 49.234375v29.132812c0 2.210938-1.789062 4-4 4zm-195.507812-8h191.511719v-25.132812c0-22.738281-18.5-41.234375-41.234376-41.234375h-14.464843c-1.195313 0-2.328125-.539063-3.089844-1.460938-.757813-.925781-1.0625-2.136718-.832031-3.3125.074218-.394531.113281-.6875.113281-.914062v-12.015625c-11.445313 4.84375-23.609375 7.292969-36.246094 7.292969-12.632812 0-24.792969-2.445313-36.226562-7.285157v11.953125c0 .265625.035156.578125.113281.960938.230469 1.175781-.070312 2.390625-.832031 3.316406-.773438.941406-1.949219 1.472656-3.148438 1.460938-.019531 0-.035156 0-.050781 0h-14.375c-22.734375 0-41.234375 18.5-41.234375 41.238281v25.132812zm0 0" fill="#3762cc"/><g fill="#4671c6"><path d="m117.261719 250.625h-45.828125c-3.339844 0-6.046875-2.710938-6.046875-6.046875v-33.707031c0-38.402344 31.128906-69.53125 69.53125-69.53125h2.835937c10.019532 0 18.140625 8.121094 18.140625 18.136718v52.515626c0 21.335937-17.296875 38.632812-38.632812 38.632812zm0 0"/><path d="m210.0625 250.625h79.71875c3.355469 0 6.070312-2.71875 6.070312-6.070312v-27.734376c0-41.6875-33.792968-75.480468-75.480468-75.480468h-46.539063c-10.003906 0-18.117187 8.109375-18.117187 18.117187v36.820313c.003906 30.015625 24.335937 54.347656 54.347656 54.347656zm0 0"/><path d="m205.449219 360.511719h-49.683594c-45.164063 0-81.773437-36.613281-81.773437-81.773438v-44.179687c0-45.164063 36.609374-81.773438 81.773437-81.773438h49.683594c45.164062 0 81.773437 36.613282 81.773437 81.773438v44.179687c0 45.160157-36.613281 81.773438-81.773437 81.773438zm0 0"/></g><path d="m205.449219 364.511719h-49.683594c-47.296875 0-85.777344-38.476563-85.777344-85.773438v-24.214843c-4.855469-.703126-8.601562-4.894532-8.601562-9.945313v-33.707031c0-40.546875 32.984375-73.53125 73.53125-73.53125h2.835937c7.320313 0 13.960938 3.53125 18.042969 9.308594 4.078125-5.777344 10.714844-9.308594 18.035156-9.308594h46.539063c43.828125 0 79.484375 35.652344 79.484375 79.480468v27.730469c0 5.066407-3.757813 9.269531-8.628907 9.96875v24.214844c-.003906 47.296875-38.480468 85.777344-85.777343 85.777344zm-70.53125-219.167969c-36.132813 0-65.53125 29.394531-65.53125 65.527344v33.707031c0 1.128906.917969 2.046875 2.042969 2.046875h2.558593c2.207031 0 4 1.792969 4 4v28.113281c0 42.886719 34.890625 77.777344 77.773438 77.777344h49.683593c42.886719 0 77.777344-34.890625 77.777344-77.777344v-28.113281c0-2.207031 1.792969-4 4-4h2.558594c1.140625 0 2.070312-.929688 2.070312-2.070312v-27.730469c0-39.414063-32.066406-71.480469-71.480468-71.480469h-46.539063c-5.816406 0-10.964843 3.5-13.113281 8.917969-.605469 1.523437-2.078125 2.523437-3.71875 2.523437l-2.347656.03125c-.011719 0-.027344 0-.042969 0-1.636719 0-3.113281-1-3.714844-2.527344-2.152343-5.433593-7.3125-8.945312-13.140625-8.945312zm0 0" fill="#3762cc"/><path d="m446.789062 318.503906h-94.292968l-51.414063-19.699218c-2.609375-1-5.171875 1.5625-4.171875 4.171874l20.679688 53.988282v90.734375c0 14.269531 11.570312 25.839843 25.839844 25.839843h103.359374c14.273438 0 25.84375-11.570312 25.84375-25.839843v-103.359375c0-14.269532-11.570312-25.835938-25.84375-25.835938zm0 0" fill="#ffea92"/><path d="m446.789062 477.542969h-103.359374c-16.453126 0-29.839844-13.386719-29.839844-29.839844v-89.996094l-20.417969-53.300781c-1.035156-2.703125-.40625-5.648438 1.640625-7.699219 2.046875-2.042969 4.996094-2.671875 7.699219-1.636719l50.726562 19.433594h93.550781c16.453126 0 29.839844 13.382813 29.839844 29.839844v103.359375c.003906 16.453125-13.386718 29.839844-29.839844 29.839844zm-145.527343-174.386719 20.0625 52.378906c.175781.457032.265625.941406.265625 1.429688v90.738281c0 12.039063 9.796875 21.839844 21.839844 21.839844h103.359374c12.042969 0 21.84375-9.796875 21.84375-21.839844v-103.363281c0-12.042969-9.796874-21.839844-21.84375-21.839844h-94.289062c-.488281 0-.976562-.089844-1.433594-.265625zm0 0" fill="#3762cc"/><path d="m443.429688 345.652344h-18.46875v103.335937h18.46875c5.46875 0 9.898437-5.511719 9.898437-12.308593v-78.714844c0-6.800782-4.429687-12.3125-9.898437-12.3125zm0 0" fill="#e0ebfc"/><path d="m396.585938 345.652344h28.375v103.335937h-28.375zm0 0" fill="#4671c6"/><path d="m368.21875 345.652344h28.367188v103.335937h-28.367188zm0 0" fill="#e0ebfc"/><path d="m349.636719 345.652344c-5.46875 0-9.898438 5.511718-9.898438 12.3125v78.710937c0 6.796875 4.429688 12.308594 9.898438 12.308594h18.46875v-103.332031zm0 0" fill="#4671c6"/></svg>