<?xml version="1.0" encoding="iso-8859-1"?>
<!-- Generator: Adobe Illustrator 19.0.0, SVG Export Plug-In . SVG Version: 6.00 Build 0)  -->
<svg version="1.1" id="Capa_1" xmlns="http://www.w3.org/2000/svg" xmlns:xlink="http://www.w3.org/1999/xlink" x="0px" y="0px"
	 viewBox="0 0 512 512" style="enable-background:new 0 0 512 512;" xml:space="preserve">
<g>
	<g>
		<path d="M400.849,199.112l6.513-24.847c9.24-28.221,4.59-58.196-12.792-82.312c-15.608-21.655-38.944-35.065-65.045-37.692
			L307.949,11.11H204.051l-21.576,43.153c-26.101,2.626-49.436,16.036-65.045,37.692c-17.382,24.115-22.032,54.089-12.792,82.312
			l6.51,24.845c-12.796,23.808-19.52,50.458-19.52,77.729c0,38.392,13.506,75.702,38.035,105.149L128.87,500.89h254.259
			l-0.798-119.533c0.833-0.727,1.326-1.197,1.482-1.348l0.712-0.692l0.616-0.78c23.046-29.23,35.228-64.396,35.228-101.696
			C420.369,249.569,413.645,222.92,400.849,199.112z M271.004,470.883v-23.338h-30.007v23.338H159.08l0.465-69.658
			c20.215,9.226,51.785,18.646,96.457,18.646c43.584,0,75.433-9.869,96.449-19.794l0.471,70.805H271.004z M362.335,358.988
			c-2.091,1.792-9.929,8.084-23.696,14.451c-16.201,7.493-43.688,16.425-82.639,16.425c-38.081,0-64.423-7.642-79.815-14.053
			c-14.101-5.873-21.82-11.806-23.844-13.477c-19.809-23.992-30.705-54.307-30.705-85.495c0-50.975,28.283-96.946,73.814-119.975
			l-13.543-26.776c-18.261,9.236-34.571,21.771-48.159,36.885l-0.201-0.768l-0.28-0.941c-6.367-19.102-3.268-39.427,8.506-55.763
			c11.774-16.336,30.076-25.705,50.212-25.705h9.273l21.338-42.677h66.807l21.339,42.677h9.272c20.137,0,38.438,9.369,50.211,25.704
			c11.775,16.336,14.874,36.66,8.507,55.763l-0.155,0.466l-0.326,1.243c-13.588-15.114-29.898-27.648-48.159-36.885l-13.543,26.776
			c45.531,23.03,73.815,69.003,73.815,119.977C390.363,306.92,380.676,335.297,362.335,358.988z"/>
	</g>
</g>
<g>
	<g>
		<polygon points="21.218,221.051 0,242.268 31.902,274.172 0,306.075 21.218,327.293 74.339,274.172 		"/>
	</g>
</g>
<g>
	<g>
		<polygon points="512,242.268 490.782,221.051 437.661,274.172 490.782,327.293 512,306.075 480.098,274.172 		"/>
	</g>
</g>
<g>
	<g>
		<polygon points="240.997,293.843 240.997,308.846 240.997,323.85 271.003,323.85 271.003,293.843 		"/>
	</g>
</g>
<g>
</g>
<g>
</g>
<g>
</g>
<g>
</g>
<g>
</g>
<g>
</g>
<g>
</g>
<g>
</g>
<g>
</g>
<g>
</g>
<g>
</g>
<g>
</g>
<g>
</g>
<g>
</g>
<g>
</g>
</svg>
