<?xml version="1.0" encoding="iso-8859-1"?>
<!-- Generator: Adobe Illustrator 16.0.0, SVG Export Plug-In . SVG Version: 6.00 Build 0)  -->
<!DOCTYPE svg PUBLIC "-//W3C//DTD SVG 1.1//EN" "http://www.w3.org/Graphics/SVG/1.1/DTD/svg11.dtd">
<svg version="1.1" id="Capa_1" xmlns="http://www.w3.org/2000/svg" xmlns:xlink="http://www.w3.org/1999/xlink" x="0px" y="0px"
	 width="564.163px" height="564.163px" viewBox="0 0 564.163 564.163" style="enable-background:new 0 0 564.163 564.163;"
	 xml:space="preserve">
<g>
	<g>
		<circle cx="191.133" cy="87.96" r="29.328"/>
		<circle cx="299.643" cy="47.09" r="47.09"/>
		<path d="M401.914,221.166l-4.943-23.863l-11.49-55.467c0,0-5.379-25.412-28.209-25.412c-27.611,0-41.797,0-46.195,0
			c-4.4,0-9.859-13.698-13.512-13.698c-3.654,0-37.142,0-50.773,0s-17.939,3.815-17.939,3.815l-2.127,1.721l-38.36,31.068
			c0,0-1.497,1.339-3.036,4.021c-1.649,2.869-3.352,7.272-3.352,13.359c0,11.776,0,24.638,0,36.567
			c0,48.343,39.153,54.54,39.153,54.54s2.099,0,5.728,0c0.077,0.349,0.091,0.717-0.009,1.1l-27.646,106.98
			c-0.349,1.358,0.502,2.458,1.908,2.458h34.052c1.406,0,2.539,1.138,2.539,2.539v175.333c0,1.405-0.015,2.62-0.02,2.721
			c-0.004,0.062-0.004,0.124-0.004,0.182c0,13.842,11.221,25.034,25.058,25.034c13.842,0,24.513-11.235,24.513-25.072
			c0-1.788,0-3.543,0-5.227v-174.42c0-1.405,1.139-2.495,2.539-2.438l8.898,0.35c1.4,0.053,2.539,1.238,2.539,2.639v176.237
			c0,1.405,0.01,2.62,0.02,2.721c0.008,0.101,0.023,0.382,0.027,0.636c0.006,0.196,0.01,0.392,0.01,0.454
			c0,13.842,10.4,24.121,24.24,24.121c13.842,0,25.432-11.235,25.432-25.072c0-1.788-0.182-3.543-0.182-5.227V361.099
			c0-1.405,1.139-2.582,2.539-2.63l25.943-0.922c1.4-0.048,2.338-1.21,2.09-2.592l-19.191-107.138c2.562,0,4.881,0,6.879,0
			C408.723,247.817,401.914,221.166,401.914,221.166z"/>
	</g>
</g>
<g>
</g>
<g>
</g>
<g>
</g>
<g>
</g>
<g>
</g>
<g>
</g>
<g>
</g>
<g>
</g>
<g>
</g>
<g>
</g>
<g>
</g>
<g>
</g>
<g>
</g>
<g>
</g>
<g>
</g>
</svg>
