<?xml version="1.0" encoding="iso-8859-1"?>
<!-- Generator: Adobe Illustrator 18.1.1, SVG Export Plug-In . SVG Version: 6.00 Build 0)  -->
<svg version="1.1" id="Capa_1" xmlns="http://www.w3.org/2000/svg" xmlns:xlink="http://www.w3.org/1999/xlink" x="0px" y="0px"
	 viewBox="0 0 299.605 299.605" style="enable-background:new 0 0 299.605 299.605;" xml:space="preserve">
<g>
	<g>
		<path style="fill:#010002;" d="M53.248,101.384l-0.479,7.386l27.146,1.757l0.054-0.892L55.756,85.421
			C54.478,90.604,53.602,95.929,53.248,101.384z"/>
	</g>
	<g>
		<path style="fill:#010002;" d="M134.16,39.792c10.106-3.437,20.304-5.183,30.317-5.183c18.52,0,34.56,6.162,44.029,16.905
			c16.687,18.993,14.555,52.721-6.01,95.02c-3.9,5.51-7.223,11.275-10.34,17.106l20.168,20.163
			c3.873-7.968,8.142-15.735,13.277-22.86l0.821-1.42c33.548-68.282,19.874-106.181,2.491-125.958
			c-14.588-16.578-38.139-26.097-64.616-26.097c-12.983,0-26.059,2.219-38.895,6.587c-20.424,6.957-37.421,18.487-49.822,33.026
			l19.33,19.33C105.453,53.417,120.192,44.551,134.16,39.792z"/>
	</g>
	<g>
		<path style="fill:#010002;" d="M96.217,264.866c-4.319-3.421-5.668-7.658-7.473-13.298c-2.812-8.773-8.039-25.09-31.933-25.09
			h-0.005h-7.484l0.223,19.853l0.778,7.49l7.484-0.163c1.974-0.016,2.785,0.196,2.779,0.163c0.566,0.74,1.49,3.628,2.208,5.863
			c8.518,29.306,22.947,32.471,28.767,32.471l1.126-0.033l2.812,0.016l0,0c61.848,0,83.642-33.635,99.067-67.901l-20.674-20.679
			C159.125,237.589,144.423,263.539,96.217,264.866z"/>
	</g>
	<g>
		<path style="fill:#010002;" d="M157.863,89.647c2.181,0,4.335,0.087,6.364,0.163c1.942,0.071,3.791,0.136,5.466,0.136
			c3.383,0,13.696,0,14.8-9.007c0.245-1.838-0.065-4.672-2.779-7.751c-5.504-6.211-21.049-12.863-35.457-12.863
			c-11.346,0-20.228,4.003-25.71,11.585c-2.894,3.992-4.705,8.898-5.51,14.631l20.647,20.641c0.114-2.306,0.354-4.721,0.908-7.419
			C139.507,92.491,145.522,89.647,157.863,89.647z"/>
	</g>
	<g>
		<path style="fill:#010002;" d="M129.069,166.104c-0.473-0.277-1.066-0.642-1.784-1.159c-12.107-8.648-25.156-4.378-32.526,10.356
			c-5.27,10.541-7.647,26.325-2.056,33.76c8.289,9.671,16.823,11.694,22.523,11.694c8.887,0,17.933-4.846,25.477-13.625
			c5.929-6.913,10.274-15.442,12.678-24.111l-24.65-24.639C129.134,161.714,129.276,164.407,129.069,166.104z"/>
	</g>
	<path style="fill:#010002;" d="M299.605,287.971l-11.634,11.634L0,11.634L11.634,0L299.605,287.971z"/>
</g>
<g>
</g>
<g>
</g>
<g>
</g>
<g>
</g>
<g>
</g>
<g>
</g>
<g>
</g>
<g>
</g>
<g>
</g>
<g>
</g>
<g>
</g>
<g>
</g>
<g>
</g>
<g>
</g>
<g>
</g>
</svg>
