<svg id="Logotipo_Bytebank" data-name="Logotipo Bytebank" xmlns="http://www.w3.org/2000/svg" viewBox="0 0 187.086 145.496">
  <defs>
    <style>
      .cls-1 {
        fill: #fff;
      }
    </style>
  </defs>
  <g id="Group_1" data-name="Group 1" transform="translate(52.045)">
    <rect id="Rectangle_1" data-name="Rectangle 1" class="cls-1" width="41.199" height="42.213" transform="translate(0 0.182)"/>
    <rect id="Rectangle_2" data-name="Rectangle 2" class="cls-1" width="20.677" height="20.677" transform="translate(20.521 42.239)"/>
    <rect id="Rectangle_3" data-name="Rectangle 3" class="cls-1" width="20.677" height="20.677" transform="translate(62.318)"/>
    <rect id="Rectangle_4" data-name="Rectangle 4" class="cls-1" width="21.406" height="21.406" transform="translate(41.043 63.047)"/>
    <rect id="Rectangle_5" data-name="Rectangle 5" class="cls-1" width="20.964" height="20.964" transform="translate(41.199 20.99)"/>
  </g>
  <g id="Group_2" data-name="Group 2" transform="translate(0 105.858)">
    <path id="Path_1" data-name="Path 1" class="cls-1" d="M0,437.961l4.24-30.223c2.367-.234,5.67-.338,9.884-.338,3.719,0,6.268.572,7.7,1.743s1.925,3.277,1.483,6.294a9.552,9.552,0,0,1-1.873,4.916,5.858,5.858,0,0,1-4.162,1.873l-.052.208c4.031.312,5.67,3.043,4.916,8.141-.468,3.043-1.457,5.072-2.965,6.138-1.509,1.04-4.031,1.587-7.543,1.587C6.528,438.3,2.653,438.169,0,437.961Zm4.76-3.433,6.216.052c2.393,0,4.083-.338,5.046-1.04q1.444-1.014,1.873-4.057c.286-2.159.078-3.615-.676-4.344-.754-.754-2.289-1.118-4.656-1.17H6.268Zm1.977-13.915h6.034c2.107,0,3.615-.338,4.526-1.04a5.868,5.868,0,0,0,1.821-3.927c.26-1.847.026-3.043-.7-3.641-.728-.572-2.237-.884-4.5-.884H8.063Z" transform="translate(0 -407.296)"/>
    <path id="Path_2" data-name="Path 2" class="cls-1" d="M119.17,442.7h4.422a73.224,73.224,0,0,1-6.164,17.634c-2.289,4.318-4.526,7.387-6.762,9.207a17.048,17.048,0,0,1-7.985,3.511l-.78-3.017a16.087,16.087,0,0,0,4.916-1.977,15.28,15.28,0,0,0,4.031-3.979h-1.977a2.712,2.712,0,0,1-1.717-.546,2.415,2.415,0,0,1-.884-1.509l-4.109-19.3h4.448l3.251,17.3a.818.818,0,0,0,.884.754h2.133c.1-.208.286-.494.494-.91.208-.39.338-.65.39-.754A67.086,67.086,0,0,0,119.17,442.7Z" transform="translate(-75.396 -433.415)"/>
    <path id="Path_3" data-name="Path 3" class="cls-1" d="M205.215,428.145l-1.717,11.99a2.553,2.553,0,0,0,.286,2.081,2.786,2.786,0,0,0,2.029.546h3.2l.182,3.277a17.558,17.558,0,0,1-4.994.572,4.849,4.849,0,0,1-4.083-1.587,5.792,5.792,0,0,1-.858-4.5L201,428.146h-3.9l.39-3.069,3.979-.208.91-6.268h4.162l-.884,6.268h6.58l-.442,3.277h-6.58Z" transform="translate(-145.836 -415.583)"/>
    <path id="Path_4" data-name="Path 4" class="cls-1" d="M285.026,458.815l.26,2.835a25.114,25.114,0,0,1-8.791,1.222c-3.641,0-6.164-.962-7.569-2.861s-1.847-4.89-1.326-8.921c.546-4.109,1.691-6.918,3.381-8.427q2.575-2.263,8.427-2.263c3.329,0,5.592.572,6.788,1.743s1.639,2.887,1.326,5.176a6.6,6.6,0,0,1-2.445,4.5,11.9,11.9,0,0,1-5.9,1.691l-7.387.65c-.026,2,.39,3.381,1.274,4.084a6.371,6.371,0,0,0,4.109,1.066A66.4,66.4,0,0,0,285.026,458.815Zm-13-7.777,7.127-.65a5.189,5.189,0,0,0,2.939-.858,3.668,3.668,0,0,0,1.17-2.523c.182-1.378-.052-2.211-.676-2.549a9.888,9.888,0,0,0-3.823-.494c-2.211,0-3.8.468-4.708,1.379Q272.685,446.746,272.022,451.038Z" transform="translate(-197.843 -431.713)"/>
    <path id="Path_5" data-name="Path 5" class="cls-1" d="M365.449,407.3l-1.17,8.843a23.673,23.673,0,0,1-1.144,4.916,21.65,21.65,0,0,1,4.63-3.537,9.531,9.531,0,0,1,4.656-1.457,6.863,6.863,0,0,1,3.9.936,5.542,5.542,0,0,1,1.925,3.511,19.126,19.126,0,0,1-.182,7.023,26.393,26.393,0,0,1-1.353,5.852,7.364,7.364,0,0,1-5.124,4.812,16.329,16.329,0,0,1-3.719.338,37.891,37.891,0,0,1-10.768-1.587l4.162-29.651Zm-2.393,17.088L361.6,434.9c2.107.078,3.667.13,4.682.13q4.174,0,5.462-1.327c.884-.884,1.535-3.043,2-6.45.416-3.173.442-5.228.13-6.138s-1.144-1.352-2.5-1.352C369.324,419.733,366.541,421.293,363.056,424.388Z" transform="translate(-264.221 -407.222)"/>
    <path id="Path_6" data-name="Path 6" class="cls-1" d="M469.748,462.7h-3.329l.182-3.927a11.844,11.844,0,0,1-9.207,4.474c-2.6,0-4.344-.858-5.254-2.549s-1.066-4.682-.494-8.921a26.213,26.213,0,0,1,1.352-5.8,7.349,7.349,0,0,1,2.315-3.355,7.874,7.874,0,0,1,2.965-1.457,16.606,16.606,0,0,1,3.953-.364,49.322,49.322,0,0,1,10.456,1.144Zm-3.2-7.7,1.535-10.586c-2.679-.052-4.187-.078-4.5-.078a22.544,22.544,0,0,0-3.459.208,4,4,0,0,0-2.081,1.118,5.382,5.382,0,0,0-1.326,2.289,29.993,29.993,0,0,0-.806,4.109c-.416,3.173-.468,5.228-.156,6.138s1.144,1.353,2.523,1.353a7.737,7.737,0,0,0,3.953-1.118A25.15,25.15,0,0,0,466.549,455Z" transform="translate(-333.927 -432.009)"/>
    <path id="Path_7" data-name="Path 7" class="cls-1" d="M551.8,441.072l-.208,4.6c3.849-3.433,7.231-5.176,10.118-5.176a4.688,4.688,0,0,1,5.072,6.008l-2.289,15.944h-4.214l2.055-14.877a4.659,4.659,0,0,0-.156-2.731c-.286-.494-.884-.728-1.821-.728a7.673,7.673,0,0,0-3.745,1.092,42.151,42.151,0,0,0-5.1,3.589l-1.873,13.655H545.4l3.017-21.354H551.8Z" transform="translate(-403.545 -431.787)"/>
    <path id="Path_8" data-name="Path 8" class="cls-1" d="M656.134,416.285h4.344a18.317,18.317,0,0,1-7.1,9.493,16.288,16.288,0,0,1,1.326,2.549l4.162,9.337h-4.552l-4.135-9.858c-1.326.7-3.017,1.509-5.072,2.445l-1.092,7.387H639.8L644.092,407h4.24l-1.925,14.357a24.6,24.6,0,0,1-1.4,5.254,31.467,31.467,0,0,0,7.2-4.63A11.809,11.809,0,0,0,656.134,416.285Z" transform="translate(-473.392 -407)"/>
  </g>
</svg>
