<svg id="Casa" xmlns="http://www.w3.org/2000/svg" viewBox="0 0 29.297 30.469">
  <defs>
    <style>
      .cls-1 {
        fill: rgba(51,51,51,0.8);
      }
    </style>
  </defs>
  <g id="Vector_6">
    <path id="Path_28" data-name="Path 28" class="cls-1" d="M28.886,15.286,15.723.4a1.212,1.212,0,0,0-1.8,0L.33,15.367A1.286,1.286,0,0,0,.1,16.73a1.233,1.233,0,0,0,1.13.758H4.727V28.305a2.111,2.111,0,0,0,2.08,2.164H9.3a1.426,1.426,0,0,0,1.408-1.442V23.618a1.426,1.426,0,0,1,1.408-1.442h4.929a1.426,1.426,0,0,1,1.408,1.442v5.409a1.426,1.426,0,0,0,1.408,1.442H22.3a2.167,2.167,0,0,0,2.146-2.164V17.488h3.619A1.247,1.247,0,0,0,29.3,16.226,1.275,1.275,0,0,0,28.886,15.286Z" transform="translate(0)"/>
  </g>
</svg>
