<svg id="Comida" xmlns="http://www.w3.org/2000/svg" viewBox="0 0 17.578 31.641">
  <defs>
    <style>
      .cls-1 {
        fill: rgba(51,51,51,0.8);
      }
    </style>
  </defs>
  <g id="Vector_3">
    <path id="Path_18" data-name="Path 18" class="cls-1" d="M8.145,10.328a2.294,2.294,0,0,1-2.274,2.123V29.789a1.775,1.775,0,1,1-3.546,0V12.452A2.256,2.256,0,0,1,0,10.184V.63A.637.637,0,1,1,1.272.662v7.06H2.325V.6A.611.611,0,0,1,3.547.63V7.722H4.632V.613A.6.6,0,1,1,5.82.646V7.722H6.906V.613A.62.62,0,1,1,8.145.646v9.682Z" transform="translate(0 0)"/>
  </g>
  <g id="Vector_4" transform="translate(12.149 0.013)">
    <path id="Path_19" data-name="Path 19" class="cls-1" d="M5.429,2.837v26.94a1.773,1.773,0,1,1-3.546,0v-10.7H0V2.837A2.717,2.717,0,1,1,5.429,2.837Z" transform="translate(0 0)"/>
  </g>
</svg>
