<svg xmlns="http://www.w3.org/2000/svg" viewBox="0 0 26 14">
  <defs>
    <style>
      .cls-1 {
        fill: #929292;
        fill-rule: evenodd;
      }
    </style>
  </defs>
  <g id="Icone_olho" data-name="Icone olho" transform="translate(-3 -9)">
    <path id="eye" class="cls-1" d="M16,9A15.361,15.361,0,0,0,3,16a15.361,15.361,0,0,0,13,7,15.361,15.361,0,0,0,13-7A15.361,15.361,0,0,0,16,9Zm0,1A14.41,14.41,0,0,0,4.2,16,14.41,14.41,0,0,0,16,22a14.41,14.41,0,0,0,11.8-6A14.41,14.41,0,0,0,16,10Zm0,10a4,4,0,1,0-4-4,4,4,0,0,0,4,4Zm0-1a3,3,0,1,0-3-3,3,3,0,0,0,3,3Zm0-2a1,1,0,1,0-1-1,1,1,0,0,0,1,1Z"/>
  </g>
</svg>
