<svg id="Salario" xmlns="http://www.w3.org/2000/svg" viewBox="0 0 36.328 22.266">
  <defs>
    <style>
      .cls-1 {
        fill: rgba(51,51,51,0.8);
      }

      .cls-2 {
        fill: #fff;
      }

      .cls-3 {
        fill: none;
        stroke: #fff;
        stroke-width: 2px;
      }

      .cls-4 {
        fill: #5c5c5c;
      }
    </style>
  </defs>
  <g id="Rectangle_15" data-name="Rectangle 15">
    <rect id="Rectangle_36" data-name="Rectangle 36" class="cls-1" width="36.328" height="22.266" rx="2"/>
  </g>
  <g id="Ellipse_3" data-name="Ellipse 3" transform="translate(8.807 2.111)">
    <ellipse id="Ellipse_1" data-name="Ellipse 1" class="cls-2" cx="8.807" cy="9.012" rx="8.807" ry="9.012" transform="translate(0 0)"/>
    <g id="Group_3" data-name="Group 3" transform="translate(0 0)">
      <ellipse id="Ellipse_2" data-name="Ellipse 2" class="cls-3" cx="8.807" cy="9.012" rx="8.807" ry="9.012" transform="translate(0 0)"/>
    </g>
  </g>
  <g id="_" data-name="$" transform="translate(13.632 4.44)">
    <path id="Path_32" data-name="Path 32" class="cls-4" d="M3.861,16.571V15.129A5.444,5.444,0,0,1,2.1,14.649a3.137,3.137,0,0,1-1.17-1.13,4.057,4.057,0,0,1-.569-1.9l1.45-.272A3.657,3.657,0,0,0,2.4,13.055a2.1,2.1,0,0,0,1.458.857V9.322a6.023,6.023,0,0,1-1.818-.689A2.691,2.691,0,0,1,.977,7.567,3.2,3.2,0,0,1,.608,6.021,3.153,3.153,0,0,1,1.7,3.53a3.79,3.79,0,0,1,2.163-.785V2.056H4.71v.689A3.56,3.56,0,0,1,6.7,3.482,3.276,3.276,0,0,1,7.842,5.637l-1.49.224a2.424,2.424,0,0,0-.537-1.3,1.934,1.934,0,0,0-1.105-.6V8.12a11.436,11.436,0,0,1,1.442.425,3.562,3.562,0,0,1,1.1.721A2.853,2.853,0,0,1,7.9,10.275a3.4,3.4,0,0,1,.232,1.266A3.461,3.461,0,0,1,4.71,15.113v1.458Zm0-12.625a2.155,2.155,0,0,0-1.33.673,1.885,1.885,0,0,0-.481,1.29,1.878,1.878,0,0,0,.409,1.234,2.87,2.87,0,0,0,1.4.793Zm.849,9.966A2.123,2.123,0,0,0,6.1,13.183a2.249,2.249,0,0,0,.553-1.546,1.906,1.906,0,0,0-.393-1.258A3.3,3.3,0,0,0,4.71,9.522Z" transform="translate(-0.36 -2.056)"/>
  </g>
</svg>
