<svg id="Transporte" xmlns="http://www.w3.org/2000/svg" viewBox="0 0 26.953 31.641">
  <defs>
    <style>
      .cls-1 {
        fill: rgba(51,51,51,0.8);
      }
    </style>
  </defs>
  <g id="Vector_5">
    <path id="Path_23" data-name="Path 23" class="cls-1" d="M20.664,31.641H22.91a.9.9,0,0,0,.635-.265.907.907,0,0,0,.263-.639V26.913a3.211,3.211,0,0,0,2.2-.948,3.251,3.251,0,0,0,.943-2.216V3.164A3.174,3.174,0,0,0,26.032.927,3.135,3.135,0,0,0,23.809,0H3.145A3.135,3.135,0,0,0,.921.927,3.174,3.174,0,0,0,0,3.164V24.092a3.083,3.083,0,0,0,.926,2.16,3.045,3.045,0,0,0,2.173.868h.045v3.616a.907.907,0,0,0,.263.639.9.9,0,0,0,.635.265H6.289a.9.9,0,0,0,.635-.265.907.907,0,0,0,.263-.639V27.121H19.766v3.616a.907.907,0,0,0,.263.639A.9.9,0,0,0,20.664,31.641Zm1.137-8.1a1.994,1.994,0,0,1-1.833-1.248,2.016,2.016,0,0,1,.441-2.182,1.988,1.988,0,0,1,3.065.31,2.011,2.011,0,0,1-.906,2.97A1.988,1.988,0,0,1,21.8,23.541Zm-16.621,0a1.994,1.994,0,0,1-1.833-1.248,2.016,2.016,0,0,1,.441-2.182,1.988,1.988,0,0,1,3.065.31,2.011,2.011,0,0,1-.906,2.97A1.988,1.988,0,0,1,5.179,23.541Zm-.687-7.72a1.343,1.343,0,0,1-.953-.4,1.36,1.36,0,0,1-.395-.959V4.52a1.36,1.36,0,0,1,.395-.959,1.343,1.343,0,0,1,.953-.4H22.461a1.343,1.343,0,0,1,.953.4,1.36,1.36,0,0,1,.395.959v9.944a1.36,1.36,0,0,1-.395.959,1.343,1.343,0,0,1-.953.4Z"/>
  </g>
</svg>
