<svg xmlns="http://www.w3.org/2000/svg" viewBox="0 0 27.086 22.507">
  <defs>
    <style>
      .cls-1 {
        fill: #369c38;
      }

      .cls-2 {
        fill: none;
        stroke: #fff;
      }
    </style>
  </defs>
  <g id="Icone_transferencia" data-name="Icone transferencia" transform="translate(-178.321 -618.698)">
    <path id="Path_9" data-name="Path 9" class="cls-1" d="M19.5,0a2.192,2.192,0,0,0-1.2.426,2.128,2.128,0,0,0-.453,3l1.744,2.307H2.174a2.15,2.15,0,1,0,0,4.3H23.912a2.162,2.162,0,0,0,2.174-2.15,2.828,2.828,0,0,0-.634-1.523L21.331.876A2.17,2.17,0,0,0,19.5,0ZM2.174,11.47A2.162,2.162,0,0,0,0,13.62a2.829,2.829,0,0,0,.634,1.523L4.755,20.63a2.169,2.169,0,0,0,3.034.448,2.128,2.128,0,0,0,.453-3L6.5,15.77H23.912a2.15,2.15,0,1,0,0-4.3Z" transform="translate(178.821 619.199)"/>
    <path id="Path_10" data-name="Path 10" class="cls-2" d="M19.5,0a2.192,2.192,0,0,0-1.2.426,2.128,2.128,0,0,0-.453,3l1.744,2.307H2.174a2.15,2.15,0,1,0,0,4.3H23.912a2.162,2.162,0,0,0,2.174-2.15,2.829,2.829,0,0,0-.634-1.523L21.331.876A2.17,2.17,0,0,0,19.5,0ZM2.174,11.47A2.162,2.162,0,0,0,0,13.62a2.829,2.829,0,0,0,.634,1.523L4.755,20.63a2.169,2.169,0,0,0,3.034.448,2.128,2.128,0,0,0,.453-3L6.5,15.77H23.912a2.15,2.15,0,1,0,0-4.3Z" transform="translate(178.821 619.199)"/>
  </g>
</svg>
